<?xml version="1.0" encoding="utf-8"?>
<!-- Generator: Adobe Illustrator 18.0.0, SVG Export Plug-In . SVG Version: 6.00 Build 0)  -->
<!DOCTYPE svg PUBLIC "-//W3C//DTD SVG 1.1//EN" "http://www.w3.org/Graphics/SVG/1.1/DTD/svg11.dtd">
<svg version="1.1" id="圖層_1" xmlns="http://www.w3.org/2000/svg" xmlns:xlink="http://www.w3.org/1999/xlink" x="0px" y="0px"
	 viewBox="0 213.5 516 85" enable-background="new 0 213.5 516 85" xml:space="preserve">
<rect x="2" y="213.5" fill="#FFFBF4" width="512" height="85"/>
<rect x="168.8" y="254.6" fill="#DB707F" width="32.5" height="1.4"/>
<rect x="202.7" y="254.6" fill="#F7941D" width="32.5" height="1.4"/>
<rect x="236.5" y="254.6" fill="#7BC48B" width="32.5" height="1.4"/>
<rect x="270.9" y="254.6" fill="#6B64AC" width="32.5" height="1.4"/>
<rect x="304.9" y="254.6" fill="#71AFD8" width="32.5" height="1.4"/>
<rect x="339.4" y="254.6" fill="#EED42D" width="32.5" height="1.4"/>
<text transform="matrix(1 0 0 1 175.9484 244.247)" font-family="'STHeitiTC-Light'" font-size="26.3656">北基金</text>
<g>
	<path fill="#00AEEF" d="M156.9,265.1c-0.1-10.1-9-18.3-19.9-18.2c-10.9,0.1-19.8,8.3-19.7,18.5c0.1,10.1,9,18.3,19.9,18.2
		C148.1,283.4,156.9,275.2,156.9,265.1z"/>
	<path fill="#FDB812" d="M139.3,251.6c-0.6,2-2.1,3.7-3.5,3.7c-1.3,0-1.9-1.6-1.3-3.7c0.6-2,2.1-3.7,3.5-3.7
		C139.3,247.9,139.9,249.5,139.3,251.6z"/>
	<path fill="#FDB812" d="M149.4,272.4L149.4,272.4L149.4,272.4L149.4,272.4z"/>
	<path fill="#F7941D" d="M131.7,259.4c0,0-6.7,5.9-13.3,5.4c-6.7-0.5-9.8-7.7-10-8.7s-1.3-3.4-1.3-3.4s-1.4-4.1-5.7-3.3
		c0,0,0.3-1.5,2.3-2c0,0,0.9-3.3,4.3-2.9c0,0,2.3,0.1,3.6,2c1.2,1.7,4.3,2,5.8,1.8c0,0,5.7-22,39.2-22c0,0-4.1,9.8-14.1,15.7
		c0,0-2.5,1.7-1.9,3.5c0,0,0.2,1.3,2.4,2.3l0,0c5.3,1.5,9.6,5,12,9.5C151,255.6,141.2,252.9,131.7,259.4"/>
	<path fill="#FFFFFF" d="M147.1,269.7L147.1,269.7c-3.7,0.9-7.4-0.3-8.5-3c-1.3-3,1-6.6,5.2-8.2c0.5-0.2,1-0.3,1.5-0.4l0,0
		c0,0,3.8-1,8.9,0.1c0,0,0.6,0.1,1.3,0.3v0c-0.1-0.3-0.3-0.6-0.4-0.9c0-0.1-0.1-0.2-0.2-0.3c0,0,0-0.1-0.1-0.1
		c-3.9-1.5-13.7-4.3-23.1,2.2c0,0-6.7,5.9-13.3,5.4c-0.4,0-0.8-0.1-1.2-0.2c0,0.2,0,0.5,0,0.7c7.5,2.7,13.2-1.3,13.2-1.3
		c0.1,1.3,0.5,2.6,1.1,3.7c-2.5,1.1-7.2,3.7-9.8,9.2l0,0c0.1,0.1,0.2,0.2,0.3,0.3c0.1,0.1,0.2,0.2,0.2,0.2c0.1,0.1,0.2,0.2,0.3,0.3
		c0,0,0,0,0.1,0.1c0.3,0.3,0.6,0.5,0.9,0.8l0,0c0.6-1.3,3.1-5.1,11.3-7.2c2.2,1.6,5.1,2.5,8.2,2.5c2.3,0,4.5-0.6,6.4-1.5l0,0
		c2.4-1,4-2.8,4-2.8l2.6,0.9l0,0c0.1-0.2,0.1-0.3,0.1-0.5c0,0,0,0,0-0.1l-2.7-4C151.7,268.8,147.1,269.7,147.1,269.7z M149.4,272.4
		L149.4,272.4L149.4,272.4L149.4,272.4z"/>
	<path fill="#FFDF4F" d="M131.7,259.4c9.5-6.4,19.2-3.7,23.1-2.2c-1.6-3.1-4.1-5.7-7.2-7.5c-13.2,2.2-16,8.3-16.6,10.2
		C131.5,259.6,131.7,259.4,131.7,259.4z"/>
	<path fill="#FFFFFF" d="M107.7,246.9c0-0.4-0.4-0.7-0.8-0.7c-0.4,0-0.8,0.3-0.8,0.7s0.4,0.7,0.8,0.7
		C107.4,247.7,107.7,247.3,107.7,246.9z"/>
	<path fill="#FFFFFF" d="M139.3,251.6c-0.6,2-2.1,3.7-3.5,3.7c-1.3,0-1.9-1.6-1.3-3.7c0.6-2,2.1-3.7,3.5-3.7
		C139.3,247.9,139.9,249.5,139.3,251.6z"/>
</g>
<text transform="matrix(1 0 0 1 260.6104 235.5656)" font-family="'STHeitiTC-Light'" font-size="16.8416">青年志工中心</text>
<text transform="matrix(1 0 0 1 261.0482 248.8256)" font-family="'STHeitiTC-Light'" font-size="10.8775">Youth Volunteer Center</text>
<g>
	<path fill="#FFFFFF" d="M437.5,276.4c4.7,0,8.4,3.7,8.4,8.3"/>
	<path fill="#FFFFFF" d="M445.9,284.6c0,4.6-3.8,8.3-8.4,8.3c-4.7,0-8.4-3.7-8.4-8.3c0-4.6,3.8-8.3,8.4-8.3"/>
	<path fill="none" stroke="#231915" stroke-width="0.2894" stroke-miterlimit="10" d="M437.5,276.4c4.7,0,8.4,3.7,8.4,8.3
		c0,4.6-3.8,8.3-8.4,8.3c-4.7,0-8.4-3.7-8.4-8.3C429,280.1,432.8,276.4,437.5,276.4"/>
	<path fill="#231915" d="M433.6,289.1l0.2,0.1v0c0-0.1,0.1-0.1,0.2,0c0.1,0,0.1,0.1,0.1,0.2l0,0l0.1,0.1c0,0,0.1,0.1,0.1,0.1
		c0,0,0,0.1,0,0.1c0,0,0.1,0,0.1-0.1c0,0,0.1,0,0.1,0c0,0,0.1,0.1,0,0.1c0,0-0.1,0.1-0.1,0.1c-0.1,0-0.2,0.1-0.3,0.1
		c0,0,0.1,0,0.1,0c0,0,0,0,0,0.1c0,0,0,0-0.1,0.1c-0.1,0-0.1,0-0.1,0c0,0-0.1-0.1-0.2-0.1c0,0,0,0,0,0c-0.1,0-0.1,0-0.2,0l0,0
		c0.1,0,0.1,0.1,0.2,0.1c0,0,0.1,0,0.1,0.1c0.1,0,0.1,0.1,0.1,0.1c0,0,0,0-0.1,0s-0.1,0-0.2,0c-0.1,0-0.2,0-0.3,0c0,0,0,0,0,0
		c0,0,0,0.1,0,0.1v0c0.1,0,0.1,0.1,0.2,0.1c0,0,0,0,0,0.1c0,0-0.1,0.1-0.1,0c0,0-0.1,0-0.1,0c0,0.1-0.1,0.1-0.1,0.2
		c-0.1,0.1-0.1,0.2-0.2,0.2c-0.1,0-0.1,0-0.2,0c-0.1,0-0.2-0.1-0.3-0.1c-0.1,0-0.1-0.1-0.1-0.1c0-0.1,0-0.1,0-0.2c0,0,0,0,0.1,0
		c0.1,0.1,0.1,0.1,0.1,0.1c0.1,0,0.1,0.1,0.2,0.1c0,0,0.1,0,0.1,0c0,0,0.1-0.1,0.1-0.1l0,0c-0.2-0.1-0.5-0.1-0.7-0.2
		c-0.1,0-0.1-0.1-0.1-0.1c0,0,0.1-0.1,0.1-0.1c0,0,0.1,0,0.1,0c0.2,0.1,0.4,0.2,0.6,0.2c0,0,0-0.1,0-0.2c0,0,0-0.1,0-0.1
		c0,0,0.1-0.1,0.1,0c0,0,0,0,0.1,0.1c0,0,0,0,0,0c0,0,0.1,0,0.2,0c0,0,0,0,0,0s0,0-0.1-0.1c-0.1,0-0.1-0.1-0.2-0.1c0,0-0.1,0-0.1,0
		c0,0,0,0,0,0c0,0,0,0,0,0c-0.2,0-0.3,0-0.3-0.1c0,0-0.1-0.1-0.1-0.1c0-0.1,0-0.1,0-0.2c0,0,0,0,0.1,0c0,0,0.1,0.1,0.1,0.1
		c0.1,0.1,0.2,0.1,0.3,0.1c0.1,0,0.2,0,0.3,0c-0.1,0-0.1-0.1-0.2-0.1c-0.1,0-0.2-0.1-0.3-0.1c-0.1,0-0.1-0.1-0.1-0.1
		c0,0,0.1-0.1,0.1-0.1c0,0,0.1,0,0.1,0l0.1,0.1c0.1,0.1,0.2,0.1,0.3,0.2l0.1-0.2c-0.1-0.1-0.2-0.1-0.3-0.1c-0.1,0-0.1-0.1,0-0.1
		c0,0,0,0,0.1-0.1C433.5,289.1,433.5,289.1,433.6,289.1 M434.8,290.6c0.1,0,0.1,0.1,0,0.2c-0.2,0.2-0.3,0.4-0.5,0.5c0,0,0,0,0,0
		c0,0.1,0.1,0.2,0.2,0.3c0,0.1,0.1,0.1,0.2,0.2c0,0,0.1,0.1,0,0.1c0,0-0.1,0.1-0.2,0.1c-0.1,0-0.2,0-0.2,0c0,0-0.1-0.1-0.1-0.1
		c0-0.1-0.1-0.2-0.1-0.3c0-0.1,0-0.1,0-0.2c0,0-0.1,0-0.1,0c-0.2,0-0.3,0-0.3,0c-0.1,0-0.1-0.1-0.2-0.2c0-0.1,0-0.2,0-0.2
		c0,0,0,0,0.1,0l0.1,0.1c0.1,0.1,0.2,0.1,0.3,0.1c0,0,0.1,0,0.1,0c0,0,0,0,0-0.1c0-0.2,0-0.3,0-0.4c0,0,0,0,0-0.1
		c0-0.1,0.1-0.1,0.2,0c0,0,0.1,0.1,0.1,0.1c0,0.1,0,0.2,0.1,0.3c0,0,0,0,0,0c0.1-0.1,0.2-0.2,0.3-0.3
		C434.7,290.5,434.8,290.5,434.8,290.6 M433.9,289.8c0.1,0,0.2,0,0.3-0.1c-0.1,0-0.2-0.1-0.2-0.1L433.9,289.8
		C433.8,289.7,433.8,289.8,433.9,289.8 M434.9,289.8c0.1,0,0.1,0.1,0,0.1c0,0-0.1,0.1-0.1,0.1s-0.1,0.1-0.1,0.1l0,0
		c0.3,0.2,0.5,0.3,0.6,0.3c0,0,0,0.1,0,0.1c0,0-0.1,0.1-0.1,0.1c-0.1,0-0.1,0-0.2,0c-0.1-0.1-0.2-0.1-0.3-0.2
		c-0.1,0-0.2-0.1-0.3-0.1c0,0,0,0,0,0c0,0,0,0,0,0c-0.1,0-0.1,0-0.1,0c0,0-0.1-0.1-0.1-0.1c0-0.1,0-0.1,0-0.2c0,0,0.1,0,0.1,0
		c0.1,0,0.1,0,0.2,0C434.6,290,434.7,289.9,434.9,289.8C434.8,289.8,434.9,289.8,434.9,289.8"/>
	<path fill="#231915" d="M437.6,290.4c0.1,0,0.2,0,0.2,0.1c0,0,0,0.1,0,0.1l0.8,0c0.1,0,0.2,0,0.4,0c0.1,0,0.1,0,0.1,0
		c0,0,0,0.1-0.1,0.2c-0.1,0.1-0.1,0.1-0.2,0.1c-0.3,0-0.5-0.1-0.6-0.1c-0.2,0-0.4,0-0.6,0c0,0,0,0,0,0c0,0,0,0,0,0
		c-0.1,0-0.1,0.1-0.2,0.1s-0.1,0-0.1,0.1c0,0,0,0,0,0c0.1,0,0.1,0,0.2,0c0.2,0,0.3,0,0.5,0c0,0,0,0,0,0l0,0c0,0-0.1,0-0.1-0.1l0,0
		c0-0.1,0-0.1,0.1-0.1c0,0,0,0,0,0c0.1,0.1,0.2,0.2,0.3,0.3c0,0,0,0,0,0c0,0.1,0,0.1-0.1,0.1c-0.1,0-0.1,0-0.2,0
		c-0.3,0-0.5,0-0.6,0.1c-0.1,0-0.1,0-0.2,0c-0.1,0-0.1,0-0.2,0c-0.1,0-0.2,0-0.2-0.1c0,0,0-0.1,0.1-0.1c0,0,0.1,0,0.1,0
		c0,0,0.1-0.1,0.1-0.1c0,0,0.1-0.1,0.1-0.1c-0.1,0-0.2,0-0.3,0c-0.1,0-0.3,0-0.6,0.1c-0.1,0-0.1,0-0.1-0.1c0,0,0-0.1,0.1-0.1
		s0.1-0.1,0.1-0.1c0,0,0.1,0,0.1,0c0.4,0,0.8-0.1,1-0.1c0,0,0-0.1,0-0.1C437.4,290.5,437.5,290.4,437.6,290.4 M437,291.5
		c0,0,0.1,0,0.1,0c0.1,0,0.1,0,0.2,0c0.3,0,0.5,0,0.8,0c0,0,0.1,0,0.2,0c0.1,0,0.1,0,0.1,0.1c0,0,0,0.1,0,0.1c0,0.1,0,0.3,0,0.4
		c0,0.1,0,0.2,0,0.2c0,0.1,0,0.2,0,0.2c0,0.1,0,0.1-0.1,0.1c0,0-0.1,0-0.1,0c0,0,0-0.1,0-0.1s0-0.1,0-0.2c-0.5,0-0.8,0-1.1,0.1l0,0
		c0,0.1-0.1,0.1-0.2,0.2c-0.1,0.1-0.2,0.1-0.2,0.1c-0.1,0-0.2,0-0.2-0.1c-0.1-0.1-0.1-0.1-0.1-0.2c0,0,0,0,0.1-0.1
		c0.2,0,0.3,0,0.4-0.1c0.1,0,0.1-0.1,0.2-0.2c0-0.1,0-0.2,0-0.3C437,291.8,436.9,291.7,437,291.5C436.9,291.6,436.9,291.5,437,291.5
		 M437.1,292.2h0.9c0,0,0.1,0,0.1,0c0,0,0-0.1,0-0.1C437.6,292,437.3,292.1,437.1,292.2C437.1,292.1,437.1,292.1,437.1,292.2
		 M437.1,291.8C437.2,291.8,437.2,291.8,437.1,291.8h0.9c0,0,0.1,0,0.1,0c0,0,0,0,0-0.1c0-0.1,0-0.1-0.1-0.1c-0.4,0-0.7,0-0.7,0
		C437.2,291.7,437.2,291.8,437.1,291.8C437.1,291.8,437.1,291.8,437.1,291.8"/>
	<path fill="#231915" d="M440.1,290c0.1-0.1,0.2-0.1,0.2,0c0,0,0,0.1,0.1,0.1c0.2-0.1,0.3-0.2,0.3-0.3c0,0,0.1,0,0.1,0
		c0,0,0,0.1,0,0.1c0,0.1,0,0.1-0.1,0.1c-0.1,0.1-0.3,0.2-0.6,0.4c-0.1,0-0.1,0.1-0.2,0.2c-0.1,0.1-0.1,0.1-0.2,0c0,0,0-0.1,0-0.1
		c0,0,0-0.1,0.1-0.1l0.1,0c0.1-0.1,0.2-0.2,0.3-0.2c0,0-0.1-0.1-0.1-0.1C440,290.2,440,290.1,440.1,290 M440.2,290.7
		c0.1-0.1,0.1-0.1,0.2,0l0.1,0.2l0.1-0.1l0.2-0.2l-0.2-0.2c0-0.1,0-0.1,0-0.1c0.1-0.1,0.1-0.1,0.2,0l0.1,0.2l0,0l0.1-0.1
		c0,0,0.1,0,0.1,0c0,0,0,0.1,0,0.1c0,0,0,0.1,0,0.1c-0.1,0.1-0.3,0.2-0.4,0.3c-0.1,0.1-0.2,0.2-0.3,0.3c-0.1,0.1-0.2,0.1-0.2,0.2
		c-0.1,0.1-0.1,0.1-0.2,0c0,0,0-0.1,0-0.1c0,0,0-0.1,0.1-0.1c0.1,0,0.1-0.1,0.1-0.1l0.1-0.1l0,0l-0.2-0.1
		C440.1,290.8,440.1,290.7,440.2,290.7 M440.6,291.2c0,0,0.1,0,0.1,0c0.2-0.1,0.3-0.3,0.5-0.4c0-0.1,0.1-0.1,0.1-0.1
		c0.1,0,0.1,0,0.2,0c0.1,0.1,0.2,0.3,0.3,0.5c0.1,0.1,0.1,0.1,0,0.2c-0.1,0-0.2,0.1-0.3,0.2c-0.1,0.1-0.2,0.2-0.3,0.3
		c-0.1,0-0.1,0-0.2,0c0,0-0.1-0.1-0.1-0.2c-0.1-0.1-0.2-0.2-0.3-0.3C440.5,291.3,440.5,291.3,440.6,291.2 M441.5,291.3
		c0,0,0-0.1,0-0.1c-0.1-0.1-0.1-0.2-0.2-0.3c0,0,0,0-0.1,0c-0.1,0-0.1,0.1-0.3,0.2c-0.1,0-0.1,0.1-0.1,0.1c0,0,0,0,0,0.1l0.2,0.3
		c0,0,0.1,0,0.1,0c0.1-0.1,0.1-0.1,0.2-0.2C441.4,291.4,441.5,291.4,441.5,291.3 M441,289.5c0.2-0.1,0.3-0.3,0.5-0.4
		c0,0,0.1-0.1,0.1-0.1c0.1-0.1,0.1,0,0.2,0c0,0,0,0.1,0,0.2c0,0.1,0,0.3,0,0.5h0c0.1,0,0.2,0,0.3,0c0.1,0,0.2,0.1,0.2,0.1
		c0.1,0.1,0.1,0.2,0.1,0.4c0,0.1-0.1,0.3-0.2,0.4c0,0-0.1,0.1-0.1,0.1c0.1,0.1,0.1,0.1,0.2,0.2c0.1,0.2,0.2,0.3,0.1,0.4
		c-0.1,0.1-0.2,0-0.3-0.1c-0.3-0.3-0.4-0.6-0.5-0.7c-0.1-0.1-0.3-0.3-0.4-0.5c0,0,0,0-0.1-0.1l0,0c-0.1,0-0.1,0-0.1,0
		c0,0,0-0.1,0-0.1C440.9,289.6,441,289.5,441,289.5 M441.2,289.6C441.2,289.6,441.3,289.6,441.2,289.6c0.1,0.1,0.2,0.2,0.3,0.3
		l0.1-0.5c0,0,0,0-0.1,0L441.2,289.6C441.2,289.6,441.2,289.6,441.2,289.6 M441.7,290.1c0.1,0.1,0.2,0.2,0.3,0.3c0,0,0,0,0,0
		c0.1-0.1,0.2-0.2,0.2-0.3c0-0.1,0-0.1,0-0.2c0,0-0.1-0.1-0.2-0.1c-0.1,0-0.2,0-0.2,0.1l0,0L441.7,290.1
		C441.7,290.1,441.7,290.1,441.7,290.1"/>
	<path fill="#231915" d="M432.4,287.7l-0.8,1.1l0.8-0.5c0.1,0,0.1-0.1,0.1-0.1c0,0,0-0.1,0-0.1l0,0l0,0l0.3,0.4l0,0l0,0
		c0-0.1-0.1-0.1-0.1-0.1c0,0-0.1,0-0.1,0.1l-0.8,0.5c-0.1,0-0.1,0.1-0.1,0.1c0,0,0,0,0,0.1c0,0,0,0.1,0.1,0.1l0,0l-0.2-0.3l0.7-1
		l-1.3,0.1l-0.2-0.3l0,0l0,0c0,0.1,0.1,0.1,0.1,0.1c0,0,0.1,0,0.1-0.1l0.8-0.5c0.1,0,0.1-0.1,0.1-0.1c0,0,0-0.1,0-0.1l0,0l0,0
		l0.3,0.5l0,0l0,0c0-0.1-0.1-0.1-0.1-0.1c0,0-0.1,0-0.1,0.1l-0.8,0.5L432.4,287.7L432.4,287.7z"/>
	<path fill="#231915" d="M431.7,286.2L431.7,286.2l0.2,0.6l0,0l0,0c0-0.1-0.1-0.1-0.1-0.1c0,0-0.1,0-0.2,0l-0.9,0.3
		c-0.1,0-0.1,0-0.1,0.1c0,0,0,0,0,0.1c0,0,0,0.1,0,0.1l0,0l0,0l-0.2-0.6l0,0l0,0c0,0.1,0.1,0.1,0.1,0.1c0,0,0.1,0,0.2,0l0.9-0.3
		c0.1,0,0.1,0,0.1-0.1c0,0,0,0,0-0.1C431.7,286.3,431.7,286.3,431.7,286.2L431.7,286.2z"/>
	<path fill="#231915" d="M430.1,286.4l-0.1-0.4l1-1l-0.8,0.1c-0.1,0-0.1,0-0.2,0.1c0,0,0,0.1,0,0.1v0h0l-0.1-0.5h0v0.1
		c0,0.1,0,0.1,0.1,0.1c0,0,0.1,0,0.2,0l1.2-0.2v0l-1.1,1.1l0.9-0.1c0.1,0,0.1,0,0.2,0c0,0,0-0.1,0-0.1v-0.1h0l0.1,0.5h0v0
		c0-0.1,0-0.1-0.1-0.1c0,0-0.1,0-0.2,0l-1,0.1c0,0-0.1,0.1-0.1,0.1c0,0,0,0.1,0,0.1C430.1,286.3,430.1,286.3,430.1,286.4
		L430.1,286.4z"/>
	<path fill="#231915" d="M431.5,283.9L431.5,283.9v0.6h0v-0.1c0-0.1,0-0.1,0-0.1c0,0-0.1,0-0.2,0l-0.9-0.1c-0.1,0-0.1,0-0.1,0
		c0,0,0,0,0,0c0,0,0,0.1,0,0.1v0.1h0l0-0.6h0v0.1c0,0.1,0,0.1,0,0.1c0,0,0.1,0,0.2,0l0.9,0.1c0.1,0,0.1,0,0.1,0c0,0,0,0,0,0
		C431.5,284,431.5,284,431.5,283.9L431.5,283.9z"/>
	<path fill="#231915" d="M430.2,282.5l0.5,0.1v0c-0.1,0-0.2,0-0.2,0s-0.1,0.1-0.2,0.1c0,0.1-0.1,0.1-0.1,0.2c0,0.1,0,0.1,0,0.2
		c0,0.1,0.1,0.1,0.1,0.1c0,0,0.1,0,0.1,0c0.1,0,0.2-0.1,0.3-0.3c0.1-0.1,0.2-0.2,0.2-0.2c0.1,0,0.1-0.1,0.2-0.1s0.1,0,0.2,0
		c0.1,0,0.2,0.1,0.2,0.2c0.1,0.1,0.1,0.2,0,0.3c0,0,0,0.1,0,0.1c0,0,0,0.1-0.1,0.1c0,0.1-0.1,0.1-0.1,0.1c0,0,0,0,0,0c0,0,0,0,0.1,0
		v0l-0.5-0.1v0c0.1,0,0.2,0,0.2,0c0.1,0,0.1-0.1,0.2-0.1c0-0.1,0.1-0.1,0.1-0.2c0-0.1,0-0.2,0-0.2c0-0.1-0.1-0.1-0.1-0.1
		c0,0-0.1,0-0.1,0c0,0-0.1,0-0.1,0.1c0,0-0.1,0.1-0.2,0.2c-0.1,0.1-0.2,0.2-0.2,0.2c-0.1,0-0.1,0.1-0.2,0.1c-0.1,0-0.1,0-0.2,0
		c-0.1,0-0.2-0.1-0.2-0.2s-0.1-0.2,0-0.3c0-0.1,0.1-0.1,0.1-0.2c0,0,0-0.1,0-0.1C430.3,282.6,430.3,282.6,430.2,282.5
		C430.3,282.5,430.2,282.5,430.2,282.5L430.2,282.5z"/>
	<path fill="#231915" d="M431.1,280.9l0.3,0.1l0,0c-0.1,0-0.1,0-0.1,0s-0.1,0-0.1,0c0,0-0.1,0.1-0.1,0.1l-0.1,0.2l1,0.5
		c0.1,0,0.1,0.1,0.2,0c0,0,0.1,0,0.1-0.1l0,0l0,0l-0.3,0.5l0,0l0,0c0-0.1,0-0.1,0-0.1c0,0-0.1-0.1-0.1-0.1l-1-0.5l-0.1,0.2
		c0,0.1,0,0.1-0.1,0.1c0,0,0,0.1,0,0.1c0,0,0.1,0.1,0.1,0.1l0,0l-0.3-0.2L431.1,280.9z"/>
	<path fill="#231915" d="M433.3,280.3l-0.3,0.3l-0.8-0.1c0,0,0,0.1-0.1,0.1l0,0l0,0l0.3,0.3c0.1,0.1,0.1,0.1,0.2,0.1s0.1,0,0.1-0.1
		l0,0l0,0l-0.4,0.5l0,0l0,0c0,0,0.1-0.1,0-0.1c0,0,0-0.1-0.1-0.1l-0.7-0.6c-0.1-0.1-0.1-0.1-0.2-0.1s-0.1,0-0.1,0.1l0,0l0,0l0.3-0.4
		c0.1-0.1,0.2-0.2,0.2-0.2s0.1-0.1,0.2-0.1c0.1,0,0.2,0,0.2,0.1c0.1,0.1,0.1,0.1,0.1,0.2c0,0.1,0,0.2-0.1,0.3l0.5,0
		c0.1,0,0.2,0,0.3,0C433.1,280.3,433.2,280.3,433.3,280.3L433.3,280.3z M432,280.6C432,280.6,432.1,280.6,432,280.6L432,280.6
		c0.1-0.1,0.2-0.2,0.2-0.3s0-0.2-0.1-0.2c-0.1-0.1-0.1-0.1-0.2-0.1c-0.1,0-0.2,0-0.2,0.1c0,0-0.1,0.1-0.1,0.1L432,280.6z"/>
	<path fill="#231915" d="M433.2,278.6l0.4-0.3l0,0l0,0c0,0,0,0-0.1,0.1c0,0,0,0.1,0,0.1c0,0,0,0.1,0,0.2l0.1,0.6l0.2,0.3
		c0.1,0.1,0.1,0.1,0.1,0.1c0,0,0.1,0,0.1,0l0,0l0,0l-0.5,0.4l0,0l0,0c0,0,0.1-0.1,0.1-0.1c0,0,0-0.1-0.1-0.1l-0.2-0.3l-0.7-0.2
		c-0.1,0-0.1,0-0.2,0s-0.1,0-0.1,0c0,0,0,0-0.1,0l0,0l0.5-0.4l0,0l0,0c0,0,0,0-0.1,0.1c0,0,0,0.1,0,0.1c0,0,0.1,0,0.1,0.1l0.5,0.2
		l0-0.5c0-0.1,0-0.1,0-0.2c0,0,0,0,0,0C433.3,278.6,433.3,278.6,433.2,278.6C433.2,278.6,433.2,278.6,433.2,278.6L433.2,278.6z"/>
	<path fill="#231915" d="M435.3,277.6c0.2-0.1,0.4,0,0.5,0.1s0.3,0.2,0.4,0.4c0.1,0.2,0,0.4,0,0.6c-0.1,0.2-0.2,0.3-0.4,0.4
		c-0.2,0.1-0.4,0-0.6-0.1c-0.2-0.1-0.3-0.3-0.4-0.5c-0.1-0.2,0-0.4,0.1-0.6C435,277.8,435.1,277.7,435.3,277.6 M435.3,277.7
		c-0.1,0-0.2,0.1-0.3,0.2c-0.1,0.1-0.1,0.3,0,0.5c0.1,0.2,0.2,0.4,0.3,0.5c0.1,0.1,0.2,0.1,0.3,0.1c0.1,0,0.2-0.1,0.3-0.2
		c0.1-0.1,0-0.3,0-0.5c-0.1-0.2-0.2-0.4-0.3-0.5C435.6,277.7,435.5,277.6,435.3,277.7"/>
	<path fill="#231915" d="M437.6,277.3l0,0.3h0c0-0.1,0-0.1-0.1-0.1c0,0-0.1-0.1-0.1-0.1c0,0-0.1,0-0.2,0l-0.3,0l0,0.6l0.3,0
		c0.1,0,0.1,0,0.1,0c0,0,0-0.1,0-0.2h0l0,0.5h0c0-0.1,0-0.1,0-0.1c0,0,0,0-0.1-0.1c0,0-0.1,0-0.1,0l-0.3,0l0,0.5c0,0.1,0,0.1,0,0.1
		c0,0,0,0,0,0c0,0,0.1,0,0.1,0h0.1v0l-0.6,0v0h0.1c0.1,0,0.1,0,0.1-0.1c0,0,0-0.1,0-0.2l0-0.9c0-0.1,0-0.1,0-0.1c0,0,0,0,0,0
		c0,0-0.1,0-0.1,0h-0.1v0L437.6,277.3"/>
	<path fill="#231915" d="M439.1,277.6l-0.1,0.6l0.3,0.1c0.1,0,0.1,0,0.2,0c0,0,0.1-0.1,0.1-0.2l0,0l-0.1,0.5h0c0-0.1,0-0.1,0-0.1
		c0,0,0-0.1,0-0.1c0,0-0.1,0-0.1-0.1l-0.3-0.1l-0.1,0.5c0,0.1,0,0.1,0,0.1s0,0,0,0c0,0,0,0,0.1,0l0.2,0.1c0.1,0,0.1,0,0.2,0
		c0,0,0.1,0,0.1,0c0.1,0,0.1-0.1,0.2-0.2l0,0l-0.2,0.3l-1.1-0.3v0l0.1,0c0,0,0.1,0,0.1,0c0,0,0,0,0.1,0c0,0,0-0.1,0-0.1l0.2-0.9
		c0-0.1,0-0.1,0-0.2c0,0-0.1-0.1-0.1-0.1l-0.1,0l0,0l1.1,0.3l-0.1,0.3l0,0c0-0.1,0-0.1,0-0.2c0,0,0-0.1-0.1-0.1c0,0-0.1,0-0.1-0.1
		L439.1,277.6z"/>
	<path fill="#231915" d="M439.7,279.1L439.7,279.1L439.7,279.1c0.1,0,0.2,0,0.2,0c0,0,0.1-0.1,0.1-0.1l0.5-0.8
		c0-0.1,0.1-0.1,0.1-0.2c0,0,0-0.1-0.1-0.1l0,0l0,0l0.5,0.3c0.2,0.1,0.3,0.2,0.4,0.3s0.1,0.2,0.1,0.3c0,0.1,0,0.3-0.1,0.4
		c-0.1,0.2-0.2,0.3-0.4,0.4c-0.2,0.1-0.4,0-0.7-0.1L439.7,279.1z M440.1,279.2c0.1,0.1,0.1,0.1,0.2,0.1c0.1,0.1,0.3,0.1,0.5,0
		c0.2,0,0.3-0.2,0.4-0.3s0.1-0.3,0.1-0.5c0-0.2-0.1-0.3-0.3-0.4c-0.1,0-0.1-0.1-0.2-0.1L440.1,279.2z"/>
	<path fill="#231915" d="M442.8,279.7L442.8,279.7l0.4,0.3l0,0l0,0c0,0-0.1-0.1-0.1,0c0,0-0.1,0-0.1,0.1l-0.4,0.4
		c-0.1,0.1-0.2,0.2-0.3,0.2c-0.1,0-0.2,0-0.3,0c-0.1,0-0.2-0.1-0.3-0.2c-0.1-0.1-0.2-0.2-0.2-0.3c0-0.1,0-0.2,0-0.3
		c0-0.1,0.1-0.2,0.2-0.3l0.4-0.4c0.1-0.1,0.1-0.1,0.1-0.2s0-0.1-0.1-0.1l0,0l0,0l0.5,0.4l0,0l0,0c0,0-0.1-0.1-0.1,0
		c0,0-0.1,0-0.1,0.1l-0.4,0.4c0,0-0.1,0.1-0.1,0.1c0,0.1-0.1,0.1-0.1,0.2s0,0.1,0,0.2c0,0.1,0.1,0.1,0.1,0.2
		c0.1,0.1,0.1,0.1,0.2,0.1c0.1,0,0.2,0,0.2,0c0.1,0,0.2-0.1,0.3-0.2l0.4-0.4c0.1-0.1,0.1-0.1,0.1-0.1
		C442.9,279.8,442.8,279.8,442.8,279.7L442.8,279.7z"/>
	<path fill="#231915" d="M444.1,281.5l-0.4,0.3l0,0c0.1-0.1,0.2-0.2,0.2-0.3c0-0.1,0-0.2-0.1-0.3c0-0.1-0.1-0.1-0.2-0.2
		s-0.2-0.1-0.3,0c-0.1,0-0.2,0.1-0.4,0.1c-0.1,0.1-0.2,0.1-0.3,0.2c-0.1,0.1-0.1,0.2-0.1,0.3s0,0.2,0.1,0.3c0,0.1,0.1,0.1,0.2,0.2
		s0.2,0.1,0.3,0.1v0c-0.2,0-0.3,0-0.4-0.1c-0.1-0.1-0.2-0.1-0.3-0.3c-0.1-0.2-0.1-0.4-0.1-0.6c0.1-0.2,0.2-0.3,0.3-0.4
		c0.1-0.1,0.3-0.1,0.4-0.1s0.3,0,0.4,0.1c0.1,0.1,0.2,0.2,0.3,0.3c0.1,0.1,0.1,0.2,0.1,0.3c0,0,0,0.1,0,0.1c0,0,0,0,0,0
		C444.1,281.4,444.1,281.4,444.1,281.5L444.1,281.5z"/>
	<path fill="#231915" d="M443.7,283.1l-0.2-0.5l-0.3,0c-0.1,0-0.1,0-0.1,0c0,0,0,0,0,0c0,0,0,0.1,0,0.1l0,0l-0.1-0.4l0,0
		c0,0.1,0.1,0.1,0.1,0.1c0,0,0.1,0,0.2,0.1l1.3,0.2l0,0l-1,0.8c-0.1,0.1-0.1,0.1-0.2,0.2s0,0.1,0,0.1l0,0l-0.2-0.5l0,0
		c0,0.1,0,0.1,0.1,0.1c0,0,0,0,0.1,0c0,0,0.1,0,0.1-0.1L443.7,283.1z M443.8,283l0.5-0.4l-0.6-0.1L443.8,283z"/>
	<path fill="#231915" d="M444.9,284.7l-0.3,0v0c0.1,0,0.1,0,0.1,0c0,0,0.1-0.1,0.1-0.1c0,0,0-0.1,0-0.1l0-0.2l-1.1,0.1
		c-0.1,0-0.1,0-0.2,0s0,0.1,0,0.1v0h0l0-0.6h0v0.1c0,0.1,0,0.1,0.1,0.1c0,0,0.1,0,0.2,0l1.1-0.1l0-0.2c0-0.1,0-0.1,0-0.1
		c0,0,0-0.1-0.1-0.1c0,0-0.1,0-0.2,0v0h0.3L444.9,284.7z"/>
	<path fill="#231915" d="M443.4,285.7L443.4,285.7l0-0.6h0v0.1c0,0.1,0,0.1,0,0.1c0,0,0.1,0,0.2,0l0.9,0.1c0.1,0,0.1,0,0.1,0
		c0,0,0,0,0.1,0c0,0,0-0.1,0-0.1v-0.1h0l-0.1,0.6h0v-0.1c0-0.1,0-0.1,0-0.1c0,0-0.1,0-0.2,0l-0.9-0.1c-0.1,0-0.1,0-0.1,0
		c0,0,0,0-0.1,0C443.4,285.5,443.4,285.6,443.4,285.7L443.4,285.7z"/>
	<path fill="#231915" d="M444.6,286.9c-0.1,0.2-0.2,0.3-0.4,0.4c-0.2,0.1-0.4,0.1-0.6,0c-0.2-0.1-0.4-0.2-0.5-0.4
		c-0.1-0.2-0.1-0.4-0.1-0.5c0.1-0.2,0.2-0.3,0.4-0.4c0.2-0.1,0.4-0.1,0.6,0c0.2,0.1,0.4,0.2,0.5,0.4
		C444.6,286.5,444.6,286.7,444.6,286.9 M444.5,286.8c0-0.1,0-0.2,0-0.3c-0.1-0.1-0.2-0.2-0.5-0.3c-0.2-0.1-0.4-0.1-0.6,0
		c-0.1,0-0.2,0.1-0.2,0.2s0,0.3,0,0.4c0.1,0.1,0.2,0.2,0.4,0.3c0.2,0.1,0.4,0.1,0.6,0C444.4,287.1,444.5,287,444.5,286.8"/>
	<path fill="#231915" d="M444.1,287.9l-0.2,0.3l-1.4,0.1l0.7,0.5c0.1,0,0.1,0.1,0.2,0.1c0,0,0.1,0,0.1-0.1l0,0l0,0l-0.3,0.4l0,0l0,0
		c0-0.1,0-0.1,0-0.1c0,0-0.1-0.1-0.1-0.1l-1-0.7l0,0l1.5-0.2l-0.8-0.5c-0.1,0-0.1-0.1-0.2-0.1c0,0-0.1,0-0.1,0.1l0,0l0,0l0.3-0.4
		l0,0l0,0c0,0.1,0,0.1,0,0.1c0,0,0.1,0.1,0.1,0.1l0.9,0.5c0.1,0,0.1,0,0.1,0C444,288,444,288,444.1,287.9
		C444.1,287.9,444.1,287.9,444.1,287.9L444.1,287.9z"/>
	<path fill="#3998B5" d="M436.4,279.7l-0.8,2.4l1-0.3l0.3-2.3c-0.2,0-0.4,0-0.5,0.1C436.5,279.6,436.5,279.7,436.4,279.7"/>
	<path fill="#3998B5" d="M435.5,282.5l-0.9,0.2c-0.1,0-0.3,0.2-0.4,0.3l-1.4,4.2c0.2,0.4,0.5,0.7,0.8,1c0,0,0,0,0,0L435.5,282.5z"/>
	<path fill="#3998B5" d="M440.3,282.6l-0.9-0.2l1.9,5.7l0,0c0.3-0.3,0.5-0.6,0.8-1l-1.4-4.2C440.6,282.8,440.5,282.7,440.3,282.6"/>
	<path fill="#3998B5" d="M439.3,282.1l-0.8-2.4c0,0,0-0.1,0-0.1c-0.2,0-0.3-0.1-0.5-0.1l0.3,2.3L439.3,282.1z"/>
	<path fill="#3B9252" d="M441.3,288.1c-0.8-0.4-2-0.7-3.3-0.8c0-0.2-0.1-0.6-0.2-0.9c0-0.3,0-0.4,0-0.5c0.9-0.1,1.8-1.1,1.8-1.8
		c-1.5,0-2.1,1-2.1,1s-0.6-1-2.1-1c0,0.7,0.8,1.7,1.8,1.8c0,0.1,0,0.2,0,0.5c0,0.3-0.2,0.7-0.2,0.9c-1.3,0.1-2.5,0.4-3.3,0.8
		c0,0,0,0,0,0c1,1,2.3,1.6,3.8,1.6C439,289.8,440.3,289.1,441.3,288.1C441.3,288.1,441.3,288.1,441.3,288.1"/>
	<path fill="#2E5B73" d="M438.5,279.7l0.8,2.4l0.1,0.4l0.9,0.2c0.1,0,0.3,0.2,0.4,0.3l1.4,4.2c0.4-0.7,0.7-1.6,0.7-2.5
		c0-2.5-1.8-4.6-4.3-5.1C438.4,279.6,438.4,279.7,438.5,279.7"/>
	<path fill="#2E5B73" d="M434.6,282.6l0.9-0.2l0.1-0.4l0.8-2.4c0,0,0-0.1,0-0.1c-2.4,0.5-4.3,2.5-4.3,5.1c0,0.9,0.2,1.8,0.7,2.5
		l1.4-4.2C434.3,282.8,434.5,282.7,434.6,282.6"/>
	<path fill="#296F8B" d="M449.8,281.6c0.1-0.1,0.2-0.1,0.3,0.1c0.1,0.1,0.2,0.2,0.2,0.3c0,0.1,0.1,0.1,0.2,0.1
		c0.2,0.1,0.2,0.2,0.2,0.4c0,0.2-0.2,0.3-0.5,0.4c-0.1,0.1-0.1,0.1-0.1,0.2c0,0.1,0,0.1,0.1,0.1c0.1,0,0.2,0,0.3-0.2
		c0.2-0.2,0.4-0.4,0.5-0.5c0.1,0,0.2-0.1,0.2-0.1c0.2,0,0.2,0.1,0.2,0.2c0,0-0.1,0.1-0.2,0.2c-0.3,0.1-0.3,0.3,0,0.4
		c0.1,0.2,0,0.3-0.3,0.4c-0.2,0.1-0.4,0.1-0.6,0.2c-0.2,0.1-0.3,0.2-0.4,0.4c0,0.1,0.1,0.1,0.3,0c0.1,0,0.1-0.1,0.1-0.1
		c0.1-0.1,0.3-0.1,0.6,0.1c0.2,0.1,0.3,0.1,0.4-0.1c0.1-0.7,0.5-1.5,1-2.3c0.1-0.2,0.2-0.2,0.3-0.2c0.2,0.1,0.3,0.3,0.3,0.5
		c-0.1,0.2-0.2,0.6-0.5,1c0,0.1,0.1,0.1,0.3,0c0.2-0.1,0.4-0.1,0.6-0.2c0.2-0.1,0.4-0.1,0.6,0.1c0.1,0.1,0.1,0.3-0.1,0.4
		c-0.1,0-0.2,0.1-0.3,0.1c-0.2,0-0.3,0.1-0.4,0.1c0,0-0.1,0.1-0.1,0.2c-0.1,0.5-0.1,0.8-0.1,1c0,0.2-0.1,0.3-0.1,0.5
		c0,0.1,0,0.2,0.1,0.3c0.7,0.4,1.3,0.7,1.7,1.1c0.2,0.1,0.2,0.2,0,0.2l-0.2,0c-0.1,0-0.2,0-0.3,0c-0.4,0.1-0.8,0-1.3-0.3l-0.6-0.4
		c-0.1,0-0.2,0-0.3,0c-0.3,0.1-0.7,0.2-1.1,0.3c-0.2,0-0.2,0-0.2,0c0.1-0.1,0.2-0.2,0.3-0.2l0.6-0.2c0.2-0.1,0.3-0.2,0.1-0.3
		c-0.1-0.1-0.2-0.3-0.3-0.5c-0.2-0.2-0.4-0.4-0.7-0.4c-0.1,0-0.3,0-0.4,0.2c-0.1,0.1-0.1,0.2,0,0.2c0.1,0,0.2,0,0.3-0.1
		c0.2,0,0.2,0,0.1,0.2c-0.2,0.1-0.3,0.2-0.3,0.4c0.1,0.3,0,0.7-0.2,1c0,0.1-0.2,0.2-0.3,0.4c-0.1,0-0.2,0.1-0.3,0.2
		c-0.1,0.1-0.2,0.2-0.3,0c0-0.1,0-0.1-0.1-0.2c-0.1-0.2-0.1-0.2,0-0.2c0.2,0,0.4-0.1,0.5-0.2c0.2-0.2,0.3-0.4,0.2-0.8
		c-0.1-0.1-0.2,0-0.4,0.1c-0.2,0.1-0.5,0.2-0.6,0.3c-0.1,0.1-0.2,0.1-0.3,0c-0.1-0.1-0.3-0.1-0.4,0c0,0.1-0.2,0.2-0.4,0.3
		c-0.1,0.1-0.2,0-0.1-0.1c0.2-0.4,0.5-0.9,0.8-1.3c0.2-0.1,0.2-0.3,0.2-0.4c0-0.1,0-0.1,0.1-0.2c0.2-0.1,0.3-0.2,0.4-0.3
		c0-0.1-0.1-0.1-0.4,0c-0.4,0.1-0.7,0.1-0.9,0.1c-0.1,0-0.1-0.1-0.1-0.1c-0.1-0.2-0.1-0.3,0.2-0.5c0.1-0.1,0.3-0.1,0.6-0.1l0.5-0.1
		c0.2,0,0.3-0.1,0.3-0.3c0,0-0.1-0.1-0.1-0.1c-0.2-0.1-0.4-0.2-0.6-0.4c-0.1-0.1,0-0.2,0.1-0.3c0.1-0.1,0.2-0.1,0.3-0.1
		c0.2,0,0.3-0.1,0.3-0.3C449.6,281.9,449.7,281.8,449.8,281.6 M449.8,285c-0.2-0.2-0.3-0.2-0.4,0l-0.4,0.5c-0.1,0.1-0.1,0.2-0.1,0.2
		c0.1,0,0.2,0,0.3-0.1c0.2-0.1,0.4-0.2,0.6-0.3C450.1,285.4,450.1,285.3,449.8,285 M450.5,284.4c-0.1,0-0.3,0.1-0.5,0.2
		c0,0,0,0.1,0.1,0.2c0.1,0.1,0.2,0.1,0.2,0.1c0,0,0.1-0.1,0.1-0.2C450.5,284.6,450.5,284.5,450.5,284.4 M452.8,284
		c-0.3,0-0.5,0-0.6,0.2c0,0.1-0.1,0.2-0.2,0.3c-0.1,0.1-0.1,0.1,0,0.3c0.1,0.1,0.2,0.3,0.3,0.4c0.1,0.1,0.1,0.2,0.2,0.2
		c0.1,0,0.1-0.1,0.1-0.1c0-0.3,0.1-0.7,0.2-1C452.8,284.1,452.8,284,452.8,284"/>
	<path fill="#296F8B" d="M458.4,281.6c0-0.1,0.1-0.1,0.4-0.1c0.2,0,0.4,0.1,0.6,0.3c0.1,0,0.1,0.1,0.1,0.2c0,0.1,0,0.1,0.1,0.1
		c0.7,0,1.4,0,2.1-0.1c0.4,0.1,0.5,0.3,0.5,0.5c0,0.2-0.2,0.3-0.4,0.3c-0.2,0-0.4-0.1-0.6-0.1c-0.3,0-0.6-0.1-1-0.1
		c-0.1,0-0.2,0.1-0.2,0.1s0.1,0.1,0.1,0.1c0.5,0.3,0.6,0.6,0.5,0.9c-0.1,0.2-0.3,0.3-0.6,0.1c-0.1-0.1-0.3-0.1-0.5,0
		c-0.6,0.1-1.2,0.2-1.9,0.3h-0.2c-0.3-0.1-0.3-0.2-0.3-0.4c0.1-0.1,0.2-0.2,0.3-0.2c0.1-0.1,0.3-0.2,0.4-0.4
		c0.1-0.1,0.1-0.2,0.1-0.2c-0.1,0-0.2,0-0.4,0c-0.2,0.1-0.4,0.1-0.6,0.2c-0.4,0.1-0.7,0.1-0.9,0c-0.1-0.1-0.2-0.2-0.3-0.2
		c-0.2-0.2-0.1-0.3,0.1-0.4c0.6-0.1,1.4-0.2,2.4-0.3c0.1,0,0.2,0,0.2-0.1c0-0.1-0.1-0.2-0.3-0.3
		C458.4,281.7,458.4,281.6,458.4,281.6 M459.6,284.1c0.3-0.2,0.5-0.2,0.8,0.1c0.3,0.3,0.4,0.7,0.4,1.1c0,0.3,0,0.7,0,1
		c0,0.2,0,0.4-0.1,0.6c0,0.1-0.1,0.2-0.2,0.2c-0.1,0-0.2,0.1-0.3,0.1c-0.3,0.2-0.5,0.2-0.7,0.1c-0.1-0.1-0.1-0.1-0.1-0.2
		c0-0.1-0.1-0.2-0.1-0.3c-0.1-0.1-0.2-0.2-0.1-0.1c0.3,0.1,0.5,0,0.6-0.3c0.1-0.4,0-0.9-0.1-1.5v-0.3c-0.1-0.3-0.2-0.3-0.5-0.2
		l-0.6,0.2c-0.2,0-0.3,0.1-0.3,0.2c0,0.2,0.1,0.2,0.3,0.1c0.4-0.1,0.7-0.2,0.9-0.1c0.1,0.1,0.1,0.1,0.1,0.2c0,0-0.1,0.1-0.2,0.2
		c-0.3,0.1-0.6,0.1-0.9,0.2c-0.2,0.1-0.3,0.2-0.1,0.5c0.1,0,0.2,0,0.4,0c0.2,0,0.4-0.1,0.6-0.1c0.2,0,0.4,0.1,0.4,0.2
		c-0.1,0.1-0.1,0.1-0.3,0.1c-0.2,0-0.5,0-0.9,0.1c-0.1,0-0.1,0-0.2,0.1c0,0.2-0.1,0.4-0.1,0.6c-0.1,0.2-0.2,0.2-0.2,0.2
		c0,0-0.1,0-0.1-0.1c-0.1-0.1-0.1-0.1-0.1-0.3c-0.1-0.5-0.1-1.2,0.1-2c0-0.2,0.1-0.4,0.2-0.5c0.1-0.2,0.2-0.2,0.3-0.1
		c0.1,0,0.1,0,0.2,0c0.3,0,0.5-0.1,0.8-0.1C459.4,284.2,459.5,284.2,459.6,284.1 M459.8,282.7c0,0-0.1-0.1-0.1-0.1
		c-0.1,0-0.2,0-0.3,0.2c0,0-0.1,0.1-0.1,0.1c-0.3,0.1-0.5,0.3-0.6,0.4c0,0.1,0.1,0.1,0.3,0.1l0.9-0.1c0.2,0,0.2-0.1,0.1-0.3
		C459.7,282.9,459.7,282.8,459.8,282.7"/>
	<path fill="#296F8B" d="M466.1,283c0.2-0.2,0.4-0.2,0.5,0.2c0,0.1-0.1,0.2-0.3,0.3c-0.1,0-0.2,0.1-0.2,0.1c-0.1,0.1-0.1,0.1,0,0.1
		c0.1,0,0.2,0,0.4,0c0.2,0,0.4,0,0.5,0.1c0.2,0.2,0.1,0.3-0.1,0.4c-0.7,0.1-1.6,0.3-2.5,0.6c-0.3,0.1-0.6,0.1-0.8,0.1
		c-0.2,0-0.3-0.1-0.4-0.2c-0.1-0.1,0-0.2,0.1-0.3l0.9-0.2c0.1,0,0.1,0,0.2-0.1c0,0-0.1-0.1-0.2-0.2c-0.1-0.1-0.1-0.2-0.1-0.3
		c0.1-0.2,0.3-0.2,0.5,0c0.1,0.1,0.1,0.2,0.1,0.3c0,0.2,0.1,0.3,0.3,0.2l0.3-0.1c0.1,0,0.1-0.1,0.1-0.1
		C465.7,283.5,465.9,283.3,466.1,283 M465.1,285c0.6-0.2,1.1-0.2,1.4-0.1c0.1,0,0.3,0.1,0.3,0.3c0,0.3-0.1,0.6-0.3,1
		c0,0.1,0.1,0.2,0.2,0.2c0.1,0.1,0,0.3-0.2,0.3c-0.5-0.1-0.9-0.1-1.3,0c-0.1,0-0.2,0.1-0.3,0.2c-0.1,0.1-0.2,0.1-0.4-0.2
		c-0.3-0.5-0.4-0.9-0.5-1.3c0-0.3,0.1-0.4,0.4-0.4C464.6,285.1,464.9,285.1,465.1,285 M464.9,281.8c0.2-0.1,0.4,0,0.6,0.1
		c0.2,0.1,0.3,0.1,0.3,0.2c0.1,0.1,0.2,0.1,0.3,0.1c0.1,0,0.2,0,0.4,0.1c0.3,0.2,0.3,0.4,0,0.4c-0.6,0.2-1.2,0.3-1.9,0.4
		c-0.2,0.1-0.4,0-0.6-0.3c-0.1-0.2-0.1-0.2,0.1-0.2c0.2,0,0.4,0,0.6-0.1c0.2,0,0.3-0.1,0.3-0.2c0-0.1,0-0.1-0.1-0.2
		C464.8,282,464.8,281.9,464.9,281.8 M466,285.3c0,0-0.1,0-0.3,0c-0.3,0.1-0.6,0.1-0.9,0.2c-0.1,0.1-0.1,0.1-0.1,0.3l0.1,0.3
		c0,0.1,0,0.2,0.2,0.2c0.1,0,0.3,0,0.5-0.1c0.2-0.1,0.3-0.2,0.4-0.3C465.9,285.7,466,285.5,466,285.3 M469.2,282.2
		c0.2-0.2,0.4-0.2,0.6,0.1c0.1,0.2,0,0.5-0.3,0.7c-0.2,0.2-0.3,0.3-0.5,0.5c-0.1,0.1-0.1,0.2,0.1,0.3c0.2,0.1,0.4,0.2,0.5,0.4
		c0.3,0.4,0.4,0.8,0.2,1.1c-0.1,0.3-0.3,0.5-0.7,0.6c-0.2,0.1-0.3,0.1-0.4-0.1c0-0.2-0.1-0.3-0.4-0.4c-0.1,0-0.1,0.1-0.1,0.2
		c0,0.6-0.1,1.1-0.3,1.5c-0.1,0.1-0.2,0.2-0.2,0.2c-0.1-0.2-0.1-0.3-0.1-0.5c0-1.4,0-2.7,0-4.1c0-0.1,0-0.3,0-0.4
		c0.1-0.2,0.3-0.2,0.6-0.1c0.1,0,0.2,0.1,0.3,0c0.2,0,0.4,0,0.6,0C469.1,282.3,469.1,282.2,469.2,282.2 M469,282.5
		c-0.1,0-0.3,0-0.4,0.1c-0.2,0.1-0.3,0.2-0.4,0.3c0,0.1-0.1,0.3-0.1,0.4l0.1,1.8c0.1,0.1,0.2,0.2,0.4,0.1c0.4,0.1,0.6-0.1,0.6-0.5
		c0-0.4-0.1-0.7-0.3-1.1c0,0-0.1-0.1-0.2,0c-0.1,0.1-0.2,0.1-0.2,0.1s-0.1,0-0.1-0.1c0.2-0.4,0.4-0.8,0.5-1.1
		C469,282.6,469,282.5,469,282.5"/>
	<path fill="#296F8B" d="M473.8,281.7c0.1-0.3,0.3-0.3,0.6-0.2c0.2,0.2,0.3,0.2,0.4,0.2c0.3-0.1,0.6,0,0.8,0.2
		c0.1,0.1,0.1,0.2,0.1,0.2c-0.1,0.1-0.4,0.2-0.8,0.2c-0.2,0-0.3,0.1-0.4,0.2c0,0.1,0.1,0.2,0.3,0.1c0.1,0,0.3,0,0.4,0
		c0.1,0.1,0.2,0.1,0.1,0.2c0,0.1-0.1,0.1-0.3,0.2l-0.3,0.1c-0.1,0-0.2,0.1-0.2,0.2c0,0.1,0,0.1,0.1,0.1c0.1,0,0.3,0,0.6,0
		c0.6,0,1.1-0.1,1.5-0.1c0.3,0,0.6,0.1,0.6,0.4c0,0.1-0.1,0.1-0.3,0.1c-0.5,0-1,0-1.6,0c-1.2,0-2.4,0.2-3.5,0.6
		c-0.2,0-0.3,0-0.5-0.1c-0.2-0.1-0.2-0.3-0.1-0.4c0.1-0.1,0.3-0.2,0.5-0.2c0.7-0.1,1.3-0.2,1.9-0.3c0.1,0,0.1-0.1,0.1-0.1
		c0-0.1-0.1-0.2-0.3-0.1c-0.2,0-0.4,0-0.5,0c-0.2-0.1-0.2-0.1-0.1-0.2c0.1-0.1,0.2-0.1,0.4-0.2c0.2,0,0.4-0.1,0.4-0.2
		c0-0.1,0-0.2-0.1-0.2c-0.2,0-0.3,0.1-0.5,0.1c-0.1,0.1-0.3,0-0.5-0.1c-0.3-0.2-0.3-0.4,0-0.4c0.3-0.1,0.6-0.1,0.9-0.2
		C473.7,281.9,473.7,281.8,473.8,281.7 M474.8,284.2c0.3-0.1,0.5,0.1,0.6,0.3c0.2,0.3,0.3,0.7,0.3,1.1c0,0.3,0,0.6,0,1
		c0,0.1,0,0.2-0.1,0.3c0,0.1-0.1,0.2-0.4,0.3l-0.3,0.2c-0.3,0.2-0.5,0.1-0.6-0.2c0-0.1,0-0.2-0.2-0.3c-0.1-0.1-0.1-0.1,0.1-0.1
		c0.3,0,0.5-0.1,0.5-0.3c0.1-0.3,0-0.8,0-1.6c0-0.3-0.2-0.4-0.4-0.3c-0.2,0-0.4,0.1-0.6,0.2c-0.2,0-0.4,0.1-0.4,0.3
		c0,0.1,0.1,0.2,0.3,0.1c0.1-0.1,0.3-0.1,0.5-0.1c0.2,0,0.3,0.1,0.3,0.1c0,0.1-0.1,0.2-0.3,0.3c-0.2,0.1-0.4,0.1-0.6,0.1
		c-0.2,0-0.3,0.1-0.3,0.3c0,0.1,0.1,0.1,0.2,0.1c0.2,0,0.4-0.1,0.5-0.1c0.2-0.1,0.4,0,0.5,0.2c0,0.1,0,0.1-0.1,0.1
		c-0.1,0-0.2,0.1-0.4,0.1c-0.2,0-0.4,0-0.6,0.1c-0.1,0-0.1,0-0.2,0.1c0,0.2-0.1,0.3-0.1,0.5c-0.1,0.2-0.2,0.2-0.2,0.3
		c-0.1,0-0.1,0-0.2-0.1c-0.1-0.1-0.2-0.3-0.2-0.6c0-0.2,0-0.4,0-0.6c0-0.4,0.1-0.7,0.2-1c0.1-0.2,0.2-0.4,0.3-0.5c0,0,0.1,0,0.3,0
		l1.2-0.1C474.6,284.3,474.7,284.3,474.8,284.2"/>
	<path fill="#296F8B" d="M480.4,281.6c0.2-0.1,0.4-0.1,0.6,0.1c0,0.1,0.1,0.2,0.2,0.2c0.1,0,0.2,0,0.4,0l0.6-0.1
		c0.3-0.1,0.5-0.1,0.7-0.1c0.4,0,0.5,0.2,0.4,0.4c-0.1,0.1-0.2,0.2-0.3,0.2c-0.2,0-0.3,0.1-0.5,0.1c-0.3,0-0.3,0.1-0.3,0.4
		c0.1,0.1,0.2,0.1,0.3,0.1c0.2,0,0.3,0,0.5,0.2c0.2,0.2,0.1,0.4-0.3,0.5c-0.3,0-0.4,0.1-0.5,0.2c0,0.1,0,0.3,0,0.4
		c0,0.2,0.1,0.3,0.3,0.3c0.5-0.1,0.9-0.1,1.3-0.1c0.1,0,0.2,0,0.3,0.1c0.2,0.1,0.4,0.3,0.4,0.5c-0.1,0.1-0.2,0.2-0.4,0.1
		c-0.5,0-1,0.1-1.6,0.1c-0.3,0-0.4,0.1-0.4,0.3c0.1,0.6,0,1.1-0.3,1.4c-0.1,0.1-0.2,0.2-0.2,0.3c-0.1,0.2-0.2,0.2-0.3,0.1
		c0-0.1-0.1-0.3-0.1-0.5l0-1.3c-0.1-0.1-0.1-0.1-0.3,0l-1.3,0.2c-0.3,0.1-0.6,0.1-0.9,0.1c-0.3,0-0.5-0.2-0.5-0.5
		c0-0.1,0-0.2,0.1-0.2c0.3-0.1,0.6-0.2,1.1-0.2c0.2,0,0.3-0.1,0.2-0.3c-0.1-0.2-0.1-0.4,0.1-0.5c0.2,0,0.3,0,0.5,0.1
		c0,0,0.1,0.1,0.1,0.3c0.1,0.2,0.2,0.3,0.4,0.3l0.2,0c0.3,0,0.4-0.1,0.3-0.3v-0.2c0-0.1,0-0.2-0.1-0.2c-0.1,0-0.2,0-0.3,0
		c-0.1,0-0.2,0-0.3-0.1c-0.1,0-0.2-0.1-0.2-0.2c0.1-0.2,0.4-0.4,0.7-0.4c0.2-0.1,0.3-0.2,0.2-0.3c0-0.2-0.1-0.3-0.3-0.2
		c-0.2,0-0.3,0-0.5-0.2c-0.1,0-0.3,0.1-0.5,0.3c-0.2,0.1-0.3,0.2-0.5,0.2c-0.2,0-0.3,0.1-0.3,0.1c0,0,0-0.1,0.1-0.2
		C479.5,282.4,479.9,282,480.4,281.6"/>
	<path fill="#296F8B" d="M488,281.8c0.1-0.1,0.2-0.1,0.4,0c0.2,0.1,0.2,0.2,0.1,0.4c-0.1,0.3-0.3,0.6-0.6,1
		c-0.1,0.1-0.1,0.2-0.1,0.2c0,0,0.1,0,0.3,0.1c0.2,0.1,0.3,0.2,0.3,0.4c0,0.1-0.1,0.2-0.3,0.3c-0.2,0.1-0.2,0.2-0.1,0.3
		c0.1,0.1,0,0.2-0.1,0.3c-0.5,0.2-0.7,0.5-0.8,0.7c0,0.1,0.1,0.1,0.2,0c0.1,0,0.2-0.1,0.3-0.2c0.3-0.2,0.5-0.2,0.6,0
		c0.1,0.4,0.1,0.7,0,1.1c-0.1,0.3-0.3,0.5-0.7,0.6c-0.1,0-0.2,0.1-0.3,0.2c-0.1,0.1-0.2,0.1-0.3,0.1c-0.2,0-0.2-0.1-0.2-0.2
		c0,0,0-0.1-0.1-0.2c-0.1-0.1-0.1-0.1,0.1-0.1c0.6,0.1,0.9-0.1,1-0.7c0-0.2,0-0.3-0.1-0.3c-0.1,0-0.3,0.1-0.6,0.2
		c-0.2,0.1-0.3,0.1-0.5-0.1c-0.1-0.1-0.1-0.1,0-0.3l0.2-0.5c0-0.2,0.1-0.3,0.2-0.4c0.4-0.2,0.7-0.4,0.7-0.6c0-0.1-0.1-0.1-0.2-0.1
		c-0.1,0-0.1,0-0.2,0c-0.1,0-0.2,0.1-0.3,0.2c-0.3,0.4-0.7,0.7-1.2,1c-0.2,0.1-0.2,0-0.1-0.1c0.2-0.3,0.5-0.7,1-1.3
		c0.1-0.1,0.2-0.2,0.2-0.3c0-0.1-0.1-0.1-0.2-0.2s-0.2-0.1-0.3-0.1c-0.1,0-0.2-0.1-0.3-0.1c0-0.1,0-0.2,0.2-0.3
		c0.3-0.1,0.5-0.1,0.7,0c0.2,0.1,0.4,0.1,0.5-0.1c0-0.1,0.1-0.1,0.1-0.2c0.1-0.1,0.1-0.2,0.1-0.3c-0.1-0.1-0.2-0.1-0.4,0
		c-0.1,0-0.2,0-0.3,0c-0.1-0.1-0.2-0.2-0.1-0.3c0.1-0.1,0.2-0.2,0.4-0.2h0.3C487.6,281.9,487.8,281.9,488,281.8 M490.3,284.8
		c0.2-0.1,0.4,0,0.4,0.3c-0.1,0.3-0.2,0.5-0.3,0.8c-0.1,0.1-0.1,0.2-0.1,0.3s0,0.1,0.1,0.1c0.3,0.2,0.7,0.3,1.2,0.5
		c0.1,0,0.2,0.1,0.3,0.1c0.2,0.1,0.2,0.2,0.1,0.1c-0.2,0-0.4,0-0.6,0.1c-0.5,0-1-0.1-1.5-0.5c-0.1,0-0.2,0-0.3,0
		c-0.2,0.1-0.5,0.1-0.9,0.2c-0.2,0-0.2,0,0-0.1c0.2,0,0.4-0.1,0.6-0.3c0.2-0.1,0.2-0.2,0-0.4c-0.2-0.2-0.4-0.3-0.7-0.3
		c-0.1-0.1-0.1-0.2,0.1-0.3c0-0.1,0.1-0.1,0.2,0c0.1,0,0.3,0.1,0.6,0.3c0.2,0.1,0.3,0.1,0.4,0c0.1-0.2,0.2-0.4,0.2-0.5
		c0-0.1-0.1-0.1-0.3-0.1c-0.1,0-0.2,0.1-0.3,0.1c-0.2,0.1-0.3,0.1-0.4,0.1c-0.1,0-0.1-0.1-0.1-0.2c0-0.1,0.1-0.2,0.2-0.2
		c0.2,0,0.4-0.1,0.6-0.1C490,284.9,490.1,284.9,490.3,284.8 M491.1,282.2c0.3-0.1,0.4,0,0.5,0.2c0,0.1-0.1,0.1-0.1,0.1
		c-0.2,0.1-0.4,0.2-0.8,0.3c-0.2,0.1-0.3,0.1-0.1,0.2c0.5,0.2,0.9,0.4,1.2,0.6c0.4,0.2,0.7,0.4,0.8,0.6c0,0.1,0,0.1-0.1,0.1
		c-0.1,0-0.2,0-0.3,0c-0.1,0-0.2,0-0.3,0c-0.4,0.1-0.8-0.1-1.3-0.4c-0.1-0.1-0.2-0.1-0.3-0.2c-0.2,0.1-0.2,0.2-0.3,0.4
		c0.1,0.1,0.2,0.1,0.4,0c0.1,0,0.1,0,0.2,0.1c0.1,0.1,0.1,0.1-0.1,0.2c-0.4,0.2-0.7,0.3-0.9,0.2c-0.1-0.1-0.1-0.1-0.1-0.2l0.2-0.5
		c-0.1-0.2-0.2-0.3-0.5-0.1c-0.1,0.1-0.2,0.2-0.2,0.3c0,0.2-0.1,0.3-0.1,0.5c0,0.2-0.1,0.4-0.4,0.5c0,0-0.1-0.1-0.1-0.2
		c0-0.3,0-0.6,0-0.9c0-0.1,0.1-0.2,0.1-0.3c0.2-0.2,0.3-0.2,0.3-0.2c0.1,0,0.2,0,0.3,0.1c0.1,0,0.2,0,0.4-0.1
		c0.1-0.1,0.1-0.2-0.1-0.3c-0.2-0.2-0.4-0.3-0.6-0.4c-0.2,0-0.3-0.1-0.3-0.3c0,0,0-0.1,0.1-0.1c0.3-0.1,0.6,0,0.9,0.2
		c0.1,0.1,0.2,0.1,0.3,0.2c0.2,0.1,0.3,0,0.5-0.2C490.7,282.4,490.9,282.3,491.1,282.2 M490.3,281.7c0.2-0.1,0.4-0.1,0.5,0.1
		c0,0.1,0,0.1,0,0.2c0,0-0.2,0.1-0.4,0.1c-0.2,0-0.4,0.1-0.6,0.1c-0.2,0-0.2,0-0.1-0.1C490,282,490.2,281.8,490.3,281.7"/>
	<path fill="#296F8B" d="M495.6,281.7c0.3,0,0.9,0,1.6,0c0.2,0,0.5,0,0.7,0c0.2,0,0.3,0.1,0.3,0.3c0,0.2-0.1,0.4-0.3,0.6
		c0,0.1-0.1,0.1-0.1,0.1c0,0.1-0.1,0.2-0.3,0.2c-0.1,0.1-0.1,0.1,0,0.2c0.1,0.1,0.3,0.1,0.4,0.1c0.2,0,0.3,0.1,0.4,0.3
		c0.1,0.2-0.1,0.3-0.4,0.4c-0.2,0-0.4,0.1-0.5,0.3c-0.1,0.2,0,0.3,0.2,0.2c0.6-0.1,1-0.1,1.2,0c0.2,0.1,0.3,0.2,0.3,0.3
		c0,0.1,0,0.2-0.2,0.2c-0.2,0-0.5,0-0.7,0c-0.1,0-0.1,0.1-0.1,0.1c0,0.1,0,0.1-0.2,0.2c-0.2,0.1-0.4,0.2-0.6,0.3
		c-0.1,0.1-0.1,0.1-0.1,0.2c0.1,0.1,0.3,0.2,0.6,0.3c0.4,0.2,0.8,0.4,1.3,0.5c0.2,0.1,0.5,0.2,0.6,0.3c0.1,0.1,0.1,0.2-0.1,0.2
		c-0.2,0-0.4,0.1-0.6,0.1c-0.2,0-0.4,0-0.6-0.1c-0.4-0.1-0.8-0.3-1.3-0.6c-0.2-0.2-0.4-0.3-0.6-0.1c-0.4,0.3-0.9,0.5-1.3,0.7
		c-0.2,0.1-0.4,0.1-0.5,0c-0.1,0-0.1-0.1-0.2-0.2c-0.2-0.2-0.1-0.3,0.1-0.3c0.3,0,0.4-0.1,0.3-0.4v-0.8c0,0-0.1,0-0.3,0
		c-0.2,0-0.3,0-0.5-0.1c-0.2-0.1-0.3,0-0.4,0.2c-0.2,0.3-0.5,0.6-0.8,1c-0.1,0.1-0.2,0.1-0.2,0c0.2-0.6,0.6-1.5,1.2-2.6
		c0.4-0.7,0.6-1.2,0.6-1.5c0-0.1,0-0.2,0.1-0.4c-0.1-0.1-0.1-0.2-0.1-0.3C495.1,281.8,495.3,281.7,495.6,281.7 M495.8,283.3
		c-0.1,0-0.2,0-0.3,0c-0.1,0-0.1,0.1-0.2,0.3c-0.2,0.5-0.4,0.9-0.6,1.3c0,0.1-0.1,0.1-0.1,0.2c0,0.1,0.1,0.1,0.3,0
		c0.2-0.1,0.5-0.1,0.7-0.2c0.2,0,0.3-0.1,0.3-0.3c0-0.1-0.1-0.1-0.2-0.1c-0.1,0-0.2-0.1-0.3-0.2c-0.2-0.2-0.2-0.3,0.2-0.4l0.2,0
		c0.1,0,0.2-0.1,0.2-0.2c0-0.1,0.1-0.2,0.1-0.3C496,283.3,495.9,283.3,495.8,283.3 M496,285.6c-0.1-0.1-0.2-0.2-0.3-0.2
		c-0.1,0-0.1,0.1-0.1,0.1c-0.1,0.2-0.1,0.5,0,0.8c0,0.1,0,0.2,0.1,0.2c0,0,0.1,0,0.2,0c0.4-0.1,0.7-0.2,0.8-0.3
		c0.1-0.1,0-0.2-0.2-0.3L496,285.6z M497.3,281.9c-0.3,0.1-0.6,0.1-0.9,0.2c-0.2,0.1-0.4,0.1-0.6,0.1c-0.2,0-0.3,0.1-0.2,0.2
		c0.1,0.1,0.1,0.2,0.1,0.3c0,0,0,0,0,0.1c0.1,0,0.2,0,0.4,0c0.3-0.1,0.6-0.1,0.9-0.2c0.1,0,0.2-0.1,0.3-0.2c0.2-0.2,0.2-0.4,0.2-0.5
		C497.5,281.9,497.4,281.9,497.3,281.9 M497,284.2c-0.1-0.1-0.2,0-0.4,0.1c-0.2,0.1-0.3,0.2-0.2,0.3c0.1,0.1,0.1,0.1,0.3,0
		C496.9,284.6,497,284.4,497,284.2 M497,283.1c-0.1,0-0.2,0-0.3,0.1s-0.2,0.1-0.1,0.2c0,0,0,0.1,0,0.2c0,0.2,0.1,0.2,0.3,0.1
		c0.1,0,0.2-0.1,0.3-0.2c0-0.1,0-0.2,0.1-0.3c0-0.1,0-0.1,0-0.2C497.2,283,497.1,283,497,283.1 M497.5,285c-0.2,0-0.5,0-0.7,0.1
		c-0.1,0-0.2,0.1-0.2,0.1c0,0.1,0,0.1,0.1,0.2c0.1,0.1,0.2,0.1,0.3,0.2c0.2,0.1,0.4,0.1,0.5-0.1c0.2-0.2,0.3-0.3,0.3-0.4
		C497.7,285,497.6,285,497.5,285"/>
	<path fill="#296F8B" d="M505,281.6c0.2,0,0.4,0,0.6,0c0.1,0,0.2,0,0.3,0c0.2,0,0.3,0.1,0.4,0.3c0.1,0.3-0.1,0.7-0.4,1
		c-0.2,0.2-0.4,0.3-0.6,0.3c-0.2,0-0.3,0-0.3-0.1c0-0.1-0.1-0.2-0.3-0.1l-0.2,0c-0.3,0-0.3,0.1-0.2,0.2c0,0.2,0.2,0.2,0.4,0.2
		c0.1,0,0.2,0,0.3,0c0.2,0,0.3,0.1,0.3,0.2c0,0.1,0.1,0.1,0.2,0c0.3-0.2,0.5-0.3,0.8-0.2c0.2,0.1,0.2,0.2,0.1,0.3
		c0,0-0.1,0.1-0.2,0.1c-0.1,0-0.2,0.1-0.3,0.1c-0.2,0.1-0.3,0.2-0.4,0.3c0,0,0.1,0,0.3,0l0.5,0c0.3-0.1,0.5,0,0.6,0.2
		c0,0.1,0,0.1,0,0.2c0,0.1-0.2,0.1-0.4,0.1c-0.6,0-1.2,0-1.9,0c-0.1,0-0.4,0.1-0.6,0.4c0,0.1,0.1,0.1,0.3,0.1c0.2,0,0.4,0,0.5,0
		c0.3-0.1,0.5-0.1,0.8,0.2c0.1,0.2,0.2,0.3,0.2,0.5c0.1,0.3,0.1,0.6,0,0.9c0,0.1-0.2,0.2-0.3,0.3c-0.2,0.2-0.3,0.2-0.5,0
		c-0.1-0.1-0.3-0.2-0.5-0.1l-0.6,0.1c-0.1,0-0.2,0.1-0.3,0.2c-0.1,0.1-0.2,0.1-0.3,0c-0.2-0.1-0.3-0.3-0.3-0.5c0-0.2,0-0.3,0-0.5
		c0-0.1,0-0.2,0-0.2c-0.1,0-0.2,0.1-0.4,0.2c-0.2,0.2-0.4,0.3-0.6,0.5c-0.2,0.2-0.3,0.2-0.5,0.3c-0.2,0.1-0.2,0-0.1-0.1
		c0.4-0.5,1.1-1.1,2-1.8c0.1-0.1,0.1-0.1,0-0.1c-0.1,0-0.1,0-0.2,0c-0.4,0.1-0.8,0.1-1.2,0.2h-0.2c-0.1,0-0.2,0-0.3-0.1
		c-0.1-0.1-0.1-0.2,0-0.3c0.1-0.1,0.2-0.1,0.3-0.1c0.4-0.1,0.9-0.1,1.4-0.2c0.3,0,0.4-0.1,0.2-0.4c-0.1,0-0.2-0.1-0.3,0
		c-0.2,0-0.4,0-0.6,0c-0.2-0.1-0.3-0.2-0.2-0.4c0.1-0.1,0.2-0.1,0.3-0.1l0.6,0c0.1,0,0.2-0.1,0.2-0.2c0.1-0.1,0-0.2-0.1-0.2
		c-0.2,0-0.3-0.1-0.3-0.2c0-0.1,0.1-0.2,0.2-0.1c0.2,0,0.2-0.1,0.1-0.3c0-0.1-0.1-0.2,0-0.3c-0.1-0.1-0.2-0.1-0.4-0.1
		c-0.2,0-0.3,0.1-0.3,0.2c0,0.2,0.1,0.3,0.2,0.5c0,0.1,0.1,0.2,0,0.3c-0.1,0.1-0.3,0.1-0.4-0.1c-0.2-0.3-0.4-0.6-0.5-1
		c0-0.1,0-0.2,0-0.3c0-0.1,0.1-0.1,0.2-0.1c0.1,0,0.2,0,0.3,0.1c0.1,0,0.1,0,0.2,0C503.4,281.8,504.2,281.7,505,281.6 M503.8,282.2
		c-0.3,0-0.3,0.1-0.3,0.2c0,0.1,0,0.2,0,0.3c0,0.1,0.1,0.2,0.2,0.1c0.1,0,0.2,0,0.2-0.1c0-0.1,0-0.1,0.1-0.2
		c0.1-0.1,0.1-0.2,0.1-0.3c0,0-0.1,0-0.3,0L503.8,282.2z M504.8,285.5l-0.4,0c-0.3,0-0.6,0.1-0.7,0.2c0,0-0.1,0.1-0.1,0.2
		c0,0.1,0,0.1,0.1,0.1l0.4-0.1c0.2,0,0.4,0,0.5,0c0.1,0.1,0.2,0.1,0.1,0.1c0,0.1-0.1,0.1-0.2,0.1c-0.2,0-0.4,0.1-0.6,0.1
		c-0.2,0-0.3,0.1-0.3,0.3c0,0.2,0.1,0.2,0.3,0.2l0.8-0.1c0.2,0,0.3-0.1,0.3-0.3c0-0.3,0-0.5,0-0.8
		C504.9,285.6,504.9,285.6,504.8,285.5 M504.5,284c-0.3,0-0.5,0.1-0.4,0.4c0.1,0.1,0.2,0,0.3,0l0.3-0.2c0.1-0.1,0.2-0.2,0.2-0.2
		C504.7,284,504.6,284,504.5,284 M505.6,282c0-0.1-0.1-0.1-0.3,0c-0.1,0-0.1,0-0.2,0c-0.2,0-0.3,0.1-0.3,0.2c0,0.1-0.1,0.2-0.2,0.3
		c-0.1,0.1-0.1,0.1-0.1,0.2c0,0,0.1,0,0.3,0l0.5-0.1c0.1,0,0.2,0,0.2-0.1C505.5,282.3,505.6,282.2,505.6,282"/>
	<path fill="#296F8B" d="M449.4,288.7C449.4,288.7,449.4,288.7,449.4,288.7C449.3,288.7,449.3,288.8,449.4,288.7
		c-0.1,0.1-0.1,0.1-0.1,0.1c0,0,0,0,0,0l-0.3,0.7c0,0,0,0.1,0,0.1v0.6c0,0,0,0,0,0s0,0,0,0c0,0,0,0,0,0c0,0,0,0,0,0c0,0,0,0,0,0
		h-0.4c0,0,0,0,0,0c0,0,0,0,0,0c0,0,0,0,0,0c0,0,0,0,0,0c0,0,0,0,0,0v-0.6c0,0,0-0.1,0-0.1l-0.4-0.7c0,0,0,0,0,0c0,0,0,0-0.1,0
		c0,0,0,0,0,0c0,0,0,0,0,0c0,0,0,0,0,0h0.4c0,0,0,0,0,0c0,0,0,0,0,0s0,0-0.1,0l0,0c0,0,0,0,0,0v0l0.3,0.6c0,0,0,0,0,0s0,0,0,0
		l0.3-0.6c0,0,0,0,0,0c0,0,0,0,0,0l0,0c0,0,0,0,0,0c0,0,0,0,0,0s0,0,0,0h0.3C449.3,288.7,449.4,288.7,449.4,288.7"/>
	<path fill="#296F8B" d="M450.1,289.8c0,0.1,0,0.2,0,0.3c0,0.1-0.1,0.2-0.1,0.2c0,0.1-0.1,0.1-0.2,0.1c-0.1,0-0.1,0-0.2,0
		s-0.1,0-0.2,0c-0.1,0-0.1-0.1-0.2-0.1c0-0.1-0.1-0.1-0.1-0.2c0-0.1,0-0.2,0-0.3c0-0.2,0-0.3,0.1-0.4c0.1-0.1,0.1-0.2,0.2-0.2
		c0.1,0,0.1,0,0.2,0c0.1,0,0.1,0,0.2,0c0.1,0,0.1,0.1,0.2,0.1c0,0.1,0.1,0.1,0.1,0.2C450,289.6,450.1,289.7,450.1,289.8
		 M449.9,289.8c0-0.1,0-0.2,0-0.2c0-0.1,0-0.1-0.1-0.2c0-0.1-0.1-0.1-0.1-0.1c0,0-0.1,0-0.1,0c0,0-0.1,0-0.1,0
		c-0.1,0-0.1,0.1-0.1,0.2c0,0.1,0,0.2,0,0.3c0,0.1,0,0.1,0,0.2s0,0.1,0.1,0.2c0,0,0.1,0.1,0.1,0.1c0,0,0.1,0,0.1,0c0,0,0.1,0,0.1,0
		c0,0,0.1-0.1,0.1-0.1c0,0,0-0.1,0.1-0.2C449.9,290,449.9,289.9,449.9,289.8"/>
	<path fill="#296F8B" d="M451.4,290.4C451.4,290.4,451.4,290.4,451.4,290.4C451.4,290.4,451.4,290.4,451.4,290.4
		c-0.1,0.1-0.1,0.1-0.1,0.1c0,0,0,0,0,0h-0.1c0,0-0.1,0-0.1-0.1v-0.1c-0.1,0.1-0.2,0.2-0.3,0.2c-0.1,0-0.2,0-0.2-0.1
		c-0.1-0.1-0.1-0.2-0.1-0.3v-0.7c0,0,0,0,0,0s0,0,0,0c0,0,0,0,0,0c0,0,0,0,0,0c0,0,0,0,0,0c0,0,0,0,0.1,0c0,0,0,0,0.1,0
		c0,0,0,0,0.1,0h0.1c0,0,0,0,0,0.1v0.8c0,0,0,0.1,0,0.1c0,0,0,0.1,0,0.1c0,0,0,0,0.1,0.1c0,0,0.1,0,0.1,0c0.1,0,0.2,0,0.3-0.1v-0.8
		c0,0,0,0,0,0c0,0,0,0,0,0c0,0,0,0,0,0c0,0,0,0,0,0c0,0,0,0,0.1-0.1c0,0,0.1,0,0.2,0c0,0,0,0,0,0.1v1.1c0,0,0,0,0,0
		C451.4,290.4,451.4,290.4,451.4,290.4C451.4,290.4,451.4,290.4,451.4,290.4C451.4,290.4,451.4,290.4,451.4,290.4"/>
	<path fill="#296F8B" d="M452.3,290.3C452.3,290.4,452.3,290.4,452.3,290.3c0,0.1-0.1,0.1-0.1,0.1c0,0-0.1,0-0.1,0c0,0,0,0-0.1,0
		c-0.1,0-0.2,0-0.2-0.1c-0.1-0.1-0.1-0.2-0.1-0.3v-0.7c0,0,0,0,0,0h-0.1c0,0,0,0,0-0.1c0,0,0,0,0-0.1c0,0,0,0,0,0h0c0,0,0,0,0-0.1
		v-0.2c0,0,0,0,0-0.1c0,0,0,0,0-0.1c0,0,0,0,0-0.1c0,0,0,0,0.1,0h0c0,0,0,0,0,0.1v0.4c0,0,0,0,0,0h0.2c0,0,0,0,0,0.1s0,0.1,0,0.1
		H452c0,0,0,0,0,0v0.7c0,0.1,0,0.2,0,0.2c0,0,0.1,0.1,0.1,0.1C452.2,290.3,452.3,290.3,452.3,290.3L452.3,290.3L452.3,290.3
		C452.3,290.3,452.3,290.3,452.3,290.3"/>
	<path fill="#296F8B" d="M453.6,290.4C453.6,290.4,453.6,290.5,453.6,290.4l-0.4,0c0,0,0,0,0,0c0,0,0,0,0,0c0,0,0,0,0,0c0,0,0,0,0,0
		c0,0,0,0,0,0v-0.7c0,0,0-0.1,0-0.1c0,0,0-0.1,0-0.1c0,0,0,0-0.1-0.1c0,0-0.1,0-0.1,0c-0.1,0-0.1,0-0.2,0.1v0.9c0,0,0,0,0,0
		c0,0,0,0,0,0c0,0,0,0,0,0c0,0,0,0,0,0c0,0,0,0,0,0h-0.4c0,0,0,0,0,0c0,0,0,0,0,0c0,0,0,0,0,0c0,0,0,0,0,0c0,0,0,0,0,0v-1.6
		c0,0,0,0,0,0c0,0,0,0,0,0c0,0,0,0,0,0c0,0,0,0,0,0c0,0,0,0,0,0c0,0,0,0,0,0c0,0,0,0,0.1,0c0,0,0,0,0.1,0h0.1c0,0,0,0,0,0.1v0.7
		c0.1-0.1,0.2-0.1,0.3-0.1c0.1,0,0.2,0,0.3,0.1c0.1,0.1,0.1,0.2,0.1,0.3v0.7c0,0,0,0,0,0S453.6,290.3,453.6,290.4
		C453.6,290.3,453.6,290.4,453.6,290.4C453.6,290.4,453.6,290.4,453.6,290.4"/>
	<path fill="#296F8B" d="M455.7,289.6c0,0.6-0.2,0.9-0.6,0.9h-0.5c0,0,0,0,0,0c0,0,0,0,0,0c0,0,0,0,0,0c0,0,0,0,0,0c0,0,0,0,0,0
		v-1.5c0,0,0,0,0,0c0,0,0,0,0,0c0,0,0,0,0,0c0,0,0,0,0,0c0,0,0,0,0,0h0.5C455.5,288.7,455.7,289,455.7,289.6 M455.5,289.6
		c0-0.3,0-0.4-0.1-0.6c-0.1-0.1-0.2-0.2-0.3-0.2h-0.2c0,0,0,0,0,0v1.4c0,0,0,0.1,0.1,0.1h0.2c0.1,0,0.2-0.1,0.3-0.2
		C455.5,290,455.5,289.8,455.5,289.6"/>
	<path fill="#296F8B" d="M456.8,289.8C456.8,289.8,456.8,289.8,456.8,289.8l-0.7,0c0,0.1,0,0.1,0,0.2c0,0.1,0,0.1,0.1,0.2
		s0.1,0.1,0.1,0.1c0,0,0.1,0,0.1,0c0.1,0,0.2,0,0.2-0.1c0,0,0,0,0,0c0,0,0,0,0,0.1c0,0-0.1,0-0.1,0c0,0-0.1,0-0.1,0c0,0-0.1,0-0.1,0
		c-0.1,0-0.1,0-0.2,0c-0.1,0-0.1-0.1-0.2-0.1s-0.1-0.1-0.1-0.2c0-0.1,0-0.2,0-0.3c0-0.1,0-0.2,0-0.3c0-0.1,0.1-0.2,0.1-0.2
		s0.1-0.1,0.2-0.1c0.1,0,0.1-0.1,0.2-0.1c0.1,0,0.2,0.1,0.3,0.2C456.8,289.4,456.8,289.6,456.8,289.8 M456.7,289.7
		c0-0.2,0-0.3-0.1-0.3s-0.1-0.1-0.2-0.1c-0.1,0-0.1,0-0.2,0.1c0,0.1-0.1,0.2-0.1,0.3c0,0,0,0.1,0,0.1L456.7,289.7
		C456.7,289.7,456.7,289.7,456.7,289.7"/>
	<path fill="#296F8B" d="M458.1,289.2C458.1,289.2,458.1,289.2,458.1,289.2C458.1,289.2,458.1,289.2,458.1,289.2
		c-0.1,0.1-0.1,0.1-0.1,0.1c0,0,0,0,0,0.1l-0.3,1.1h-0.1l-0.4-1.1c0,0,0,0,0-0.1c0,0,0,0-0.1,0c0,0,0,0,0,0c0,0,0,0,0,0s0,0,0,0h0.4
		c0,0,0,0,0,0s0,0,0,0c0,0,0,0,0,0c0,0,0,0,0,0c0,0,0,0,0,0l0,0c0,0,0,0,0,0l0.2,0.8c0,0,0,0,0,0l0,0l0.2-0.8c0,0,0,0,0,0s0,0,0,0
		c0,0,0,0,0,0c0,0,0,0,0,0c0,0,0,0,0,0c0,0,0,0,0,0L458.1,289.2C458.1,289.1,458.1,289.1,458.1,289.2"/>
	<path fill="#296F8B" d="M459.2,289.8C459.2,289.8,459.1,289.8,459.2,289.8l-0.7,0c0,0.1,0,0.1,0,0.2c0,0.1,0,0.1,0.1,0.2
		s0.1,0.1,0.1,0.1c0,0,0.1,0,0.1,0c0.1,0,0.2,0,0.2-0.1c0,0,0,0,0,0c0,0,0,0,0,0.1c0,0-0.1,0-0.1,0c0,0-0.1,0-0.1,0c0,0-0.1,0-0.1,0
		c-0.1,0-0.1,0-0.2,0c-0.1,0-0.1-0.1-0.2-0.1s-0.1-0.1-0.1-0.2c0-0.1,0-0.2,0-0.3c0-0.1,0-0.2,0-0.3c0-0.1,0.1-0.2,0.1-0.2
		s0.1-0.1,0.2-0.1c0.1,0,0.1-0.1,0.2-0.1c0.1,0,0.2,0.1,0.3,0.2C459.1,289.4,459.2,289.6,459.2,289.8 M459,289.7
		c0-0.2,0-0.3-0.1-0.3s-0.1-0.1-0.2-0.1c-0.1,0-0.1,0-0.2,0.1c0,0.1-0.1,0.2-0.1,0.3c0,0,0,0.1,0,0.1L459,289.7
		C459,289.7,459,289.7,459,289.7"/>
	<path fill="#296F8B" d="M459.7,290.4C459.7,290.4,459.7,290.5,459.7,290.4l-0.4,0c0,0,0,0,0,0c0,0,0,0,0,0c0,0,0,0,0,0c0,0,0,0,0,0
		c0,0,0,0,0,0v-1.6c0,0,0,0,0,0c0,0,0,0,0,0c0,0,0,0,0,0c0,0,0,0,0,0c0,0,0,0,0,0s0,0,0,0c0,0,0,0,0.1,0s0,0,0.1,0h0.1
		c0,0,0,0,0,0.1v1.7c0,0,0,0,0,0S459.6,290.3,459.7,290.4C459.6,290.3,459.6,290.4,459.7,290.4C459.7,290.4,459.7,290.4,459.7,290.4
		"/>
	<path fill="#296F8B" d="M460.9,289.8c0,0.1,0,0.2,0,0.3c0,0.1-0.1,0.2-0.1,0.2c0,0.1-0.1,0.1-0.2,0.1c-0.1,0-0.1,0-0.2,0
		c-0.1,0-0.1,0-0.2,0c-0.1,0-0.1-0.1-0.2-0.1c0-0.1-0.1-0.1-0.1-0.2c0-0.1,0-0.2,0-0.3c0-0.2,0-0.3,0.1-0.4c0.1-0.1,0.1-0.2,0.2-0.2
		c0.1,0,0.1,0,0.2,0c0.1,0,0.1,0,0.2,0c0.1,0,0.1,0.1,0.2,0.1c0,0.1,0.1,0.1,0.1,0.2C460.8,289.6,460.9,289.7,460.9,289.8
		 M460.7,289.8c0-0.1,0-0.2,0-0.2c0-0.1,0-0.1-0.1-0.2c0-0.1-0.1-0.1-0.1-0.1c0,0-0.1,0-0.1,0c0,0-0.1,0-0.1,0
		c-0.1,0-0.1,0.1-0.1,0.2c0,0.1,0,0.2,0,0.3c0,0.1,0,0.1,0,0.2c0,0.1,0,0.1,0.1,0.2c0,0,0.1,0.1,0.1,0.1c0,0,0.1,0,0.1,0
		c0,0,0.1,0,0.1,0c0,0,0.1-0.1,0.1-0.1c0,0,0-0.1,0.1-0.2C460.7,290,460.7,289.9,460.7,289.8"/>
	<path fill="#296F8B" d="M462.1,289.8c0,0.1,0,0.2,0,0.3c0,0.1-0.1,0.2-0.1,0.2s-0.1,0.1-0.1,0.1c-0.1,0-0.1,0.1-0.2,0.1
		c0,0-0.1,0-0.1,0c0,0-0.1-0.1-0.1-0.1v0.5c0,0,0,0,0,0c0,0,0,0,0,0c0,0,0,0,0,0c0,0,0,0,0,0s0,0,0,0h-0.4c0,0,0,0,0,0s0,0,0,0
		c0,0,0,0,0,0c0,0,0,0,0,0c0,0,0,0,0,0v-1.5c0,0,0,0,0,0s0,0,0,0c0,0,0,0,0,0c0,0,0,0,0,0c0,0,0,0,0,0c0,0,0,0,0,0c0,0,0,0,0.1,0
		c0,0,0,0,0.1,0h0.1c0,0,0,0,0,0.1v0c0.1,0,0.1-0.1,0.2-0.1c0,0,0.1,0,0.1,0c0.1,0,0.1,0,0.2,0.1c0.1,0,0.1,0.1,0.1,0.1
		s0.1,0.1,0.1,0.2C462.1,289.6,462.1,289.7,462.1,289.8 M462,289.8c0-0.1,0-0.1,0-0.2s0-0.1-0.1-0.2c0,0-0.1-0.1-0.1-0.1
		c0,0-0.1,0-0.1,0c0,0-0.1,0-0.1,0c0,0-0.1,0-0.1,0.1v0.9c0,0,0.1,0.1,0.1,0.1c0,0,0.1,0,0.1,0c0,0,0.1,0,0.1,0c0,0,0.1-0.1,0.1-0.1
		c0-0.1,0-0.1,0.1-0.2C462,289.9,462,289.8,462,289.8"/>
	<path fill="#296F8B" d="M464.1,290.4C464.1,290.4,464.1,290.5,464.1,290.4l-0.4,0c0,0,0,0,0,0c0,0,0,0,0,0c0,0,0,0,0,0c0,0,0,0,0,0
		c0,0,0,0,0,0v-0.7c0,0,0-0.1,0-0.1c0,0,0-0.1,0-0.1c0,0,0-0.1-0.1-0.1c0,0-0.1,0-0.1,0c-0.1,0-0.2,0-0.2,0.1c0,0,0,0.1,0,0.1
		c0,0,0,0.1,0,0.1v0.7c0,0,0,0,0,0s0,0,0,0c0,0,0,0,0,0c0,0,0,0,0,0s0,0,0,0h-0.4c0,0,0,0,0,0s0,0,0,0c0,0,0,0,0,0c0,0,0,0,0,0
		c0,0,0,0,0,0v-0.7c0,0,0-0.1,0-0.1c0,0,0-0.1,0-0.1c0,0,0-0.1-0.1-0.1s-0.1,0-0.1,0c0,0-0.1,0-0.1,0c0,0-0.1,0.1-0.1,0.1v0.9
		c0,0,0,0,0,0s0,0,0,0c0,0,0,0,0,0c0,0,0,0,0,0s0,0,0,0h-0.4c0,0,0,0,0,0s0,0,0,0c0,0,0,0,0,0c0,0,0,0,0,0c0,0,0,0,0,0v-1
		c0,0,0,0,0,0c0,0,0,0,0,0c0,0,0,0,0,0c0,0,0,0,0,0s0,0,0,0c0,0,0,0,0,0c0,0,0,0,0.1,0s0,0,0.1,0h0.1c0,0,0,0,0,0.1v0.1
		c0.1-0.1,0.1-0.1,0.2-0.1c0.1,0,0.1,0,0.2,0c0.1,0,0.1,0,0.2,0c0,0,0.1,0.1,0.1,0.1c0.1-0.1,0.2-0.2,0.4-0.2c0.1,0,0.2,0,0.3,0.1
		c0.1,0.1,0.1,0.2,0.1,0.3v0.7c0,0,0,0,0,0s0,0,0,0C464,290.4,464,290.4,464.1,290.4C464.1,290.4,464.1,290.4,464.1,290.4"/>
	<path fill="#296F8B" d="M465.1,289.8C465.1,289.8,465.1,289.8,465.1,289.8l-0.7,0c0,0.1,0,0.1,0,0.2c0,0.1,0,0.1,0.1,0.2
		s0.1,0.1,0.1,0.1c0,0,0.1,0,0.1,0c0.1,0,0.2,0,0.2-0.1c0,0,0,0,0,0c0,0,0,0,0,0.1c0,0-0.1,0-0.1,0c0,0-0.1,0-0.1,0c0,0-0.1,0-0.1,0
		c-0.1,0-0.1,0-0.2,0c-0.1,0-0.1-0.1-0.2-0.1s-0.1-0.1-0.1-0.2c0-0.1,0-0.2,0-0.3c0-0.1,0-0.2,0-0.3c0-0.1,0.1-0.2,0.1-0.2
		s0.1-0.1,0.2-0.1c0.1,0,0.1-0.1,0.2-0.1c0.1,0,0.2,0.1,0.3,0.2C465,289.4,465.1,289.6,465.1,289.8 M464.9,289.7
		c0-0.2,0-0.3-0.1-0.3s-0.1-0.1-0.2-0.1c-0.1,0-0.1,0-0.2,0.1c0,0.1-0.1,0.2-0.1,0.3c0,0,0,0.1,0,0.1L464.9,289.7
		C464.9,289.7,464.9,289.7,464.9,289.7"/>
	<path fill="#296F8B" d="M466.4,290.4C466.4,290.4,466.4,290.5,466.4,290.4l-0.4,0c0,0,0,0,0,0c0,0,0,0,0,0c0,0,0,0,0,0c0,0,0,0,0,0
		c0,0,0,0,0,0v-0.7c0,0,0-0.1,0-0.1c0,0,0-0.1,0-0.1c0,0,0,0-0.1-0.1c0,0-0.1,0-0.1,0c0,0-0.1,0-0.1,0c0,0-0.1,0.1-0.2,0.1v0.9
		c0,0,0,0,0,0c0,0,0,0,0,0c0,0,0,0,0,0c0,0,0,0,0,0s0,0,0,0h-0.4c0,0,0,0,0,0s0,0,0,0c0,0,0,0,0,0c0,0,0,0,0,0c0,0,0,0,0,0v-1
		c0,0,0,0,0,0c0,0,0,0,0,0c0,0,0,0,0,0c0,0,0,0,0,0s0,0,0,0c0,0,0,0,0,0c0,0,0,0,0.1,0c0,0,0,0,0.1,0h0.1c0,0,0,0,0,0.1v0.1
		c0.1-0.1,0.1-0.1,0.2-0.1c0.1,0,0.1-0.1,0.2-0.1c0.1,0,0.2,0,0.2,0.1c0.1,0.1,0.1,0.2,0.1,0.3v0.7c0,0,0,0,0,0s0,0,0,0
		C466.4,290.4,466.4,290.4,466.4,290.4C466.4,290.4,466.4,290.4,466.4,290.4"/>
	<path fill="#296F8B" d="M467.1,290.3C467.1,290.4,467.1,290.4,467.1,290.3c0,0.1-0.1,0.1-0.1,0.1s-0.1,0-0.1,0c0,0,0,0-0.1,0
		c-0.1,0-0.2,0-0.2-0.1c-0.1-0.1-0.1-0.2-0.1-0.3v-0.7c0,0,0,0,0,0h-0.1c0,0,0,0,0-0.1c0,0,0,0,0-0.1c0,0,0,0,0,0h0c0,0,0,0,0-0.1
		v-0.2c0,0,0,0,0-0.1c0,0,0,0,0-0.1c0,0,0,0,0-0.1c0,0,0,0,0.1,0h0c0,0,0,0,0,0.1v0.4c0,0,0,0,0,0h0.2c0,0,0,0,0,0.1s0,0.1,0,0.1
		h-0.2c0,0,0,0,0,0v0.7c0,0.1,0,0.2,0,0.2c0,0,0.1,0.1,0.1,0.1C467,290.3,467.1,290.3,467.1,290.3L467.1,290.3L467.1,290.3
		C467.1,290.3,467.1,290.3,467.1,290.3"/>
	<path fill="#296F8B" d="M469.3,290.4C469.3,290.4,469.3,290.5,469.3,290.4l-0.4,0c0,0,0,0,0,0c0,0,0,0,0,0c0,0,0,0,0,0c0,0,0,0,0,0
		c0,0,0,0,0,0v0l-0.1-0.3c0,0,0,0-0.1,0h-0.5c0,0-0.1,0-0.1,0l-0.1,0.3c0,0,0,0,0,0l0,0c0,0,0,0,0,0s0,0,0,0c0,0,0,0,0,0
		c0,0,0,0,0,0c0,0,0,0,0,0H468c0,0,0,0,0,0c0,0,0,0,0,0c0,0,0,0,0,0c0,0,0,0,0.1,0c0,0,0,0,0,0l0.4-1.6c0,0,0-0.1,0.1-0.1h0.1
		c0,0,0,0,0.1,0l0.4,1.6C469.2,290.3,469.2,290.3,469.3,290.4C469.3,290.4,469.3,290.4,469.3,290.4 M468.9,289.8L468.9,289.8
		C468.9,289.8,468.9,289.8,468.9,289.8C468.9,289.8,468.9,289.8,468.9,289.8l-0.2-0.8c0,0,0,0,0,0s0,0,0,0l-0.2,0.8c0,0,0,0,0,0
		c0,0,0,0,0,0L468.9,289.8C468.9,289.8,468.9,289.8,468.9,289.8"/>
	<path fill="#296F8B" d="M470.5,290.4C470.5,290.4,470.5,290.4,470.5,290.4c-0.2,0-0.2,0-0.3-0.1c-0.1,0-0.1,0.1-0.2,0.1
		c-0.1,0-0.1,0-0.2,0c-0.1,0-0.1,0-0.2-0.1s-0.1-0.1-0.1-0.1c0-0.1-0.1-0.1-0.1-0.2c0-0.1,0-0.1,0-0.2c0-0.1,0-0.2,0-0.3
		c0-0.1,0-0.2,0.1-0.2c0-0.1,0.1-0.1,0.2-0.2c0.1,0,0.1-0.1,0.2-0.1c0,0,0.1,0,0.1,0c0,0,0.1,0,0.1,0l0,0l0,0c0,0,0,0,0,0v-0.4
		c0,0,0,0,0,0s0,0,0,0c0,0,0,0,0,0c0,0,0,0,0,0c0,0,0,0,0,0c0,0,0,0,0,0c0,0,0,0,0.1,0s0,0,0,0h0.1c0,0,0,0,0,0.1v1.7c0,0,0,0,0,0.1
		c0,0,0,0,0,0C470.5,290.3,470.5,290.3,470.5,290.4C470.5,290.4,470.5,290.4,470.5,290.4 M470.2,289.3
		C470.2,289.3,470.2,289.3,470.2,289.3c-0.1-0.1-0.1-0.1-0.2-0.1c0,0-0.1,0-0.1,0c0,0-0.1,0.1-0.1,0.1c0,0.1-0.1,0.1-0.1,0.2
		c0,0.1,0,0.2,0,0.2c0,0.2,0,0.3,0.1,0.4c0.1,0.1,0.1,0.1,0.2,0.1c0,0,0,0,0.1,0c0,0,0.1,0,0.1,0c0,0,0,0,0.1,0c0,0,0,0,0-0.1
		L470.2,289.3L470.2,289.3z"/>
	<path fill="#296F8B" d="M472.5,290.4C472.5,290.4,472.5,290.5,472.5,290.4l-0.4,0c0,0,0,0,0,0c0,0,0,0,0,0c0,0,0,0,0,0c0,0,0,0,0,0
		c0,0,0,0,0,0v-0.7c0,0,0-0.1,0-0.1c0,0,0-0.1,0-0.1c0,0,0-0.1-0.1-0.1c0,0-0.1,0-0.1,0c-0.1,0-0.2,0-0.3,0.1c0,0,0,0.1,0,0.1
		c0,0,0,0.1,0,0.1v0.7c0,0,0,0,0,0c0,0,0,0,0,0c0,0,0,0,0,0c0,0,0,0,0,0s0,0,0,0h-0.4c0,0,0,0,0,0s0,0,0,0c0,0,0,0,0,0c0,0,0,0,0,0
		c0,0,0,0,0,0v-0.7c0,0,0-0.1,0-0.1c0,0,0-0.1,0-0.1c0,0,0-0.1-0.1-0.1s-0.1,0-0.1,0c0,0-0.1,0-0.1,0c0,0-0.1,0.1-0.1,0.1v0.9
		c0,0,0,0,0,0s0,0,0,0c0,0,0,0,0,0c0,0,0,0,0,0s0,0,0,0h-0.4c0,0,0,0,0,0s0,0,0,0c0,0,0,0,0,0c0,0,0,0,0,0c0,0,0,0,0,0v-1
		c0,0,0,0,0,0s0,0,0,0c0,0,0,0,0,0c0,0,0,0,0,0s0,0,0,0c0,0,0,0,0,0c0,0,0,0,0.1,0s0,0,0.1,0h0.1c0,0,0,0,0,0.1v0.1
		c0.1-0.1,0.1-0.1,0.2-0.1c0.1,0,0.1,0,0.2,0s0.1,0,0.2,0c0,0,0.1,0.1,0.1,0.1c0.1-0.1,0.2-0.2,0.4-0.2c0.1,0,0.2,0,0.3,0.1
		c0.1,0.1,0.1,0.2,0.1,0.3v0.7c0,0,0,0,0,0s0,0,0,0c0,0,0,0,0,0C472.5,290.4,472.5,290.4,472.5,290.4"/>
	<path fill="#296F8B" d="M473.1,290.4C473.1,290.4,473.1,290.5,473.1,290.4l-0.4,0c0,0,0,0,0,0c0,0,0,0,0,0c0,0,0,0,0,0c0,0,0,0,0,0
		c0,0,0,0,0,0v-0.9c0,0,0,0,0,0s0,0,0,0c0,0,0,0,0,0c0,0,0,0,0,0c0,0,0,0,0,0c0,0,0,0,0,0c0,0,0,0,0.1,0s0,0,0.1,0h0.1
		c0,0,0,0,0,0.1v1.1c0,0,0,0,0,0C473,290.3,473,290.3,473.1,290.4C473.1,290.4,473.1,290.4,473.1,290.4
		C473.1,290.4,473.1,290.4,473.1,290.4 M473,288.9c0,0.1,0,0.1-0.1,0.1c-0.1,0-0.1,0-0.1-0.1c0-0.1,0-0.1,0.1-0.1
		C473,288.8,473,288.8,473,288.9"/>
	<path fill="#296F8B" d="M474.5,290.4C474.5,290.4,474.5,290.5,474.5,290.4l-0.4,0c0,0,0,0,0,0c0,0,0,0,0,0c0,0,0,0,0,0c0,0,0,0,0,0
		c0,0,0,0,0,0v-0.7c0,0,0-0.1,0-0.1c0,0,0-0.1,0-0.1c0,0,0,0-0.1-0.1c0,0-0.1,0-0.1,0c0,0-0.1,0-0.1,0c0,0-0.1,0.1-0.2,0.1v0.9
		c0,0,0,0,0,0s0,0,0,0c0,0,0,0,0,0c0,0,0,0,0,0s0,0,0,0h-0.4c0,0,0,0,0,0s0,0,0,0c0,0,0,0,0,0c0,0,0,0,0,0c0,0,0,0,0,0v-1
		c0,0,0,0,0,0s0,0,0,0c0,0,0,0,0,0c0,0,0,0,0,0s0,0,0,0c0,0,0,0,0,0c0,0,0,0,0.1,0s0,0,0.1,0h0.1c0,0,0,0,0,0.1v0.1
		c0.1-0.1,0.1-0.1,0.2-0.1c0.1,0,0.1-0.1,0.2-0.1c0.1,0,0.2,0,0.2,0.1c0.1,0.1,0.1,0.2,0.1,0.3v0.7c0,0,0,0,0,0c0,0,0,0,0,0
		C474.4,290.4,474.4,290.4,474.5,290.4C474.5,290.4,474.5,290.4,474.5,290.4"/>
	<path fill="#296F8B" d="M475.2,290.4C475.2,290.4,475.2,290.5,475.2,290.4l-0.4,0c0,0,0,0,0,0c0,0,0,0,0,0c0,0,0,0,0,0c0,0,0,0,0,0
		c0,0,0,0,0,0v-0.9c0,0,0,0,0,0c0,0,0,0,0,0c0,0,0,0,0,0c0,0,0,0,0,0c0,0,0,0,0,0c0,0,0,0,0,0c0,0,0,0,0.1,0s0,0,0.1,0h0.1
		c0,0,0,0,0,0.1v1.1c0,0,0,0,0,0C475.1,290.3,475.1,290.3,475.2,290.4C475.1,290.4,475.1,290.4,475.2,290.4
		C475.2,290.4,475.2,290.4,475.2,290.4 M475,288.9c0,0.1,0,0.1-0.1,0.1c-0.1,0-0.1,0-0.1-0.1c0-0.1,0-0.1,0.1-0.1
		C475,288.8,475,288.8,475,288.9"/>
	<path fill="#296F8B" d="M476.2,290.1c0,0.1,0,0.2-0.1,0.3c-0.1,0.1-0.2,0.1-0.3,0.1c-0.1,0-0.1,0-0.2,0c-0.1,0-0.1,0-0.2-0.1l0-0.3
		c0,0,0,0,0.1,0c0,0,0,0,0,0l0,0.1c0,0,0,0.1,0.1,0.1c0,0,0.1,0,0.1,0c0.1,0,0.2,0,0.2-0.1c0-0.1,0.1-0.1,0.1-0.2
		c0-0.1-0.1-0.2-0.3-0.3c-0.2-0.1-0.3-0.2-0.3-0.4c0-0.1,0-0.2,0.1-0.2s0.2-0.1,0.3-0.1c0,0,0.1,0,0.1,0s0.1,0,0.1,0.1l0,0.3
		c0,0,0,0,0,0c0,0,0,0-0.1,0l0-0.1c0,0,0-0.1-0.1-0.1c0,0-0.1,0-0.1,0c-0.1,0-0.1,0-0.2,0.1s-0.1,0.1-0.1,0.1c0,0.1,0.1,0.2,0.3,0.3
		c0.1,0,0.2,0.1,0.2,0.2C476.2,289.9,476.2,290,476.2,290.1"/>
	<path fill="#296F8B" d="M477.1,290.3C477.1,290.4,477.1,290.4,477.1,290.3c0,0.1-0.1,0.1-0.1,0.1c0,0-0.1,0-0.1,0c0,0,0,0-0.1,0
		c-0.1,0-0.2,0-0.2-0.1c-0.1-0.1-0.1-0.2-0.1-0.3v-0.7c0,0,0,0,0,0h-0.1c0,0,0,0,0-0.1c0,0,0,0,0-0.1c0,0,0,0,0,0h0c0,0,0,0,0-0.1
		v-0.2c0,0,0,0,0-0.1c0,0,0,0,0-0.1c0,0,0,0,0-0.1c0,0,0,0,0.1,0h0c0,0,0,0,0,0.1v0.4c0,0,0,0,0,0h0.2c0,0,0,0,0,0.1s0,0.1,0,0.1
		h-0.2c0,0,0,0,0,0v0.7c0,0.1,0,0.2,0,0.2c0,0,0.1,0.1,0.1,0.1C477,290.3,477,290.3,477.1,290.3L477.1,290.3L477.1,290.3
		C477.1,290.3,477.1,290.3,477.1,290.3"/>
	<path fill="#296F8B" d="M478.1,289.4C478.1,289.5,478.1,289.5,478.1,289.4L478.1,289.4C478,289.5,478,289.5,478.1,289.4
		C478,289.4,478,289.4,478.1,289.4l-0.1-0.1c0,0-0.1,0-0.1,0s-0.1,0-0.1,0c0,0-0.1,0.1-0.1,0.1v0.9c0,0,0,0,0,0s0,0,0,0c0,0,0,0,0,0
		c0,0,0,0,0,0c0,0,0,0,0,0h-0.4c0,0,0,0,0,0c0,0,0,0,0,0c0,0,0,0,0,0c0,0,0,0,0,0c0,0,0,0,0,0v-1c0,0,0,0,0,0c0,0,0,0,0,0
		c0,0,0,0,0,0c0,0,0,0,0,0c0,0,0,0,0,0s0,0,0,0c0,0,0,0,0.1,0s0,0,0.1,0h0.1c0,0,0,0,0,0.1v0.1c0-0.1,0.1-0.1,0.1-0.1
		c0,0,0.1-0.1,0.2-0.1c0,0,0.1,0,0.1,0L478.1,289.4L478.1,289.4L478.1,289.4"/>
	<path fill="#296F8B" d="M479.2,290.4C479.2,290.5,479.2,290.5,479.2,290.4c-0.1,0-0.2,0-0.3-0.1c-0.1,0.1-0.2,0.1-0.3,0.1
		c-0.1,0-0.2,0-0.3-0.1c-0.1-0.1-0.1-0.2-0.1-0.3c0-0.1,0-0.1,0-0.2c0-0.1,0.1-0.1,0.1-0.1c0,0,0.1-0.1,0.2-0.1c0.1,0,0.1,0,0.2,0h0
		c0,0,0,0,0-0.1v-0.1c0-0.1,0-0.2-0.1-0.2c0-0.1-0.1-0.1-0.2-0.1c0,0-0.1,0-0.1,0s-0.1,0-0.1,0c0,0,0,0,0,0c0,0,0,0,0-0.1
		c0.1,0,0.1-0.1,0.3-0.1c0.1,0,0.2,0,0.3,0.1c0.1,0.1,0.1,0.2,0.1,0.3v0.7c0,0,0,0,0,0.1C479.1,290.3,479.1,290.3,479.2,290.4
		C479.2,290.3,479.2,290.4,479.2,290.4C479.2,290.4,479.2,290.4,479.2,290.4 M478.9,289.8C478.9,289.8,478.9,289.8,478.9,289.8
		c-0.2-0.1-0.3,0-0.4,0s-0.1,0.1-0.1,0.2c0,0,0,0.1,0,0.1c0,0,0,0.1,0,0.1c0,0,0,0,0.1,0.1c0,0,0.1,0,0.1,0c0.1,0,0.1,0,0.2,0
		c0,0,0,0,0-0.1L478.9,289.8L478.9,289.8z"/>
	<path fill="#296F8B" d="M479.9,290.3C479.9,290.4,479.9,290.4,479.9,290.3c0,0.1-0.1,0.1-0.1,0.1s-0.1,0-0.1,0c0,0,0,0-0.1,0
		c-0.1,0-0.2,0-0.2-0.1c-0.1-0.1-0.1-0.2-0.1-0.3v-0.7c0,0,0,0,0,0h-0.1c0,0,0,0,0-0.1c0,0,0,0,0-0.1c0,0,0,0,0,0h0c0,0,0,0,0-0.1
		v-0.2c0,0,0,0,0-0.1c0,0,0,0,0-0.1c0,0,0,0,0-0.1c0,0,0,0,0.1,0h0c0,0,0,0,0,0.1v0.4c0,0,0,0,0,0h0.2c0,0,0,0,0,0.1s0,0.1,0,0.1
		h-0.2c0,0,0,0,0,0v0.7c0,0.1,0,0.2,0,0.2c0,0,0.1,0.1,0.1,0.1C479.8,290.3,479.8,290.3,479.9,290.3L479.9,290.3L479.9,290.3
		C479.9,290.3,479.9,290.3,479.9,290.3"/>
	<path fill="#296F8B" d="M480.5,290.4C480.5,290.4,480.5,290.5,480.5,290.4l-0.4,0c0,0,0,0,0,0c0,0,0,0,0,0c0,0,0,0,0,0c0,0,0,0,0,0
		c0,0,0,0,0,0v-0.9c0,0,0,0,0,0s0,0,0,0c0,0,0,0,0,0c0,0,0,0,0,0c0,0,0,0,0,0c0,0,0,0,0,0c0,0,0,0,0.1,0s0,0,0.1,0h0.1
		c0,0,0,0,0,0.1v1.1c0,0,0,0,0,0C480.4,290.3,480.4,290.3,480.5,290.4C480.5,290.4,480.5,290.4,480.5,290.4
		C480.5,290.4,480.5,290.4,480.5,290.4 M480.4,288.9c0,0.1,0,0.1-0.1,0.1s-0.1,0-0.1-0.1c0-0.1,0-0.1,0.1-0.1
		S480.4,288.8,480.4,288.9"/>
	<path fill="#296F8B" d="M481.7,289.8c0,0.1,0,0.2,0,0.3c0,0.1-0.1,0.2-0.1,0.2c0,0.1-0.1,0.1-0.2,0.1c-0.1,0-0.1,0-0.2,0
		s-0.1,0-0.2,0c-0.1,0-0.1-0.1-0.2-0.1s-0.1-0.1-0.1-0.2c0-0.1,0-0.2,0-0.3c0-0.2,0-0.3,0.1-0.4c0.1-0.1,0.1-0.2,0.2-0.2
		c0.1,0,0.1,0,0.2,0c0.1,0,0.1,0,0.2,0c0.1,0,0.1,0.1,0.2,0.1c0,0.1,0.1,0.1,0.1,0.2C481.7,289.6,481.7,289.7,481.7,289.8
		 M481.5,289.8c0-0.1,0-0.2,0-0.2s0-0.1-0.1-0.2c0-0.1-0.1-0.1-0.1-0.1c0,0-0.1,0-0.1,0c0,0-0.1,0-0.1,0c-0.1,0-0.1,0.1-0.1,0.2
		c0,0.1,0,0.2,0,0.3c0,0.1,0,0.1,0,0.2c0,0.1,0,0.1,0.1,0.2c0,0,0.1,0.1,0.1,0.1c0,0,0.1,0,0.1,0c0,0,0.1,0,0.1,0
		c0,0,0.1-0.1,0.1-0.1c0,0,0-0.1,0.1-0.2C481.5,290,481.5,289.9,481.5,289.8"/>
	<path fill="#296F8B" d="M483.1,290.4C483.1,290.4,483.1,290.5,483.1,290.4l-0.4,0c0,0,0,0,0,0c0,0,0,0,0,0c0,0,0,0,0,0c0,0,0,0,0,0
		c0,0,0,0,0,0v-0.7c0,0,0-0.1,0-0.1c0,0,0-0.1,0-0.1c0,0,0,0-0.1-0.1c0,0-0.1,0-0.1,0c0,0-0.1,0-0.1,0c0,0-0.1,0.1-0.2,0.1v0.9
		c0,0,0,0,0,0c0,0,0,0,0,0c0,0,0,0,0,0c0,0,0,0,0,0s0,0,0,0H482c0,0,0,0,0,0s0,0,0,0c0,0,0,0,0,0c0,0,0,0,0,0c0,0,0,0,0,0v-1
		c0,0,0,0,0,0c0,0,0,0,0,0c0,0,0,0,0,0c0,0,0,0,0,0s0,0,0,0c0,0,0,0,0,0c0,0,0,0,0.1,0s0,0,0.1,0h0.1c0,0,0,0,0,0.1v0.1
		c0.1-0.1,0.1-0.1,0.2-0.1c0.1,0,0.1-0.1,0.2-0.1c0.1,0,0.2,0,0.2,0.1c0.1,0.1,0.1,0.2,0.1,0.3v0.7c0,0,0,0,0,0s0,0,0,0
		C483,290.4,483,290.4,483.1,290.4C483.1,290.4,483.1,290.4,483.1,290.4"/>
	<path fill="#296F8B" d="M483.5,290.4C483.5,290.4,483.5,290.4,483.5,290.4c0,0.1,0,0.1,0,0.1c0,0,0,0,0,0.1c0,0,0,0-0.1,0
		c0,0-0.1,0-0.1,0s0,0,0,0c0,0,0,0,0,0l0,0l0,0c0,0,0,0,0,0C483.4,290.5,483.4,290.5,483.5,290.4l-0.1,0.1c-0.1,0-0.1,0-0.1-0.1
		s0-0.1,0.1-0.1C483.5,290.2,483.6,290.3,483.5,290.4L483.5,290.4L483.5,290.4z"/>
	<path fill="#296F8B" d="M486.1,290.4C486.1,290.4,486,290.5,486.1,290.4l-0.4,0c0,0,0,0,0,0c0,0,0,0,0,0c0,0,0,0,0,0c0,0,0,0,0,0
		c0,0,0,0,0,0V289c0,0,0,0,0,0s0,0,0,0.1l-0.4,1.2c0,0.1,0,0.1-0.1,0.1s-0.1,0-0.1-0.1l-0.4-1.2c0,0,0-0.1,0-0.1s0,0,0,0v1.3
		c0,0,0,0,0,0c0,0,0,0,0,0c0,0,0,0,0,0c0,0,0,0,0,0c0,0,0,0,0,0h-0.3c0,0,0,0,0,0c0,0,0,0,0,0c0,0,0,0,0,0c0,0,0,0,0,0c0,0,0,0,0,0
		v-1.5c0,0,0,0,0,0c0,0,0,0,0,0c0,0,0,0,0,0c0,0,0,0,0,0c0,0,0,0,0,0h0.3c0,0,0.1,0,0.1,0.1l0.4,1.3c0,0,0,0,0,0c0,0,0,0,0,0
		l0.4-1.3c0-0.1,0-0.1,0.1-0.1h0.2c0,0,0,0,0,0c0,0,0,0-0.1,0.1c0,0-0.1,0-0.1,0.1v1.4c0,0,0,0,0,0C486,290.3,486,290.3,486.1,290.4
		C486,290.3,486,290.4,486.1,290.4C486,290.4,486.1,290.4,486.1,290.4"/>
	<path fill="#296F8B" d="M486.7,290.4C486.7,290.4,486.7,290.5,486.7,290.4l-0.4,0c0,0,0,0,0,0c0,0,0,0,0,0c0,0,0,0,0,0c0,0,0,0,0,0
		c0,0,0,0,0,0v-0.9c0,0,0,0,0,0c0,0,0,0,0,0c0,0,0,0,0,0c0,0,0,0,0,0c0,0,0,0,0,0c0,0,0,0,0,0c0,0,0,0,0.1,0s0,0,0.1,0h0.1
		c0,0,0,0,0,0.1v1.1c0,0,0,0,0,0C486.6,290.3,486.6,290.3,486.7,290.4C486.7,290.4,486.7,290.4,486.7,290.4
		C486.7,290.4,486.7,290.4,486.7,290.4 M486.6,288.9c0,0.1,0,0.1-0.1,0.1c-0.1,0-0.1,0-0.1-0.1c0-0.1,0-0.1,0.1-0.1
		C486.6,288.8,486.6,288.8,486.6,288.9"/>
	<path fill="#296F8B" d="M488.1,290.4C488.1,290.4,488.1,290.5,488.1,290.4l-0.4,0c0,0,0,0,0,0c0,0,0,0,0,0c0,0,0,0,0,0c0,0,0,0,0,0
		c0,0,0,0,0,0v-0.7c0,0,0-0.1,0-0.1c0,0,0-0.1,0-0.1c0,0,0,0-0.1-0.1c0,0-0.1,0-0.1,0c0,0-0.1,0-0.1,0c0,0-0.1,0.1-0.2,0.1v0.9
		c0,0,0,0,0,0s0,0,0,0c0,0,0,0,0,0c0,0,0,0,0,0s0,0,0,0H487c0,0,0,0,0,0s0,0,0,0c0,0,0,0,0,0c0,0,0,0,0,0c0,0,0,0,0,0v-1
		c0,0,0,0,0,0s0,0,0,0c0,0,0,0,0,0c0,0,0,0,0,0s0,0,0,0c0,0,0,0,0,0c0,0,0,0,0.1,0s0,0,0.1,0h0.1c0,0,0,0,0,0.1v0.1
		c0.1-0.1,0.1-0.1,0.2-0.1c0.1,0,0.1-0.1,0.2-0.1c0.1,0,0.2,0,0.2,0.1c0.1,0.1,0.1,0.2,0.1,0.3v0.7c0,0,0,0,0,0s0,0,0,0
		C488,290.4,488,290.4,488.1,290.4C488.1,290.4,488.1,290.4,488.1,290.4"/>
	<path fill="#296F8B" d="M488.8,290.4C488.8,290.4,488.7,290.5,488.8,290.4l-0.4,0c0,0,0,0,0,0c0,0,0,0,0,0c0,0,0,0,0,0c0,0,0,0,0,0
		c0,0,0,0,0,0v-0.9c0,0,0,0,0,0c0,0,0,0,0,0c0,0,0,0,0,0c0,0,0,0,0,0c0,0,0,0,0,0c0,0,0,0,0,0c0,0,0,0,0.1,0c0,0,0,0,0.1,0h0.1
		c0,0,0,0,0,0.1v1.1c0,0,0,0,0,0C488.7,290.3,488.7,290.3,488.8,290.4C488.7,290.4,488.7,290.4,488.8,290.4
		C488.7,290.4,488.8,290.4,488.8,290.4 M488.6,288.9c0,0.1,0,0.1-0.1,0.1c-0.1,0-0.1,0-0.1-0.1c0-0.1,0-0.1,0.1-0.1
		C488.6,288.8,488.6,288.8,488.6,288.9"/>
	<path fill="#296F8B" d="M489.8,290.1c0,0.1,0,0.2-0.1,0.3c-0.1,0.1-0.2,0.1-0.3,0.1c-0.1,0-0.1,0-0.2,0c-0.1,0-0.1,0-0.2-0.1l0-0.3
		c0,0,0,0,0.1,0c0,0,0,0,0,0l0,0.1c0,0,0,0.1,0.1,0.1c0,0,0.1,0,0.1,0c0.1,0,0.2,0,0.2-0.1c0-0.1,0.1-0.1,0.1-0.2
		c0-0.1-0.1-0.2-0.3-0.3c-0.2-0.1-0.3-0.2-0.3-0.4c0-0.1,0-0.2,0.1-0.2s0.2-0.1,0.3-0.1c0,0,0.1,0,0.1,0s0.1,0,0.1,0.1l0,0.3
		c0,0,0,0,0,0c0,0,0,0-0.1,0l0-0.1c0,0,0-0.1-0.1-0.1c0,0-0.1,0-0.1,0c-0.1,0-0.1,0-0.2,0.1s-0.1,0.1-0.1,0.1c0,0.1,0.1,0.2,0.3,0.3
		c0.1,0,0.2,0.1,0.2,0.2C489.7,289.9,489.8,290,489.8,290.1"/>
	<path fill="#296F8B" d="M490.7,290.3C490.7,290.4,490.7,290.4,490.7,290.3c0,0.1-0.1,0.1-0.1,0.1c0,0-0.1,0-0.1,0c0,0,0,0-0.1,0
		c-0.1,0-0.2,0-0.2-0.1c-0.1-0.1-0.1-0.2-0.1-0.3v-0.7c0,0,0,0,0,0h-0.1c0,0,0,0,0-0.1c0,0,0,0,0-0.1c0,0,0,0,0,0h0c0,0,0,0,0-0.1
		v-0.2c0,0,0,0,0-0.1c0,0,0,0,0-0.1c0,0,0,0,0-0.1c0,0,0,0,0.1,0h0c0,0,0,0,0,0.1v0.4c0,0,0,0,0,0h0.2c0,0,0,0,0,0.1s0,0.1,0,0.1
		h-0.2c0,0,0,0,0,0v0.7c0,0.1,0,0.2,0,0.2c0,0,0.1,0.1,0.1,0.1C490.6,290.3,490.6,290.3,490.7,290.3L490.7,290.3L490.7,290.3
		C490.7,290.3,490.7,290.3,490.7,290.3"/>
	<path fill="#296F8B" d="M491.7,289.4C491.7,289.5,491.7,289.5,491.7,289.4L491.7,289.4C491.6,289.5,491.6,289.5,491.7,289.4
		C491.6,289.4,491.6,289.4,491.7,289.4l-0.1-0.1c0,0-0.1,0-0.1,0s-0.1,0-0.1,0c0,0-0.1,0.1-0.1,0.1v0.9c0,0,0,0,0,0c0,0,0,0,0,0
		c0,0,0,0,0,0c0,0,0,0,0,0c0,0,0,0,0,0h-0.4c0,0,0,0,0,0c0,0,0,0,0,0c0,0,0,0,0,0c0,0,0,0,0,0c0,0,0,0,0,0v-1c0,0,0,0,0,0
		c0,0,0,0,0,0c0,0,0,0,0,0c0,0,0,0,0,0c0,0,0,0,0,0c0,0,0,0,0,0c0,0,0,0,0.1,0s0,0,0.1,0h0.1c0,0,0,0,0,0.1v0.1
		c0-0.1,0.1-0.1,0.1-0.1c0,0,0.1-0.1,0.2-0.1c0,0,0.1,0,0.1,0L491.7,289.4L491.7,289.4L491.7,289.4"/>
	<path fill="#296F8B" d="M492.9,289.2C492.9,289.2,492.9,289.2,492.9,289.2C492.9,289.2,492.9,289.2,492.9,289.2
		c-0.1,0-0.1,0.1-0.1,0.1c0,0,0,0,0,0.1l-0.4,1.4c0,0.1-0.1,0.1-0.1,0.2s-0.1,0-0.1,0.1c0,0,0,0-0.1,0c0,0-0.1,0-0.1,0
		c0,0,0,0-0.1,0c0,0,0,0,0-0.1c0,0,0,0,0,0c0,0,0,0,0,0c0,0,0,0,0,0c0,0,0,0,0,0c0,0,0,0,0.1,0c0,0,0.1,0,0.1,0c0,0,0-0.1,0.1-0.1
		l0.1-0.3l-0.3-1.1c0,0,0,0,0-0.1c0,0,0,0-0.1,0c0,0,0,0,0,0c0,0,0,0,0,0c0,0,0,0,0,0h0.4c0,0,0,0,0,0c0,0,0,0,0,0s0,0,0,0
		c0,0,0,0,0,0c0,0,0,0,0,0l0,0c0,0,0,0,0,0l0.2,0.8c0,0,0,0,0,0s0,0,0,0l0.2-0.8c0,0,0,0,0,0s0,0,0,0c0,0,0,0,0,0c0,0,0,0,0,0
		c0,0,0,0,0,0c0,0,0,0,0,0L492.9,289.2C492.9,289.1,492.9,289.1,492.9,289.2"/>
	<path fill="#296F8B" d="M494.7,289.8c0,0.1,0,0.2,0,0.3c0,0.1-0.1,0.2-0.1,0.2c0,0.1-0.1,0.1-0.2,0.1c-0.1,0-0.1,0-0.2,0
		c-0.1,0-0.1,0-0.2,0c-0.1,0-0.1-0.1-0.2-0.1c0-0.1-0.1-0.1-0.1-0.2c0-0.1,0-0.2,0-0.3c0-0.2,0-0.3,0.1-0.4c0.1-0.1,0.1-0.2,0.2-0.2
		c0.1,0,0.1,0,0.2,0c0.1,0,0.1,0,0.2,0c0.1,0,0.1,0.1,0.2,0.1c0,0.1,0.1,0.1,0.1,0.2C494.7,289.6,494.7,289.7,494.7,289.8
		 M494.5,289.8c0-0.1,0-0.2,0-0.2c0-0.1,0-0.1-0.1-0.2c0-0.1-0.1-0.1-0.1-0.1c0,0-0.1,0-0.1,0c0,0-0.1,0-0.1,0
		c-0.1,0-0.1,0.1-0.1,0.2c0,0.1,0,0.2,0,0.3c0,0.1,0,0.1,0,0.2c0,0.1,0,0.1,0.1,0.2c0,0,0.1,0.1,0.1,0.1c0,0,0.1,0,0.1,0
		c0,0,0.1,0,0.1,0c0,0,0.1-0.1,0.1-0.1c0,0,0-0.1,0.1-0.2C494.5,290,494.5,289.9,494.5,289.8"/>
	<path fill="#296F8B" d="M495.6,288.7C495.6,288.8,495.5,288.8,495.6,288.7c-0.1,0.1-0.2,0.1-0.2,0.1s-0.1,0.1-0.1,0.3c0,0,0,0,0,0
		h0.1c0,0,0,0,0,0.1c0,0,0,0.1,0,0.1h-0.1c0,0,0,0,0,0v1c0,0,0,0,0,0s0,0,0,0c0,0,0,0,0,0c0,0,0,0,0,0s0,0,0,0H495c0,0,0,0,0,0
		s0,0,0,0c0,0,0,0,0,0c0,0,0,0,0,0c0,0,0,0,0,0v-1c0,0,0,0,0,0h0c0,0,0,0,0-0.1s0-0.1,0-0.1h0.1c0,0,0,0,0,0c0-0.2,0-0.3,0.1-0.3
		C495.3,288.7,495.4,288.7,495.6,288.7C495.5,288.7,495.6,288.7,495.6,288.7"/>
	<path fill="#296F8B" d="M497.5,290.4C497.5,290.4,497.4,290.5,497.5,290.4l-1,0.1c0,0,0,0,0,0s0,0,0,0c0,0,0,0,0,0c0,0,0,0,0,0
		c0,0,0,0,0,0v-1.5c0,0,0,0,0,0s0,0,0,0c0,0,0,0,0,0c0,0,0,0,0,0s0,0,0,0h1c0,0,0,0,0,0.1v0.2c0,0,0,0.1,0,0.1c0,0,0,0,0,0
		c0,0,0,0,0-0.1c0,0,0,0,0-0.1c0,0,0,0,0,0h-0.6c0,0,0,0,0,0v0.6c0,0,0,0.1,0,0.1h0.3c0,0,0,0,0,0c0,0,0,0,0-0.1c0,0,0,0,0-0.1
		c0,0,0,0,0,0c0,0,0,0,0,0.1v0.3c0,0,0,0.1,0,0.1c0,0,0,0,0,0c0,0,0,0,0-0.1c0,0,0,0,0-0.1s0,0,0,0h-0.3c0,0,0,0,0,0.1v0.6
		c0,0,0,0,0,0h0.6c0,0,0,0,0,0c0,0,0,0,0-0.1c0,0,0,0,0-0.1c0,0,0,0,0,0c0,0,0,0,0,0.1L497.5,290.4L497.5,290.4z"/>
	<path fill="#296F8B" d="M498.7,290.4C498.7,290.4,498.7,290.4,498.7,290.4c-0.2,0-0.2,0-0.3-0.1c-0.1,0-0.1,0.1-0.2,0.1
		c-0.1,0-0.1,0-0.2,0c-0.1,0-0.1,0-0.2-0.1s-0.1-0.1-0.1-0.1c0-0.1-0.1-0.1-0.1-0.2c0-0.1,0-0.1,0-0.2c0-0.1,0-0.2,0-0.3
		c0-0.1,0-0.2,0.1-0.2c0-0.1,0.1-0.1,0.2-0.2c0.1,0,0.1-0.1,0.2-0.1c0,0,0.1,0,0.1,0c0,0,0.1,0,0.1,0l0,0l0,0c0,0,0,0,0,0v-0.4
		c0,0,0,0,0,0s0,0,0,0c0,0,0,0,0,0c0,0,0,0,0,0c0,0,0,0,0,0c0,0,0,0,0,0c0,0,0,0,0.1,0s0,0,0,0h0.1c0,0,0,0,0,0.1v1.7c0,0,0,0,0,0.1
		c0,0,0,0,0,0C498.7,290.3,498.7,290.3,498.7,290.4C498.7,290.4,498.7,290.4,498.7,290.4 M498.4,289.3
		C498.4,289.3,498.4,289.3,498.4,289.3c-0.1-0.1-0.1-0.1-0.2-0.1c0,0-0.1,0-0.1,0c0,0-0.1,0.1-0.1,0.1c0,0.1-0.1,0.1-0.1,0.2
		c0,0.1,0,0.2,0,0.2c0,0.2,0,0.3,0.1,0.4c0.1,0.1,0.1,0.1,0.2,0.1c0,0,0,0,0.1,0s0.1,0,0.1,0c0,0,0,0,0.1,0c0,0,0,0,0-0.1
		L498.4,289.3L498.4,289.3z"/>
	<path fill="#296F8B" d="M500.1,290.4C500.1,290.4,500.1,290.4,500.1,290.4C500,290.4,500,290.4,500.1,290.4
		c-0.1,0.1-0.1,0.1-0.1,0.1c0,0,0,0,0,0h-0.1c0,0-0.1,0-0.1-0.1v-0.1c-0.1,0.1-0.2,0.2-0.3,0.2c-0.1,0-0.2,0-0.2-0.1
		c-0.1-0.1-0.1-0.2-0.1-0.3v-0.7c0,0,0,0,0,0c0,0,0,0,0,0c0,0,0,0,0,0c0,0,0,0,0,0c0,0,0,0,0,0c0,0,0,0,0,0c0,0,0,0,0.1,0
		c0,0,0,0,0.1,0h0.1c0,0,0,0,0,0.1v0.8c0,0,0,0.1,0,0.1c0,0,0,0.1,0,0.1c0,0,0,0,0.1,0.1c0,0,0.1,0,0.1,0c0.1,0,0.2,0,0.3-0.1v-0.8
		c0,0,0,0,0,0s0,0,0,0c0,0,0,0,0,0c0,0,0,0,0,0c0,0,0,0,0.1-0.1c0,0,0.1,0,0.2,0c0,0,0,0,0,0.1v1.1c0,0,0,0,0,0
		C500,290.4,500,290.4,500.1,290.4C500,290.4,500,290.4,500.1,290.4C500,290.4,500.1,290.4,500.1,290.4"/>
	<path fill="#296F8B" d="M501.1,290.3C501.1,290.4,501.1,290.4,501.1,290.3c-0.1,0.1-0.1,0.1-0.1,0.1c0,0-0.1,0-0.1,0s-0.1,0-0.1,0
		c-0.1,0-0.2,0-0.2,0c-0.1,0-0.1-0.1-0.2-0.1s-0.1-0.1-0.1-0.2c0-0.1,0-0.2,0-0.3s0-0.2,0-0.3c0-0.1,0.1-0.2,0.1-0.2
		s0.1-0.1,0.2-0.2s0.1-0.1,0.2-0.1c0.1,0,0.2,0,0.3,0.1v0.2c0,0,0,0.1,0,0.1c0,0,0,0,0,0c0,0,0,0,0-0.1c0,0,0,0,0-0.1c0,0,0,0,0,0
		c0,0,0,0-0.1,0c0,0,0,0-0.1,0c0,0-0.1,0-0.1,0c0,0-0.1,0.1-0.1,0.1c0,0.1-0.1,0.1-0.1,0.2c0,0.1,0,0.2,0,0.2c0,0.1,0,0.2,0,0.2
		c0,0.1,0,0.1,0.1,0.2c0,0,0.1,0.1,0.1,0.1c0,0,0.1,0,0.2,0S501,290.3,501.1,290.3C501.1,290.3,501.1,290.3,501.1,290.3"/>
	<path fill="#296F8B" d="M502.3,290.4C502.3,290.5,502.2,290.5,502.3,290.4c-0.1,0-0.2,0-0.3-0.1c-0.1,0.1-0.2,0.1-0.3,0.1
		c-0.1,0-0.2,0-0.3-0.1c-0.1-0.1-0.1-0.2-0.1-0.3c0-0.1,0-0.1,0-0.2c0-0.1,0.1-0.1,0.1-0.1c0,0,0.1-0.1,0.2-0.1c0.1,0,0.1,0,0.2,0h0
		c0,0,0,0,0-0.1v-0.1c0-0.1,0-0.2-0.1-0.2c0-0.1-0.1-0.1-0.2-0.1c0,0-0.1,0-0.1,0s-0.1,0-0.1,0c0,0,0,0,0,0c0,0,0,0,0-0.1
		c0.1,0,0.1-0.1,0.3-0.1c0.1,0,0.2,0,0.3,0.1c0.1,0.1,0.1,0.2,0.1,0.3v0.7c0,0,0,0,0,0.1C502.2,290.3,502.2,290.3,502.3,290.4
		C502.3,290.3,502.3,290.4,502.3,290.4C502.3,290.4,502.3,290.4,502.3,290.4 M502,289.8C502,289.8,501.9,289.8,502,289.8
		c-0.2-0.1-0.3,0-0.4,0s-0.1,0.1-0.1,0.2c0,0,0,0.1,0,0.1c0,0,0,0.1,0,0.1c0,0,0,0,0.1,0.1c0,0,0.1,0,0.1,0s0.1,0,0.2,0
		c0,0,0,0,0-0.1L502,289.8L502,289.8z"/>
	<path fill="#296F8B" d="M503,290.3C503,290.4,503,290.4,503,290.3c0,0.1-0.1,0.1-0.1,0.1s-0.1,0-0.1,0c0,0,0,0-0.1,0
		c-0.1,0-0.2,0-0.2-0.1c-0.1-0.1-0.1-0.2-0.1-0.3v-0.7c0,0,0,0,0,0h-0.1c0,0,0,0,0-0.1c0,0,0,0,0-0.1c0,0,0,0,0,0h0c0,0,0,0,0-0.1
		v-0.2c0,0,0,0,0-0.1c0,0,0,0,0-0.1c0,0,0,0,0-0.1c0,0,0,0,0.1,0h0c0,0,0,0,0,0.1v0.4c0,0,0,0,0,0h0.2c0,0,0,0,0,0.1s0,0.1,0,0.1
		h-0.2c0,0,0,0,0,0v0.7c0,0.1,0,0.2,0,0.2c0,0,0.1,0.1,0.1,0.1C502.9,290.3,502.9,290.3,503,290.3L503,290.3L503,290.3
		C503,290.3,503,290.3,503,290.3"/>
	<path fill="#296F8B" d="M503.6,290.4C503.6,290.4,503.6,290.5,503.6,290.4l-0.4,0c0,0,0,0,0,0c0,0,0,0,0,0c0,0,0,0,0,0c0,0,0,0,0,0
		c0,0,0,0,0,0v-0.9c0,0,0,0,0,0s0,0,0,0c0,0,0,0,0,0c0,0,0,0,0,0c0,0,0,0,0,0c0,0,0,0,0,0c0,0,0,0,0.1,0s0,0,0.1,0h0.1
		c0,0,0,0,0,0.1v1.1c0,0,0,0,0,0C503.5,290.3,503.5,290.3,503.6,290.4C503.6,290.4,503.6,290.4,503.6,290.4
		C503.6,290.4,503.6,290.4,503.6,290.4 M503.5,288.9c0,0.1,0,0.1-0.1,0.1s-0.1,0-0.1-0.1c0-0.1,0-0.1,0.1-0.1
		C503.5,288.8,503.5,288.8,503.5,288.9"/>
	<path fill="#296F8B" d="M504.8,289.8c0,0.1,0,0.2,0,0.3c0,0.1-0.1,0.2-0.1,0.2c0,0.1-0.1,0.1-0.2,0.1c-0.1,0-0.1,0-0.2,0
		c-0.1,0-0.1,0-0.2,0c-0.1,0-0.1-0.1-0.2-0.1c0-0.1-0.1-0.1-0.1-0.2c0-0.1,0-0.2,0-0.3c0-0.2,0-0.3,0.1-0.4c0.1-0.1,0.1-0.2,0.2-0.2
		c0.1,0,0.1,0,0.2,0c0.1,0,0.1,0,0.2,0c0.1,0,0.1,0.1,0.2,0.1c0,0.1,0.1,0.1,0.1,0.2C504.8,289.6,504.8,289.7,504.8,289.8
		 M504.6,289.8c0-0.1,0-0.2,0-0.2s0-0.1-0.1-0.2c0-0.1-0.1-0.1-0.1-0.1c0,0-0.1,0-0.1,0c0,0-0.1,0-0.1,0c-0.1,0-0.1,0.1-0.1,0.2
		c0,0.1,0,0.2,0,0.3c0,0.1,0,0.1,0,0.2c0,0.1,0,0.1,0.1,0.2c0,0,0.1,0.1,0.1,0.1c0,0,0.1,0,0.1,0c0,0,0.1,0,0.1,0
		c0,0,0.1-0.1,0.1-0.1c0,0,0-0.1,0.1-0.2C504.6,290,504.6,289.9,504.6,289.8"/>
	<path fill="#296F8B" d="M506.2,290.4C506.2,290.4,506.2,290.5,506.2,290.4l-0.4,0c0,0,0,0,0,0c0,0,0,0,0,0c0,0,0,0,0,0c0,0,0,0,0,0
		c0,0,0,0,0,0v-0.7c0,0,0-0.1,0-0.1c0,0,0-0.1,0-0.1c0,0,0,0-0.1-0.1c0,0-0.1,0-0.1,0c0,0-0.1,0-0.1,0c0,0-0.1,0.1-0.2,0.1v0.9
		c0,0,0,0,0,0c0,0,0,0,0,0c0,0,0,0,0,0c0,0,0,0,0,0s0,0,0,0h-0.4c0,0,0,0,0,0s0,0,0,0c0,0,0,0,0,0c0,0,0,0,0,0c0,0,0,0,0,0v-1
		c0,0,0,0,0,0c0,0,0,0,0,0c0,0,0,0,0,0c0,0,0,0,0,0s0,0,0,0c0,0,0,0,0,0c0,0,0,0,0.1,0c0,0,0,0,0.1,0h0.1c0,0,0,0,0,0.1v0.1
		c0.1-0.1,0.1-0.1,0.2-0.1c0.1,0,0.1-0.1,0.2-0.1c0.1,0,0.2,0,0.2,0.1c0.1,0.1,0.1,0.2,0.1,0.3v0.7c0,0,0,0,0,0c0,0,0,0,0,0
		C506.1,290.4,506.1,290.4,506.2,290.4C506.2,290.4,506.2,290.4,506.2,290.4"/>
</g>
<g>
	<g>
		<g>
			<path fill="#DB707F" d="M185.4,278.1v-10c0-0.2-0.1-0.3-0.3-0.3s-0.3,0.1-0.3,0.3v10c0,0.2,0.1,0.3,0.3,0.3
				S185.4,278.3,185.4,278.1z"/>
			<path fill="#DB707F" d="M185,278.6c-0.2,0-0.4-0.2-0.4-0.4v-10c0-0.2,0.2-0.4,0.4-0.4c0.2,0,0.4,0.2,0.4,0.4v10
				C185.5,278.4,185.3,278.6,185,278.6z M185,267.9c-0.1,0-0.3,0.1-0.3,0.3v10c0,0.1,0.1,0.3,0.3,0.3s0.3-0.1,0.3-0.3v-10
				C185.3,268,185.2,267.9,185,267.9z"/>
		</g>
		<g>
			<path fill="#DB707F" d="M195.1,265.6c-0.7,0-1.6-0.3-2.5-0.6c-1.2-0.4-2.5-0.9-3.9-0.9c-1.6,0-2.6,0.7-3.1,1.3
				c-0.2,0.2-0.4,0.4-0.5,0.6c-0.1-0.2-0.3-0.4-0.5-0.6c-0.5-0.6-1.5-1.3-3.1-1.3c-1.4,0-2.7,0.5-3.9,0.9c-0.9,0.3-1.8,0.6-2.5,0.6
				c-0.2,0-0.3,0.1-0.3,0.3v13.5c0,0.2,0.1,0.3,0.3,0.3c0.8,0,1.8-0.3,2.7-0.7c1.1-0.4,2.4-0.8,3.7-0.8c1.1,0,2,0.4,2.6,1.1
				c0.1,0.1,0.3,0.1,0.5,0c0.1-0.1,0.1-0.3,0-0.5c-0.5-0.6-1.5-1.3-3.1-1.3c-1.4,0-2.7,0.5-3.9,0.9c-0.8,0.3-1.5,0.5-2.2,0.6v-12.8
				c0.7-0.1,1.5-0.4,2.4-0.6c1.1-0.4,2.4-0.8,3.7-0.8c2.6,0,3.3,2,3.3,2.1c0,0.1,0.2,0.2,0.3,0.2c0.1,0,0.3-0.1,0.3-0.2
				c0,0,0.7-2.1,3.3-2.1c1.3,0,2.6,0.4,3.7,0.8c0.9,0.3,1.7,0.6,2.4,0.6v12.8c-0.6-0.1-1.4-0.3-2.2-0.6c-1.2-0.4-2.5-0.9-3.9-0.9
				c-1.6,0-2.6,0.7-3.1,1.3c-0.1,0.1-0.1,0.3,0,0.5c0.1,0.1,0.3,0.1,0.5,0c0.7-0.7,1.5-1.1,2.6-1.1c1.3,0,2.6,0.4,3.7,0.8
				c1,0.3,1.9,0.7,2.7,0.7c0.2,0,0.3-0.1,0.3-0.3V266C195.4,265.8,195.3,265.6,195.1,265.6z"/>
			<path fill="#DB707F" d="M195.1,279.9c-0.8,0-1.8-0.3-2.8-0.7c-1.1-0.4-2.4-0.8-3.7-0.8c-1.1,0-1.9,0.4-2.6,1
				c-0.1,0.1-0.2,0.1-0.3,0.1c-0.1,0-0.2,0-0.3-0.1c-0.2-0.2-0.2-0.4,0-0.6c0.5-0.6,1.5-1.3,3.2-1.3c1.4,0,2.7,0.5,4,0.9
				c0.8,0.3,1.5,0.5,2.1,0.6v-12.7c-0.7-0.1-1.5-0.4-2.3-0.6c-1.1-0.4-2.4-0.8-3.7-0.8c-2.5,0-3.2,2.1-3.2,2.1
				c-0.1,0.2-0.2,0.3-0.4,0.3c-0.2,0-0.3-0.1-0.4-0.3c0-0.1-0.7-2.1-3.2-2.1c-1.3,0-2.5,0.4-3.7,0.8c-0.8,0.3-1.6,0.6-2.3,0.6V279
				c0.6-0.1,1.3-0.3,2.1-0.6c1.2-0.4,2.5-0.9,4-0.9c1.6,0,2.6,0.7,3.2,1.3c0.1,0.1,0.1,0.2,0.1,0.3c0,0.1-0.1,0.2-0.1,0.3
				c-0.1,0.1-0.2,0.1-0.3,0.1c-0.1,0-0.2-0.1-0.3-0.1c-0.6-0.7-1.5-1-2.6-1c-1.3,0-2.5,0.4-3.7,0.8c-1,0.3-1.9,0.7-2.8,0.7
				c-0.2,0-0.4-0.2-0.4-0.4v-13.5c0-0.2,0.2-0.4,0.4-0.4c0.7,0,1.6-0.3,2.5-0.6c1.2-0.4,2.5-0.9,4-0.9c1.6,0,2.6,0.7,3.2,1.3
				c0.2,0.2,0.3,0.3,0.4,0.5c0.1-0.2,0.3-0.4,0.4-0.5c0.5-0.6,1.5-1.3,3.2-1.3c1.4,0,2.7,0.5,4,0.9c0.9,0.3,1.8,0.6,2.5,0.6
				c0.2,0,0.4,0.2,0.4,0.4v13.5C195.5,279.7,195.3,279.9,195.1,279.9z M188.6,278.2c1.3,0,2.6,0.4,3.7,0.8c1,0.3,1.9,0.7,2.7,0.7
				c0.1,0,0.3-0.1,0.3-0.3v-13.5c0-0.1-0.1-0.3-0.3-0.3c-0.7,0-1.6-0.3-2.5-0.6c-1.2-0.4-2.5-0.9-3.9-0.9c-1.6,0-2.5,0.7-3.1,1.3
				c-0.2,0.2-0.3,0.4-0.5,0.6l-0.1,0.1l-0.1-0.1c-0.1-0.2-0.3-0.4-0.5-0.6c-0.5-0.6-1.5-1.3-3.1-1.3c-1.4,0-2.7,0.5-3.9,0.9
				c-0.9,0.3-1.8,0.6-2.5,0.6c-0.1,0-0.3,0.1-0.3,0.3v13.5c0,0.1,0.1,0.3,0.3,0.3c0.8,0,1.7-0.3,2.7-0.7c1.1-0.4,2.4-0.8,3.7-0.8
				c1.1,0,2,0.4,2.7,1.1c0,0,0.1,0.1,0.2,0.1c0.1,0,0.1,0,0.2-0.1c0,0,0.1-0.1,0.1-0.2c0-0.1,0-0.1-0.1-0.2
				c-0.5-0.6-1.5-1.3-3.1-1.3c-1.4,0-2.7,0.5-3.9,0.9c-0.8,0.3-1.6,0.5-2.2,0.6l-0.1,0v-13h0.1c0.7-0.1,1.5-0.3,2.4-0.6
				c1.1-0.4,2.4-0.8,3.7-0.8c2.6,0,3.3,2.1,3.4,2.2c0,0.1,0.1,0.2,0.2,0.2c0.1,0,0.2-0.1,0.2-0.2c0,0,0.7-2.2,3.4-2.2
				c1.3,0,2.6,0.4,3.7,0.8c0.9,0.3,1.7,0.6,2.4,0.6h0.1v13l-0.1,0c-0.7-0.1-1.4-0.3-2.2-0.6c-1.2-0.4-2.5-0.9-3.9-0.9
				c-1.6,0-2.5,0.7-3.1,1.3c-0.1,0.1-0.1,0.3,0,0.4c0,0,0.1,0.1,0.2,0.1s0.1,0,0.2-0.1C186.6,278.6,187.5,278.2,188.6,278.2z"/>
		</g>
		<g>
			<path fill="#DB707F" d="M195.1,280.5c-0.7,0-1.6-0.3-2.5-0.6c-1.2-0.4-2.5-0.9-3.9-0.9c-1.5,0-2.5,0.6-3,1.2h-1.2
				c-0.6-0.6-1.5-1.2-3-1.2c-1.4,0-2.7,0.5-3.9,0.9c-0.9,0.3-1.8,0.6-2.5,0.6c-0.2,0-0.3,0.1-0.3,0.3s0.1,0.3,0.3,0.3
				c0.8,0,1.8-0.3,2.7-0.7c1.1-0.4,2.4-0.8,3.7-0.8c1.1,0,2,0.4,2.6,1.1c0.1,0.1,0.2,0.1,0.2,0.1h1.4c0.1,0,0.2,0,0.2-0.1
				c0.7-0.7,1.5-1.1,2.6-1.1c1.3,0,2.6,0.4,3.7,0.8c1,0.3,1.9,0.7,2.7,0.7c0.2,0,0.3-0.1,0.3-0.3S195.3,280.5,195.1,280.5z"/>
			<path fill="#DB707F" d="M195.1,281.2c-0.8,0-1.8-0.3-2.8-0.7c-1.1-0.4-2.4-0.8-3.7-0.8c-1.1,0-1.9,0.4-2.6,1
				c-0.1,0.1-0.2,0.1-0.3,0.1h-1.4c-0.1,0-0.2,0-0.3-0.1c-0.6-0.7-1.5-1-2.6-1c-1.3,0-2.5,0.4-3.7,0.8c-1,0.3-1.9,0.7-2.8,0.7
				c-0.2,0-0.4-0.2-0.4-0.4c0-0.2,0.2-0.4,0.4-0.4c0.7,0,1.6-0.3,2.5-0.6c1.2-0.4,2.5-0.9,4-0.9c1.5,0,2.5,0.6,3.1,1.2h1.1
				c0.5-0.5,1.5-1.2,3.1-1.2c1.4,0,2.7,0.5,4,0.9c0.9,0.3,1.8,0.6,2.5,0.6c0.2,0,0.4,0.2,0.4,0.4C195.5,281,195.3,281.2,195.1,281.2
				z M188.6,279.6c1.3,0,2.6,0.4,3.7,0.8c1,0.3,1.9,0.7,2.7,0.7c0.1,0,0.3-0.1,0.3-0.3c0-0.1-0.1-0.3-0.3-0.3
				c-0.7,0-1.6-0.3-2.5-0.6c-1.2-0.4-2.5-0.9-3.9-0.9c-1.5,0-2.4,0.6-3,1.2l0,0h-1.2l0,0c-0.5-0.5-1.5-1.2-3-1.2
				c-1.4,0-2.7,0.5-3.9,0.9c-0.9,0.3-1.8,0.6-2.5,0.6c-0.1,0-0.3,0.1-0.3,0.3c0,0.1,0.1,0.3,0.3,0.3c0.8,0,1.7-0.3,2.7-0.7
				c1.1-0.4,2.4-0.8,3.7-0.8c1.1,0,2,0.4,2.7,1.1c0,0.1,0.1,0.1,0.2,0.1h1.4c0.1,0,0.1,0,0.2-0.1
				C186.6,279.9,187.5,279.6,188.6,279.6z"/>
		</g>
	</g>
	<g>
		<path fill="#DB707F" d="M180.3,288h0.9v-0.7h0.2v0.7h0.8v0.2h-0.8v0.6h0.4c0.3-0.4,0.6-0.8,0.8-1.2l0.2,0.1
			c-0.2,0.4-0.5,0.7-0.7,1.1h0.6v0.2H182c-0.1,0.2-0.3,0.4-0.5,0.5h0.8v0.2c-0.2,0.3-0.5,0.6-0.8,0.8c0,0.1,0,0.1,0.1,0.2
			c0,0,0,0,0,0c0.5-0.1,0.9-0.2,1.2-0.3l0,0.2c-0.4,0.1-0.8,0.2-1.2,0.3c0,0.2,0,0.4,0,0.5c0,0.3-0.2,0.5-0.5,0.5
			c-0.1,0-0.3,0-0.5,0l0-0.3c0.2,0,0.3,0.1,0.5,0.1c0.2,0,0.2-0.1,0.2-0.3c0-0.2,0-0.3,0-0.5c-0.4,0.1-0.9,0.2-1.4,0.3l0-0.2
			c0.5-0.1,1-0.2,1.4-0.2c0,0,0,0,0,0c0-0.2-0.1-0.4-0.2-0.6l0.2-0.1c0,0.1,0.1,0.2,0.1,0.2c0.2-0.2,0.4-0.4,0.6-0.6h-0.8
			c-0.4,0.4-0.8,0.8-1.2,1.1l-0.1-0.2c0.4-0.2,0.7-0.5,1-0.8h-0.7v-0.3h0.9c0.1-0.1,0.1-0.1,0.2-0.2c0.1-0.1,0.2-0.2,0.3-0.4h-1.7
			v-0.2h1.2v-0.6h-0.9L180.3,288L180.3,288z M183.3,287.4l0.2,0.1c-0.1,0.4-0.2,0.8-0.3,1.1h1.4v0.2h-0.3c-0.1,0.8-0.3,1.5-0.6,2
			c0,0,0,0,0,0c0.2,0.4,0.6,0.8,1,1.1l-0.2,0.2c-0.4-0.4-0.8-0.7-1-1.1c-0.3,0.5-0.8,0.8-1.3,1.1l-0.1-0.2c0.6-0.3,1-0.7,1.3-1.2
			c-0.2-0.4-0.3-0.8-0.5-1.4c-0.1,0.3-0.2,0.6-0.3,0.8l-0.2-0.2c0.2-0.4,0.3-0.8,0.5-1.3C183.1,288.3,183.2,287.8,183.3,287.4z
			 M183.1,289c0.1,0.6,0.3,1.2,0.5,1.6c0.3-0.5,0.4-1.1,0.5-1.8h-0.9C183.2,288.8,183.2,288.9,183.1,289
			C183.2,288.9,183.1,289,183.1,289z"/>
		<path fill="#DB707F" d="M187.4,287.4c0.2,0.1,0.3,0.3,0.4,0.5h2.3v0.2h-2.8c-0.2,0.3-0.5,0.6-0.8,0.8c0.7,0,1.5-0.1,2.3-0.2
			c-0.2-0.1-0.4-0.3-0.5-0.4l0.1-0.2c0.5,0.3,1,0.7,1.4,1.1l-0.1,0.2c-0.2-0.2-0.4-0.4-0.6-0.5c-1,0.1-2.1,0.2-3.4,0.2l-0.1-0.2
			c0.2,0,0.3,0,0.5,0c0.3-0.3,0.6-0.5,0.8-0.8h-1.8v-0.2h2.3c-0.1-0.1-0.2-0.2-0.3-0.4L187.4,287.4z M188.7,292.1
			c-0.2,0-0.4,0-0.7,0l0-0.3c0.3,0,0.5,0.1,0.7,0.1c0.1,0,0.2-0.1,0.2-0.2v-0.5h-2.6v1h-0.2v-2.7h3.1v2.2
			C189.2,292,189,292.1,188.7,292.1z M186.3,290.2h2.6v-0.5h-2.6V290.2z M186.3,291h2.6v-0.6h-2.6V291z"/>
	</g>
</g>
<g>
	<g>
		<g>
			<g>
				<path fill="#F7941D" d="M225.8,272c-0.3,0-0.6,0.3-0.6,0.6v8H221v-3.3c0-0.3-0.3-0.6-0.6-0.6h-3c-0.3,0-0.6,0.3-0.6,0.6v3.3
					h-4.1v-7.7c0-0.3-0.3-0.6-0.6-0.6c-0.3,0-0.6,0.3-0.6,0.6v8.3c0,0.3,0.3,0.6,0.6,0.6h5.3c0.3,0,0.6-0.3,0.6-0.6v-3.3h1.8v3.3
					c0,0.3,0.3,0.6,0.6,0.6h5.3c0.3,0,0.6-0.3,0.6-0.6v-8.5C226.3,272.3,226.1,272,225.8,272z"/>
			</g>
			<g>
				<path fill="#F7941D" d="M228.9,272.5l-4.6-4.6v-3.2c0-0.3-0.3-0.6-0.6-0.6c-0.3,0-0.6,0.3-0.6,0.6v2l-3.8-3.8
					c-0.1-0.1-0.3-0.2-0.4-0.2c-0.2,0-0.3,0.1-0.4,0.2l-9.5,9.5c-0.2,0.2-0.2,0.6,0,0.8c0.2,0.2,0.6,0.2,0.8,0l9.1-9.1l9.1,9.2
					c0.1,0.1,0.2,0.1,0.4,0.1c0.2,0,0.3-0.1,0.4-0.1C229.1,273.1,229.1,272.7,228.9,272.5z"/>
			</g>
		</g>
	</g>
	<g>
		<path fill="#F7941D" d="M214.1,288.4h1.9c-0.2,0.5-0.5,0.9-0.8,1.3v2.5H215v-2.2c-0.3,0.3-0.5,0.5-0.8,0.7l-0.2-0.2
			c0.3-0.2,0.7-0.5,1-0.9c0.3-0.3,0.5-0.6,0.7-1h-1.6L214.1,288.4L214.1,288.4z M214.9,287.4c0.2,0.2,0.4,0.5,0.5,0.8l-0.2,0.1
			c-0.1-0.3-0.3-0.5-0.5-0.8L214.9,287.4z M215.5,289.7c0.2,0.2,0.5,0.5,0.7,0.8l-0.2,0.2c-0.2-0.3-0.4-0.5-0.7-0.8L215.5,289.7z
			 M216,289.2h1.2v-1.7h0.2v1.7h1.2v0.2h-1.2v2.3h1.5v0.2h-3.2v-0.2h1.5v-2.3H216V289.2z"/>
		<path fill="#F7941D" d="M219.6,287.6h4.5v0.2h-4.2v3.4c0,0.3,0.1,0.4,0.2,0.5c0.2,0.1,0.8,0.1,1.8,0.1c0.7,0,1.4,0,2.1-0.1v0.3
			c-0.7,0-1.4,0.1-2.1,0.1c-1.2,0-1.8-0.1-2-0.2c-0.2-0.1-0.3-0.2-0.3-0.5v-3.6h-0.1L219.6,287.6L219.6,287.6z M220.4,289.8h1.4v1.5
			h-1.4V289.8z M220.7,291h0.9v-1h-0.9V291z M221,288.2h2v1.1h-2V288.2z M221.2,289.1h1.6v-0.7h-1.6V289.1z M222.3,289.8h1.4v1.5
			h-1.4V289.8z M222.5,291h1v-1h-1V291z"/>
	</g>
</g>
<g>
	<g>
		<g>
			<path fill="#7BC48B" d="M252.5,274.3l-0.3-0.1c-0.3-0.1-0.3-0.4-0.2-0.6l0.1-0.4c0,0,0,0,0,0c0-0.2,0-1.3,0-2
				c-0.2,0.1-0.5,0.1-0.7,0c-0.5-0.1-1-0.4-1.4-0.9c-0.9-1-0.9-3.2-0.9-3.3v-0.4l0.4,0.1c0.1,0,1.3,0.2,2.3,0.7
				c-0.2-0.3-0.3-0.6-0.4-1.1c-0.2-1.3,0.8-3.2,0.9-3.3l0.2-0.4l0.3,0.3c0.1,0.1,1.7,1.4,2,2.7c0.2,1.1-0.1,2-0.8,2.4c0,0,0,0,0,0.1
				c1.2-0.6,3.1-0.4,3.2-0.4l0.4,0.1l-0.1,0.4c0,0.1-0.6,2.1-1.7,2.9c-1,0.7-1.8,0.6-2.3,0.3c-0.1,1.7-0.2,2.3-0.2,2.5v0.4l-0.4-0.1
				C252.6,274.2,252.6,274.2,252.5,274.3L252.5,274.3z M253.4,270.5c0.3,0.5,1,0.5,1.8,0c0.6-0.4,1-1.4,1.3-2c-0.7,0-1.8,0-2.4,0.4
				c-0.2,0.1-0.4,0.3-0.5,0.5l-0.5,0.6l0.3,0.5C253.3,270.3,253.3,270.4,253.4,270.5C253.4,270.4,253.4,270.4,253.4,270.5z
				 M249.8,267.5c0.1,0.7,0.3,1.8,0.7,2.3c0.3,0.4,0.7,0.6,1,0.7c0.3,0,0.5,0,0.7-0.2l0,0l0.4-0.4l0-0.2l-0.3-0.6
				c-0.1-0.2-0.2-0.4-0.4-0.6C251.5,268,250.5,267.7,249.8,267.5z M252.6,263.8c-0.3,0.6-0.7,1.7-0.6,2.4c0.1,0.8,0.5,1.2,1,1.3
				l0.2,0l0.2-0.1c0.7-0.2,0.7-1.1,0.6-1.6C253.8,265.1,253.1,264.3,252.6,263.8z"/>
		</g>
		<g>
			<path fill="#7BC48B" d="M258,275.4c-2.9-1.2-3.5-2.1-4.8-2.3c-0.1,0-0.2,0-0.3,0c-0.1,0.2-0.2,0.3-0.4,0.5
				c-0.1,0.1-0.3,0.2-0.4,0.1c-0.2-0.2-0.3-0.4-0.3-0.6c0,0,0,0,0,0c-0.7,0-2.4,2.4-2.4,2.4c-0.4,0.7-0.5,1.3-0.4,1.7
				c0,0-3.9-2.2-5.1-2.6c-1.2-0.5-3.7-0.1-0.9,1.8c1.8,1.2,7.7,5.7,8.8,6c1.3,0.3,6.3-0.4,7.4-0.4c1.1,0.1,3.4,0.8,4.6,1.3v-4.3
				C262.7,278.5,261.5,276.9,258,275.4z M253.3,278.6c-2.8-0.4-1.9-2.3-1.9-2.3c0.6-1.3,0.8-2,0.9-2.5h0c0.1,0.5,0.6,1.2,1.6,1.9
				C256,277.2,256.2,279,253.3,278.6z"/>
		</g>
	</g>
	<g>
		<path fill="#7BC48B" d="M250,287.8h1.6v0.2h-0.7v1.2h0.5v0.2h-0.5v1.3c0.2-0.1,0.5-0.2,0.7-0.3l0,0.2c-0.5,0.2-1,0.4-1.5,0.6
			L250,291c0.3-0.1,0.5-0.1,0.7-0.2v-1.4h-0.5v-0.2h0.5V288H250V287.8z M252,289.5h2.2v1h-0.9c0.1,0.2,0.2,0.4,0.4,0.6
			c0.3-0.1,0.6-0.3,0.8-0.4l0.2,0.1c-0.2,0.2-0.5,0.4-0.8,0.5c0.2,0.2,0.6,0.5,1,0.7l-0.2,0.2c-0.5-0.3-0.8-0.6-1.1-0.9
			c-0.2-0.2-0.4-0.5-0.5-0.8h-0.1c-0.1,0.1-0.3,0.2-0.4,0.4v0.8c0.3-0.1,0.6-0.2,0.8-0.3l0,0.2c-0.5,0.2-1,0.4-1.6,0.6l-0.1-0.2
			c0.2-0.1,0.4-0.1,0.6-0.2V291c0,0,0,0-0.1,0c-0.4,0.2-0.7,0.4-1.1,0.5l-0.1-0.2c0.3-0.1,0.6-0.2,1-0.4c0.3-0.1,0.5-0.3,0.6-0.4
			H252L252,289.5L252,289.5z M251.5,289h3.2v0.2h-3.2V289z M251.8,287.5h2.7v1.1h-2.7V287.5z M252,288.5h0.6v-0.7H252V288.5z
			 M252.2,290.3h1.8v-0.6h-1.8V290.3z M252.8,287.7v0.7h0.6v-0.7H252.8z M253.6,287.7v0.7h0.6v-0.7H253.6z"/>
		<path fill="#7BC48B" d="M255.3,288.8h0.6v-1.2h0.2v1.2h0.6v0.2h-0.6v1.5c0.3-0.1,0.5-0.3,0.7-0.4l0,0.2c-0.6,0.3-1.1,0.5-1.5,0.7
			l-0.1-0.2c0.2-0.1,0.5-0.2,0.7-0.2V289h-0.6L255.3,288.8L255.3,288.8z M257.2,289.3h2.3v1.6h-0.7v0.7c0,0.1,0,0.2,0.1,0.2
			c0,0.1,0.3,0.1,0.7,0.1c0.1,0,0.2,0,0.2-0.1c0,0,0.1-0.3,0.1-0.7l0.2,0.1c0,0.4-0.1,0.7-0.1,0.7c0,0.1-0.2,0.2-0.4,0.2
			c-0.5,0-0.8,0-0.8-0.1c-0.1,0-0.1-0.1-0.1-0.3v-0.8h-0.5c0,0.3-0.2,0.6-0.4,0.8c-0.2,0.3-0.7,0.4-1.3,0.6l-0.1-0.2
			c0.6-0.1,1-0.3,1.2-0.5c0.2-0.2,0.3-0.4,0.4-0.6h-0.6L257.2,289.3L257.2,289.3z M258.2,287.3c0.2,0.2,0.3,0.3,0.4,0.5h1.3v0.2
			h-0.6l0.1,0c-0.1,0.1-0.1,0.3-0.2,0.4c-0.1,0.1-0.1,0.2-0.2,0.3h1.1v0.2h-3.3v-0.2h1c-0.1-0.2-0.2-0.4-0.4-0.6l0.1-0.1h-0.6v-0.2
			h1.4c-0.1-0.1-0.2-0.2-0.3-0.4L258.2,287.3z M257.5,289.9h1.8v-0.5h-1.8V289.9z M257.5,290.6h1.8v-0.5h-1.8V290.6z M258.1,288.7
			h0.5c0.1-0.1,0.2-0.2,0.3-0.3c0.1-0.1,0.2-0.3,0.2-0.4h-1.4C257.8,288.2,257.9,288.5,258.1,288.7z"/>
	</g>
</g>
<g>
	<g>
		<g>
			<path fill="#6B64AC" d="M298.3,270c0-0.2-0.1-0.3-0.3-0.4c-0.1-0.1-0.3-0.1-0.5,0c-1.4,0.5-3.5,0.8-5.8,0.8c-0.6,0-1.1,0-1.7-0.1
				c-0.3,1.2-0.7,2.4-1.3,3.4c0,0,0.1,0,0.1,0c0.7,0,1.3-0.1,1.3,0.4c0,0.5-0.6,1.4-1.3,1.4c-0.4,0-0.8-0.1-1-0.3
				c-0.7,0.9-1.6,1.6-2.5,2.1c1.1,3.6,3.6,6.1,6.4,6.1c3.9,0,7-4.5,7-10C298.7,272.2,298.5,271.1,298.3,270z M294.5,280.5
				c0,0.1-0.1,0.1-0.1,0.1c-0.1,0-0.1,0-0.1,0c-0.5-0.5-1.5-0.8-2.5-0.8c-1.1,0-2,0.3-2.5,0.8c0,0-0.1,0-0.1,0
				c-0.1,0-0.1-0.1-0.1-0.1c0-0.2-0.1-0.4-0.1-0.6c0-1.6,1.3-2.9,2.9-2.9s2.9,1.3,2.9,2.9C294.6,280.1,294.5,280.3,294.5,280.5z
				 M294.6,275.6c-0.7,0-1.3-0.9-1.3-1.4c0-0.5,0.6-0.4,1.3-0.4c0.7,0,1.3,0.4,1.3,0.9C295.9,275.2,295.3,275.6,294.6,275.6z"/>
		</g>
		<g>
			<path fill="#6B64AC" d="M289.6,267.2c0-1.2-0.1-2.3-0.4-3.4c0-0.2-0.1-0.3-0.3-0.4c-0.1,0-0.2-0.1-0.3-0.1c-0.1,0-0.1,0-0.2,0
				c-1.4,0.5-3.5,0.8-5.8,0.8c-2.4,0-4.5-0.3-5.8-0.8c-0.1,0-0.1,0-0.2,0c-0.1,0-0.2,0-0.3,0.1c-0.1,0.1-0.2,0.2-0.3,0.4
				c-0.3,1.1-0.4,2.2-0.4,3.4c0,5.5,3.1,10,7,10C286.5,277.2,289.6,272.7,289.6,267.2z M278.4,268.5c0-0.5,0.6-0.9,1.3-0.9
				c0.7,0,1.3,0.9,1.3,1.4s-0.6,0.4-1.3,0.4C279,269.4,278.4,269,278.4,268.5z M282.6,275.3c-1.6,0-2.9-1.3-2.9-2.8
				c0-0.2,0-0.4,0.1-0.6c0-0.1,0.1-0.1,0.1-0.1c0.1,0,0.1,0,0.1,0c0.5,0.5,1.5,0.8,2.5,0.8s2-0.3,2.5-0.8c0,0,0.1,0,0.1,0
				c0.1,0,0.1,0.1,0.1,0.1c0,0.2,0.1,0.4,0.1,0.6C285.5,274,284.2,275.3,282.6,275.3z M284.2,268.9c0-0.5,0.6-1.4,1.3-1.4
				c0.7,0,1.3,0.4,1.3,0.9s-0.6,0.9-1.3,0.9S284.2,269.4,284.2,268.9z"/>
		</g>
	</g>
	<g>
		<path fill="#6B64AC" d="M284.5,288.3h4.6v0.2h-1c-0.1,0.5-0.3,1-0.6,1.4c-0.2,0.2-0.3,0.5-0.5,0.6c0.1,0.1,0.3,0.2,0.4,0.4
			c0.6,0.4,1.2,0.7,1.8,0.9l-0.2,0.3c-0.6-0.2-1.2-0.5-1.8-1c-0.2-0.1-0.3-0.2-0.4-0.3c-0.2,0.2-0.3,0.3-0.5,0.4
			c-0.5,0.4-1.1,0.6-1.8,0.8l-0.2-0.2c0.6-0.2,1.2-0.4,1.7-0.8c0.2-0.1,0.4-0.3,0.6-0.5c-0.2-0.2-0.3-0.4-0.5-0.6
			c-0.3-0.4-0.5-0.9-0.6-1.5h-1V288.3z M285.8,288.6c0.1,0.5,0.3,1,0.6,1.4c0.1,0.2,0.3,0.4,0.4,0.5c0.2-0.2,0.3-0.4,0.5-0.6
			c0.3-0.4,0.5-0.9,0.6-1.3H285.8z M286.5,287.4c0.2,0.2,0.4,0.5,0.6,0.7l-0.2,0.2c-0.1-0.3-0.3-0.5-0.6-0.7L286.5,287.4z"/>
		<path fill="#6B64AC" d="M291.2,287.3l0.3,0.1c-0.2,0.5-0.4,1-0.7,1.4v3.4h-0.2v-3c-0.2,0.4-0.5,0.7-0.8,1l-0.2-0.2
			c0.4-0.4,0.7-0.8,0.9-1.3C290.8,288.3,291.1,287.8,291.2,287.3z M293.4,291.8c0.3,0,0.5,0,0.5-0.1c0.1-0.1,0.1-0.4,0.1-0.9
			l0.3,0.2c-0.1,0.6-0.1,0.9-0.2,1c-0.1,0.1-0.3,0.1-0.7,0.1c-0.7,0-1.1,0-1.2-0.1c-0.1,0-0.2-0.2-0.2-0.3v-4.2h0.3v2.1
			c0.7-0.3,1.2-0.7,1.8-1.2l0.2,0.3c-0.6,0.5-1.2,0.9-1.9,1.3v1.6c0,0.1,0,0.2,0,0.2C292.4,291.7,292.8,291.8,293.4,291.8z"/>
	</g>
</g>
<g>
	<g>
		<g>
			<path fill="#71AFD8" d="M331.8,269.1c0,0.6-0.1,1.2-0.3,1.8c-0.9,4.1-8.8,9.1-9.1,9.3c-0.1,0.1-0.2,0.1-0.3,0.1
				c-0.1,0-0.2,0-0.3-0.1c-0.1-0.1-2.3-1.4-4.6-3.4c-0.3-0.2-0.3-0.6-0.1-0.9c0.2-0.3,0.6-0.3,0.9-0.1c1.7,1.4,3.4,2.6,4.1,3.1
				c2.4-1.5,7.6-5.5,8.2-8.3c0.2-0.5,0.2-1,0.2-1.4c0-1.6-0.9-3.2-2.3-3.9c-1.8-1-4.3-0.5-5.6,1.1c-0.2,0.3-0.7,0.3-1,0
				c-1.3-1.6-3.8-2.1-5.6-1.1c-1.4,0.8-2.3,2.3-2.3,3.9c0,0.5,0.1,0.9,0.2,1.4c0.1,0.4,0.3,0.8,0.5,1.3h3.7l1.3-2.9
				c0.1-0.3,0.4-0.4,0.6-0.4c0.3,0,0.5,0.2,0.6,0.5l0.9,4l1.2-2c0.1-0.2,0.3-0.3,0.5-0.3h2.3c0.4,0,0.6,0.3,0.6,0.6
				c0,0.3-0.3,0.6-0.6,0.6h-1.9l-1.8,3c-0.1,0.2-0.3,0.3-0.5,0.3c0,0-0.1,0-0.1,0c-0.3,0-0.5-0.2-0.5-0.5l-0.9-3.6l-0.7,1.6
				c-0.1,0.2-0.3,0.4-0.6,0.4H311c-0.3,0-0.6-0.3-0.6-0.6c0-0.3,0.3-0.6,0.6-0.6h1.9c-0.1-0.3-0.2-0.6-0.3-0.9
				c-0.2-0.5-0.3-1.1-0.3-1.7c0-2.1,1.1-4,3-5.1c2.1-1.2,5-0.8,6.7,0.8c1.8-1.7,4.6-2,6.7-0.8C330.7,265.1,331.8,267,331.8,269.1z"
				/>
		</g>
	</g>
	<g>
		<path fill="#71AFD8" d="M318.7,287.3l0.2,0.1c-0.1,0.5-0.3,0.9-0.4,1.3v3.5h-0.2v-2.9c-0.1,0.3-0.3,0.6-0.4,0.9l-0.2-0.1
			c0.2-0.4,0.4-0.8,0.6-1.3C318.4,288.3,318.6,287.8,318.7,287.3z M318.8,287.7h1c-0.1,0.4-0.2,0.8-0.4,1.1
			c-0.1,0.1-0.1,0.3-0.2,0.4h0.7c-0.1,0.8-0.2,1.4-0.4,1.8c0,0,0,0.1,0,0.1c0,0,0,0,0,0c0.2,0.2,0.5,0.4,0.9,0.5
			c0.4,0.1,1.1,0.2,2.1,0.2l0,0.2c-1,0-1.8-0.1-2.2-0.2c-0.4-0.1-0.7-0.3-0.9-0.5c-0.2,0.3-0.4,0.6-0.7,0.9l-0.2-0.2
			c0.3-0.3,0.5-0.6,0.7-0.9c-0.2-0.2-0.3-0.6-0.4-1l0.2-0.1c0.1,0.4,0.2,0.7,0.3,0.8c0.2-0.4,0.3-0.9,0.3-1.5h-0.6
			c-0.1,0.1-0.1,0.2-0.2,0.2l-0.1-0.1c0.1-0.2,0.3-0.4,0.4-0.8c0.1-0.2,0.2-0.5,0.3-0.8h-0.7L318.8,287.7L318.8,287.7z M320.1,287.9
			h0.8v-0.5h0.2v0.5h0.9v0.7h0.4v0.2h-0.4v0.8h-0.9v0.5h1v0.2h-1v0.5h1.2v0.2h-1.2v0.6h-0.2V291h-1v-0.2h1v-0.5h-0.8V290h0.8v-0.5
			h-0.8v-0.2h0.8v-0.6h-1.1v-0.2h1.1v-0.5h-0.8V287.9z M321.2,288.1v0.5h0.7v-0.5H321.2z M321.2,288.8v0.6h0.7v-0.6H321.2z"/>
		<path fill="#71AFD8" d="M325.3,287.3c0.2,0.1,0.3,0.3,0.5,0.5h1.8v0.2h-4v1.7c0,0.5,0,0.9-0.1,1.4c-0.1,0.4-0.2,0.7-0.4,1.1
			l-0.2-0.1c0.2-0.4,0.3-0.8,0.4-1.1c0.1-0.4,0.1-0.8,0.1-1.2v-1.9h2c-0.1-0.1-0.2-0.2-0.4-0.3L325.3,287.3z M325.3,290.8l0,0.2
			c-0.6,0.3-1.1,0.6-1.6,0.7l-0.1-0.2C324.4,291.3,324.9,291.1,325.3,290.8z M324.3,288.5h1.2v-0.4h0.2v0.4h1.2v0.6h0.7v0.2H327v0.7
			h-1.2v1.6c0,0.3-0.1,0.4-0.3,0.4c-0.2,0-0.5,0-0.7-0.1l0-0.2c0.2,0.1,0.5,0.1,0.7,0.1c0.1,0,0.1-0.1,0.1-0.2V290h-1.3v-0.2h1.3
			v-0.5h-1.7v-0.2h1.7v-0.4h-1.2L324.3,288.5L324.3,288.5z M324.2,290.2c0.3,0.2,0.6,0.3,0.8,0.5l-0.1,0.2c-0.3-0.2-0.5-0.4-0.8-0.6
			L324.2,290.2z M325.8,288.7v0.4h1v-0.4H325.8z M325.8,289.4v0.5h1v-0.5H325.8z M326.1,290.9c0.6,0.2,1.1,0.5,1.6,0.7l-0.2,0.2
			c-0.5-0.3-1-0.5-1.6-0.7L326.1,290.9z M327.2,290.1l0.2,0.1c-0.2,0.2-0.6,0.5-0.9,0.6l-0.1-0.2
			C326.6,290.5,326.9,290.3,327.2,290.1z"/>
	</g>
</g>
<g>
	<g>
		<g>
			<g>
				<path fill="#EED42D" d="M348.8,278.3c-1.2,0-2-0.3-2.4-1c-0.6-1-0.2-2.5,1.3-4.4c1.3-1.7,3.4-3.4,5.8-4.9c2.4-1.5,4.9-2.6,7-3.1
					c2.3-0.5,3.8-0.3,4.5,0.8c1.4,2.3-2.6,6.5-7.1,9.3c-2.4,1.5-4.9,2.6-7,3.1C350,278.2,349.4,278.3,348.8,278.3z M362.5,265.6
					c-0.5,0-1.1,0.1-1.8,0.2c-2,0.5-4.4,1.5-6.7,3s-4.3,3.1-5.6,4.7c-1.1,1.4-1.6,2.6-1.2,3.2c0.4,0.6,1.7,0.7,3.4,0.3
					c2-0.5,4.4-1.5,6.7-3c2.3-1.4,4.3-3.1,5.6-4.7c1.1-1.4,1.6-2.6,1.2-3.2C363.9,265.8,363.3,265.6,362.5,265.6z"/>
			</g>
			<g>
				<path fill="#EED42D" d="M362.5,278.1c-0.6,0-1.2-0.1-1.9-0.2c-2.1-0.4-4.6-1.5-7-2.9c-2.4-1.4-4.6-3.2-5.9-4.8
					c-1.5-1.8-2-3.3-1.4-4.3c0.6-1,2.1-1.3,4.5-0.9c2.1,0.4,4.6,1.5,7,2.9c4.6,2.7,8.7,6.8,7.3,9.1
					C364.6,277.8,363.8,278.1,362.5,278.1z M348.8,265.8c-0.9,0-1.5,0.2-1.7,0.6c-0.4,0.6,0.1,1.8,1.3,3.2c1.3,1.5,3.3,3.2,5.7,4.6
					c2.3,1.4,4.8,2.4,6.7,2.8c1.8,0.4,3.1,0.2,3.4-0.4c0.4-0.6-0.1-1.8-1.3-3.2c-1.3-1.5-3.3-3.2-5.7-4.6c-2.3-1.4-4.8-2.4-6.7-2.8
					C349.8,265.8,349.3,265.8,348.8,265.8z"/>
			</g>
			<g>
				<path fill="#EED42D" d="M356,282.4c-1.2,0-2.2-1.1-3.1-3.3c-0.8-2-1.3-4.7-1.4-7.5c-0.2-5.3,1-11,3.7-11.1
					c1.2,0,2.3,1.1,3.1,3.3c0.8,2,1.3,4.7,1.4,7.5l0,0c0.1,2.8-0.2,5.5-0.8,7.6C358.2,281.2,357.2,282.4,356,282.4
					C356,282.4,356,282.4,356,282.4z M355.3,261.5L355.3,261.5c-0.7,0-1.5,1.1-2,2.8c-0.6,1.9-0.9,4.5-0.8,7.3
					c0.1,2.7,0.6,5.3,1.3,7.2c0.6,1.7,1.4,2.6,2.2,2.6h0c0.7,0,1.5-1.1,2-2.8c0.6-1.9,0.9-4.5,0.8-7.3l0,0c-0.1-2.7-0.6-5.3-1.3-7.2
					C356.8,262.5,356,261.5,355.3,261.5z"/>
			</g>
			<g>
				<circle fill="#EED42D" cx="355.6" cy="271.4" r="2.1"/>
			</g>
		</g>
	</g>
	<g>
		<path fill="#EED42D" d="M353.6,287.5l0.1,0.2c-0.3,0.1-0.5,0.2-0.8,0.2v0.8h0.9v0.2h-0.9v3.2h-0.2v-2.6c-0.1,0.2-0.2,0.4-0.3,0.6
			c-0.1,0.3-0.3,0.5-0.5,0.8l-0.2-0.2c0.2-0.2,0.4-0.6,0.6-0.9c0.2-0.3,0.3-0.6,0.3-0.9h-0.9v-0.2h0.9V288c-0.3,0.1-0.5,0.1-0.8,0.2
			l-0.1-0.2C352.4,287.8,353.1,287.6,353.6,287.5z M353.2,289.3c0.2,0.3,0.4,0.6,0.6,0.9l-0.2,0.1c-0.1-0.3-0.3-0.6-0.5-0.9
			L353.2,289.3z M356.5,290.3l0,0.2l-0.8,0.1v1.6h-0.2v-1.5l-2,0.3l0-0.2l2-0.3v-3.1h0.2v3L356.5,290.3z M354,289.1
			c0.4,0.2,0.7,0.5,1,0.8l-0.2,0.2c-0.3-0.3-0.7-0.6-1-0.9L354,289.1z M354.3,287.9c0.4,0.2,0.7,0.5,1,0.8l-0.2,0.2
			c-0.3-0.3-0.6-0.6-1-0.8L354.3,287.9z"/>
		<path fill="#EED42D" d="M357.9,290.1h3v0.2c-0.4,0.2-0.9,0.4-1.4,0.6c0,0,0,0.1,0,0.1h2.3v0.2h-2.2c0,0.2,0.1,0.3,0.1,0.5
			c0,0.2,0,0.4-0.1,0.4c-0.1,0.1-0.2,0.1-0.3,0.1c-0.2,0-0.4,0-0.6-0.1l0-0.3c0.2,0.1,0.4,0.1,0.6,0.1c0.1,0,0.1,0,0.1,0
			c0,0,0.1-0.1,0.1-0.3c0-0.2,0-0.3-0.1-0.5H357v-0.2h2.2c0-0.1-0.1-0.2-0.2-0.3l0.2-0.1c0,0,0.1,0.1,0.1,0.1
			c0.4-0.1,0.8-0.2,1.1-0.4h-2.5L357.9,290.1L357.9,290.1z M358.6,287.4l0.1,0.2c-0.3,0.1-0.6,0.2-1,0.3v0.3h1v0.2h-1v0.4h1v0.2h-1
			l0,0.5h3.3l0-0.5h-0.9v-0.2h1l0-0.4h-0.9v-0.2h0.9l0-0.4h-0.9v-0.2h1.1l-0.1,1.9h0.3v0.7h-0.2v-0.5h-4v0.5h-0.2v-0.7h0.4l-0.1-1.8
			C357.9,287.7,358.3,287.6,358.6,287.4z M359.8,288.4l0.1,0.2c-0.1,0.1-0.2,0.3-0.3,0.4c0.1,0.1,0.3,0.2,0.4,0.3l-0.1,0.2
			c-0.1-0.1-0.3-0.3-0.4-0.4c-0.2,0.1-0.4,0.3-0.6,0.4l-0.1-0.2c0.2-0.1,0.4-0.2,0.5-0.3c-0.1-0.1-0.3-0.2-0.4-0.3l0.1-0.2
			c0.2,0.1,0.3,0.2,0.5,0.3C359.6,288.7,359.7,288.5,359.8,288.4z M359.9,287.3l0.1,0.2c-0.1,0.2-0.2,0.3-0.4,0.4
			c0.1,0.1,0.2,0.2,0.3,0.3l-0.1,0.2c-0.1-0.1-0.2-0.2-0.4-0.3c-0.2,0.1-0.4,0.3-0.6,0.4l-0.1-0.2c0.2-0.1,0.4-0.2,0.6-0.3
			c-0.2-0.1-0.3-0.2-0.5-0.3l0.1-0.2c0.2,0.1,0.3,0.2,0.5,0.3C359.7,287.6,359.8,287.5,359.9,287.3z"/>
	</g>
</g>
<g>
	<circle fill="#FFFBF4" cx="452.5" cy="262.9" r="10.5"/>
	<path fill="#71AFD8" d="M452.6,254.3c-4.8,0-8.6,3.9-8.6,8.6c0,4.8,3.9,8.6,8.6,8.6c4.8,0,8.6-3.9,8.6-8.6
		C461.2,258.2,457.4,254.3,452.6,254.3z M454.7,263.2h-1.4c0,2.2,0,5,0,5h-2.1c0,0,0-2.7,0-5h-1v-1.8h1v-1.1c0-0.8,0.4-2.1,2.1-2.1
		l1.5,0v1.7c0,0-0.9,0-1.1,0c-0.2,0-0.4,0.1-0.4,0.5v1h1.6L454.7,263.2z"/>
</g>
<g>
	<circle fill="#FFFBF4" cx="475" cy="262.9" r="10.5"/>
	<path fill="#F7941D" d="M475,271.5c-0.8,0-1.5-0.1-2.3-0.3c-0.7-0.2-1.4-0.5-2-0.9s-1.2-0.8-1.7-1.3c-0.5-0.5-1-1.1-1.3-1.7
		c-0.4-0.6-0.7-1.3-0.9-2c-0.2-0.7-0.3-1.5-0.3-2.3s0.1-1.5,0.3-2.3s0.5-1.4,0.9-2s0.8-1.2,1.3-1.7s1.1-1,1.7-1.3s1.3-0.7,2-0.9
		s1.5-0.3,2.3-0.3c1.2,0,2.3,0.2,3.3,0.7c1,0.5,2,1.1,2.7,1.8s1.4,1.7,1.8,2.7c0.5,1,0.7,2.2,0.7,3.3c0,0.8-0.1,1.5-0.3,2.3
		c-0.2,0.7-0.5,1.4-0.9,2c-0.4,0.6-0.8,1.2-1.3,1.7c-0.5,0.5-1.1,1-1.7,1.3c-0.6,0.4-1.3,0.7-2,0.9
		C476.6,271.4,475.8,271.5,475,271.5z M479.2,259.4h-8.1c-0.1,0-0.1,0-0.2,0.1c-0.1,0.1-0.1,0.1-0.1,0.2v0.9c0,0,0,0.1,0.1,0.1
		l4.3,2.4l0,0c0,0,0,0,0.1,0l4.1-2.4c0,0,0,0,0.1,0c0,0,0,0,0.1,0c0,0,0.1,0,0.1-0.1v-0.9c0-0.1,0-0.2-0.1-0.2
		S479.2,259.4,479.2,259.4z M473.3,263C473.4,263,473.4,263,473.3,263c0-0.1,0-0.1,0-0.1l-2.4-1.4c0,0-0.1,0-0.1,0c0,0,0,0,0,0.1
		v3.7c0,0,0,0.1,0.1,0.1h0c0,0,0,0,0,0L473.3,263z M476.3,263.3C476.3,263.3,476.3,263.3,476.3,263.3l-1,0.5c-0.1,0.1-0.2,0.1-0.4,0
		l-0.8-0.5c0,0-0.1,0-0.1,0l-3.1,2.9c0,0,0,0,0,0.1c0,0,0,0,0,0.1c0.1,0,0.1,0,0.1,0h8c0,0,0,0,0.1,0c0,0,0-0.1,0-0.1L476.3,263.3z
		 M479.4,261.5L479.4,261.5l-2.4,1.4c0,0,0,0,0,0.1c0,0,0,0,0,0.1l2.3,2.5c0,0,0,0,0.1,0h0c0,0,0.1-0.1,0.1-0.1L479.4,261.5
		C479.5,261.5,479.4,261.5,479.4,261.5z"/>
</g>
<g>
	<circle fill="#FFFBF4" cx="497.2" cy="262.9" r="10.5"/>
	<path fill="#DB707F" d="M495.6,264.7c1.3-0.7,2.6-1.3,3.8-2c-1.3-0.7-2.6-1.3-3.8-2C495.6,262.1,495.6,263.4,495.6,264.7z"/>
	<path fill="#DB707F" d="M497.2,254.3c-4.7,0-8.6,3.8-8.6,8.6s3.8,8.6,8.6,8.6c4.7,0,8.6-3.8,8.6-8.6S501.9,254.3,497.2,254.3z
		 M503,265.7c-0.1,0.6-0.7,1.1-1.3,1.2c-1.5,0.2-3,0.2-4.5,0.2c-1.5,0-3,0-4.5-0.2c-0.6-0.1-1.2-0.5-1.3-1.2
		c-0.2-0.9-0.2-1.9-0.2-2.9s0-1.9,0.2-2.9c0.1-0.6,0.7-1.1,1.3-1.2c1.5-0.2,3-0.2,4.5-0.2c1.5,0,3,0,4.5,0.2
		c0.6,0.1,1.2,0.5,1.3,1.2c0.2,0.9,0.2,1.9,0.2,2.9S503.2,264.8,503,265.7z"/>
</g>
</svg>
