<?xml version="1.0" encoding="utf-8"?>
<!-- Generator: Adobe Illustrator 18.0.0, SVG Export Plug-In . SVG Version: 6.00 Build 0)  -->
<!DOCTYPE svg PUBLIC "-//W3C//DTD SVG 1.1//EN" "http://www.w3.org/Graphics/SVG/1.1/DTD/svg11.dtd">
<svg version="1.1" id="taipeiSVG" xmlns="http://www.w3.org/2000/svg" xmlns:xlink="http://www.w3.org/1999/xlink" x="0px" y="0px"
	 viewBox="0 0 459.2 582.5" enable-background="new 0 0 459.2 582.5" xml:space="preserve">
<path id="d1" fill="#9A9A9A" stroke="#5E5E5E" stroke-width="3" stroke-miterlimit="10" d="M14.8,211.1c0-1,0-2,0-3
	c10.3-1.8,10.2-1.8,10.3-11.7c0-2.3,0-5.1,1.1-7c4.2-6.9,12.2-10.6,15.9-18.1c0.4-0.9,1.7-1.3,2.5-2c1.4-1.3,2.6-2.8,4-4.1
	c6.4-6.1,8.7-16.5,19.3-18c0.5-0.1,1-0.8,1.3-1.3c3-5.5,5.9-11,8.9-16.5c0.9-1.6,2.2-3,3.6-4.2c4.3-3.7,11.8-4.7,10.7-13
	c-0.1-0.7,1.5-1.5,2.1-2.5c1-1.5,2.2-3.1,2.5-4.8c0.7-4.3,3-5.9,7.2-5.2c0.3,1.9,0.5,3.7,0.7,5.5c0.3-0.4,0.5-0.8,0.8-1.2
	c2.4,1,4.8,2.2,7.2,3c1.2,0.4,3.2,0.9,3.8,0.3c3.4-3.3,6.7-1.3,10-0.2c4,1.3,6.9,0.2,7.9-4c1-4.4,1.5-9,2.5-13.5
	c0.4-1.9,1.2-3.9,2.2-5.5c3.9-6.3,11.1-4.6,16.8-6.6c2-0.7,4.9-1.4,5.6-2.9c1.5-3.1,3.7-3.5,6.4-3.1c4.6,0.8,6.9-2.1,8-7.2
	c0.8-3.5,1.6-7,3.1-10.2c2.7-5.8,7.5-7.3,14.2-4.4c0.6-2.4,1.3-4.6,1.6-6.9c0.4-3.1-0.5-6.9,1-9.1c2.9-4.2,4.6-10.1,10.8-11.1
	c0.1,0,0-0.9,0-1.4c2,0,4,0,6,0c4,6.7,6.8,13.8,5.8,21.9c-0.1,1.1,0,2.3,0,3.5c0.1,4.5,2.4,6.6,6.9,6.9c2.8,0.2,5.6,1.1,8.4,1.7
	c0,1.7,0,3.3,0,5c-2.8,1.6-5.6,3.2-8.3,5c-0.6,0.4-1,1.7-0.9,2.5c1.4,6.6,0.5,12.8-2.8,18.6c-0.6,1.1-1.7,2.1-2.8,2.6
	c-5.8,2.4-7.9,7.8-4.3,12.7c2.2,3,1.9,5.6,0.8,8.7c-1.5,4.1-2.5,8.4-4,13.4c-3.8,2.1-9.6,2.9-11.8,9.3c-1.7,5.2-2.2,11.8-9.1,13.9
	c-0.1,0-0.1,0.3-0.1,0.5c-0.7,4-1.6,7.9-2,11.9c-0.6,5.6-5.4,8.9-10.7,7.1c-0.6-0.2-1.3-0.3-1.8-0.1c-7,3.6-14,7.1-20.8,11
	c-1.4,0.8-2.4,3.4-2.4,5.1c0.1,3.9,1.5,7.8,1.5,11.7c0.1,5.4-0.1,10.9-7.3,12.1c-0.9,0.2-1.8,1.5-2.3,2.4c-1.2,2.2-2.1,4.6-3.1,6.9
	c-1,2.3-1.7,4,0.5,6.5c3.6,4.1,2.2,8-2,11.2c-2,1.5-3.4,4.1-4.6,6.5c-2.8,5.7-5.2,11.6-7.9,17.3c-0.4,0.9-2.2,1.1-3.3,1.7
	c-3.8,2-9.5,1.2-10.6,7.2c-1,0-2,0-3,0c-4.4-1-8.9-3.1-13.3-2.9c-6.6,0.4-9.1-2.2-8.8-8.8c0.3-6.8-0.3-13.9-2.3-20.4
	c-2.9-9.1-11.8-11.5-20.7-8c-8.9,3.5-18.2,6.1-27.5,8.6c-5.2,1.4-14.2-4.4-16.5-9.4C19.6,220.5,17.1,215.8,14.8,211.1z"/>
<path fill="#9A9A9A" stroke="#5E5E5E" stroke-width="3" stroke-miterlimit="10" d="M19.8,231.1c0.6-1.2,1.2-2.4,2.1-4.3
	c1.7,0.7,3.8,1,4.9,2.2c5.4,5.7,11.9,5.9,18.5,3.8c8.5-2.7,16.8-6.4,25.3-9.3c1.9-0.7,4.6-0.1,6.7,0.6c9,3,12.5,9.7,12.3,18.7
	c-0.1,3.5-0.1,7,0,10.5c0.1,6.5,3.2,9.5,9.5,9.9c3.2,0.2,6.4,1.4,9.7,1.7c1.6,0.1,3.4-0.6,5-1.3c3.4-1.4,6.9-2.6,9.8-4.7
	c2.4-1.7,4.2-4.4,6.2-6.8c1.4-1.7,2.7-3.5,3.6-5.4c2-4.6,3.8-9.3,5.6-14c5.9-1.3,7.1-3.4,4.4-9.3c-2.1-4.5-3-8.3,1.3-12.1
	c1.2-1.1,1.1-3.6,1.6-5.6c7-1.7,9.6-5.8,8.6-13.9c-0.4-3.4-0.8-6.9-1-10.3c0-0.8,0.4-2,1-2.4c3.5-2.6,7.1-5.2,10.9-7.5
	c3.2-2,6.6-3.6,10-5.4c0.8-0.4,1.7-1.2,2.5-1c7.1,1.1,10.8-2.7,11.8-10.1c0.6-4.7,0.7-10.6,6.5-13.1c0.6-0.3,1.2-1.5,1.2-2.3
	c0.3-8.2,5.5-12.8,11.9-16.5c0.4-0.2,1,0,1.5-0.3c1.6-0.9,5.6-16.9,4.7-18.5c-4.2-8.1-2.4-11.9,4.9-17.7c3.1-2.4,4-7.9,5.2-12.1
	c0.7-2.3-0.4-5,0-7.4c0.3-1.5,1.8-2.8,2.9-4.1c3.6-4.2,7.7-7.9,12.9-10c4.7,0,9.3,0,14,0c0.6,3.5,2.6,7.5,1.5,10.4
	c-1.9,5.4-2.9,10.8-3.7,16.3c-0.3,2-0.5,4.2,0.1,6c3.1,8.5,3,11.1-4.3,16.6c-4.8,3.6-4.6,7.7-3.8,11.4c8.8,2.9,16.8,5.5,24.4,8
	c0.9,4,2.4,7.8,2.3,11.6c0,3.8-1.5,7.5-2.5,11.8c1.3,0.4,3.6,1.1,5.8,2c0.7,0.3,1.7,1.2,1.6,1.6c-0.8,4.5,3.3,7.3,4,11.1
	c1,5.5,4.1,8.5,8.5,11.4c5.2,3.4,9.6,8,8.7,15.2c-0.5,4,1.6,5,5.1,4.4c0,1.3,0,2.7,0,4c-3.7,1.5-4.9,7.3-10.3,6.1
	c-0.2-0.1-0.8,0.9-1.1,1.5c-2.2,5.1-4.5,10.2-6.7,15.3c-1.2,2.8-0.7,6.7-5.5,7c-3.2,0.2-7,2.6-9.4,1.5c-4.3-1.9-4.2,0.2-5.6,2.9
	c-3,5.7-1.1,14.3-10.5,11.8c-1.1,2-5.7-0.3-6.7,1.6c-1.5-1.6-4.2-0.5-5.2-1.3c-2.9-2.3-2.4-0.4-5.9,1.7c-3.7,2.2-6.2,3.9-7.4,8.1
	c-1.3,4.7-10.3,10.6-14.9,9.3c-4.6-1.2-6.2,0.2-7.9,4.1c-1.3,2.9-3.9,5.3-6,7.9c-3.6,0.4-6.7,2.2-10.1,3c-3.3,0.8-7.1,3.5-10.1-1.3
	c-0.7-1.1-3.6-1.9-4.8-1.3c-4.3,2.1-8.3,4.8-12.4,7.3c-4.5,2.8-6.3,9.7-11.6,8.9c-3,2.9-5.1,4.9-7.9,7.5c0,2.6,0,6.4,0,10.2
	c-1.3,0-2.7,0-4,0c-6.7-7.3-18.5-9.6-27.2-5.4c-5.4,2.6-7.4,1.8-9.8-3.4c-1.6-3.6-3.2-7.4-5.7-10.4c-5.4-6.2-11.7-11.6-17.1-17.9
	c-9.3-10.9-21.5-15.9-34.9-19.1c-9.6-2.3-19-5.4-25.3-13.8C19.8,235.1,19.8,233.1,19.8,231.1z"/>
<path fill="#9A9A9A" stroke="#5E5E5E" stroke-width="3" stroke-miterlimit="10" d="M250.8,359.1c-2.7,0-5.3,0-8,0
	c-0.6-1.8-1.4-3.5-1.7-5.3c-0.7-4.3-1.9-8.8-2.1-12.9c-0.2-7.3,1.6-9.7,3-16.2c2.2-10.3-3.7-17.6-14.8-22.3c-1.6-0.7-4.4-2.5-5.3-4
	c-2-3.3-2-2.6-3.7-6.1c-3.9-0.6-5-2-6.1-6.6c-0.1-0.6-3.4-5.1-4.2-5.5c-2-1.2-4-0.6-6.1-1.7c0-1.7-4.1-3.4-1.2-5.8
	c2.7-2.3,4.6-7.8,7.2-10.2c2.4-2.2,5.6-5.9,12.2-1.2c0.1,0.1,0.3,0,0.5,0c7.5-1.3,6.6-6.7,10.4-13.1c1.8-2.9,7.8-8.9,13.8-7.1
	c4.9,1.5,7,2.3,11.6,1c4.3-1.2,6.4-3.7,7.7-9.3c2.7-11.3,7.9-6.9,12.5-5.8c0.4,0.1,0.8-1.2,1.2-1.9c2.7,0,5.3,0,8,0
	c1.2,3,2.1,6.4,3.9,9c1.1,1.6,3.6,2.6,5.7,3.2c4.1,1.2,8.7,1.4,12.4,3.2c4.6,2.3,8.8,4.9,14.2,5.3c1.9,0.1,4,2.5,5.4,4.3
	c4.8,6.2,10.4,11.3,17.6,13.9c0.2,2.2,0.1,4.5,0.7,6.5c2.2,7,7,13.6,3.1,21.6c-4,0.5-7.7,7.3-7.5,16.1c-3.5,0.3-4.9,2.4-4.4,5.8
	c1.1,7.3,0.5,8.4-6.1,11.4c1.5,3.9,0.3,5.3-3.9,5.5c-2.5,0.1-6.4,1.2-7.1,2.8c-3,7.7-10.1,7.9-16,8.7c-5.7,0.8-11.7-1-17.5-1.4
	c-1.2-0.1-2.6,0.4-3.5,1.1c-3.2,2.7-5.8,6.6-9.4,8.3c-5.8,2.8-9.9,5.2-16,7.3C255.9,358.3,252.2,358.3,250.8,359.1z"/>
<path fill="#9A9A9A" stroke="#5E5E5E" stroke-width="3" stroke-miterlimit="10" d="M173.8,275.1c4,0,4,0,8,0c3,2.1,6,1.3,9,0
	c2.3,0,4.7,0,7,0c4.2,3.2,7.8,7,11.7,10.4c4.7,4.1,8.1,8.8,11.5,13.9c1.7,2.6,4.9,3.2,7.7,4.1c3.1,1,5.9,2.3,7.1,5.6
	c0,1.3,0,2.7,0,4c-5.7,0.3-9.7,1-14.8,3.1c-4.3,1.7-8,0.2-12-1.7c-5.9-2.9-7.1-1-11.3,3.6c-2.5,2.7-6.1,1.8-9.8,1.9
	c-4.1,0.1-13.1-1-13.1,9.1c7.1,1.8,6.8,2.3,7.9,8.9c1.8,11.3,1.2,20.3,1.1,31.6c0,6.4-0.6,7.4-6.9,7.7c-8.8,0.3-17.6,0.4-26.1-2.5
	c-3.9-1.3-7.9-2.7-12.1-2.6c-2.5,0.1-4.5-1-6-3c0-1,0-2,0-3c0.7-4.6,5.1-5.2,1-27c0-3.3-1-6.7-1-10c1.1-3.9,0.4-7.8,0.9-11.8
	c0.5-4.2,3.7-7.9,7.4-10.1c1.8-1,2.9-2.6,2.7-4.4c-0.5-3.8-1.5-5.8,1.4-8.4c4.5-3.9,8-4.9,12.9-8.5
	C163.3,282.1,167.7,276.8,173.8,275.1z"/>
<path fill="#9A9A9A" stroke="#5E5E5E" stroke-width="3" stroke-miterlimit="10" d="M232.8,312.1c1.3,0,2.7,0,4,0
	c5.3,3.1,8.6,9.1,5.4,15.8c-4.2,8.7-1.1,16.4,0,24.6c0.2,1.3,0.6,2.6,0.7,3.9c0.2,3.1,1.7,4.6,5,3.8c1-0.2,2-0.2,3-0.3
	c2.7-0.2,5.9-1.4,6.5,3.1c0.6,5.3-1,8.2-5.5,8.1c-11.5-0.5-22,2.3-32.3,7.2c-2.6,1.3-5.9,0.6-8.7,1.9c-4,0-8,0-12,0
	c-3.1-1.1-6.3-0.6-9.4-0.4c-4.2,0.2-5.7-1.7-5.8-5.5c-0.1-9.8,0-19.6-0.1-29.4c0-2-0.1-4,0-6c0.1-4-1.1-6.9-5.5-7.5
	c-1.4-0.2-2.4-1.1-3.3-2.1c0-2.3,0-4.7,0-7c1.7-2,4-2.1,6.3-2.1c3.1,0,6.3-0.1,9.4,0c4.1,0.1,7.5-1,9.5-4.9c1-2,2.9-2.6,5-2.5
	c4.2,0.1,8.4,0.4,12.1,2.3c3.5,1.8,6.6,1.8,9.7-0.4C228.7,313.2,231,313.3,232.8,312.1z"/>
<path fill="#9A9A9A" stroke="#5E5E5E" stroke-width="3" stroke-miterlimit="10" d="M115.8,370c-4.7,0-6.3-4-11-4c0-1.7,0-3.3,0-5
	c3.6-5.1,3.2-11,3.2-16.8c0-4.3,0-8.7,0.5-12.9c0.8-8.4,1.8-16.8-3.6-24.3c0-1.7,0-3.3,0-5c7-1.7,14-3.3,21-5c1,0,2,0,3,0
	c4,2.3,8,4.7,12,7c0,1,0,2,0,3c-0.4,0.2-1,0.3-1.3,0.6c-5.7,9.3-6.8,19.1-4.5,29.8c1.3,6.2,1.5,12.9,0.6,19.4
	c-1.6,11.6-1.8,15.5-9.9,11.9c-1.2-0.5-3.5-0.5-4.7-0.3C119.9,368.6,116.9,369.3,115.8,370z"/>
<path fill="#9A9A9A" stroke="#5E5E5E" stroke-width="3" stroke-miterlimit="10" d="M257.4,439.8c3.2-3.4,9.1-4.8,9.4-9.3
	c0.2-3.2,1.2-6.2,1.8-9.1c1.5-6.6,5-6.5,11-9.8c2.5-1.4,0.5-5.1-1.3-8.7c-0.6-1.3-2.3-2.6-2.4-4.7c-0.2-3.8-3.7-6.2-4.9-9.6
	c-1.7-4.9-7-5-10.1-8.4c-3.5-3.9-4.3-17.8-2-22.3c0.6-1.1,1.5-1.6,2.8-1.7c7.1-0.6,12.7-3.8,17.2-9.5c3.9-5,8.3-5.8,14.1-3.4
	c8,3.3,22.5-0.9,27.2-8c1.6-2.4,3.4-3.5,6.5-3.1c8.6,1,15.1,6.5,16.9,14.6c0.1,0.6,0.2,1.6-0.1,1.9c-4.3,3.1-5.2,9.4-10.3,11.6
	c-3,1.3-3.1,4.2-2.1,6.2c3.5,7,6.7,14,13.6,19.1c4.2,3.1,9.8,3.1,13.3,7.7c1.1,1.4,5.5,0.1,8.6,1.8c7.6,4.4,15.1,8.8,22.6,13.4
	c3.6,2.2,8.6,1.9,13.2,2c4.2,0.2,7.7-1.3,10.6-4c3.8-3.6,7.5-1.8,11.4-0.4c0.9,0.3,1.8,0.8,1.4,1.7c-1.1,2.7,0.4,5.4,0,8.1
	c-0.6,4.5-3.9,6.6-8.3,5.1c-4.7-1.6-9.6-0.2-14.5-1.9c-2.8-1-7.4-0.4-10,3.5c-1.8,2.6-4.4,2.8-6.1-0.7c-1.2-2.4-3.4-3.2-5.9-2.6
	c-6.2,1.5-12.3,2.1-17.8-2.1c-1.7-1.3-2.7-0.2-3.6,1c-0.4,0.5-0.5,1.2-0.6,1.8c-1.1,8.5-8.8,10.2-14.5,13.9c-0.5,0.3-1.5,0.4-1.9,0
	c-2.4-2.3-5.6-1.2-8-2.1c-3.8-1.5-7.6-1.5-11.4-2.2c-4.4-0.8-8.6,0-12.9,0.3c-2.6,0.1-3.7,1.2-4.4,3.6c-1.6,4.9-5.8,8.2-10.9,6.3
	c-6.6-2.4-11.5,4.1-17.3,4.9c-4.8,0.6-10.9,0.8-15.2,3.9c-1.3,0-7.1-1-8.4-1c-1.3-1,0.4-1.4-0.4-3.2
	C253.6,443.3,257.4,440.8,257.4,439.8z"/>
<path fill="#9A9A9A" stroke="#5E5E5E" stroke-width="3" stroke-miterlimit="10" d="M236.8,369.1c7,0,14,0,21,0
	c-0.2,6.1,1.5,11.1,7.3,14.2c6.7,3.6,9,10.2,11.6,16.8c0.9,2.2,2.7,4,4.1,6c0,1.7,0,3.3,0,5c-7.2,2.9-11.4,8.3-13.1,15.7
	c-1,4.4-1.7,8.5-6.6,10.6c-2.1,0.9-3.4,3.4-5.2,5c-1.6,1.4-3.3,2.9-5.2,3.6c-2.4,0.9-5.1,1-7.6,1.5c-1.3,2.8-5.1,3.5-7.3,5.2
	c-2,1.5-6,5.4-7.3,5c-4.5-1.5-1.8-4.7-3.5-7.4c-2.8-4.4-4.6-9-7.8-13c-4-4.9-9-9-13.9-13.8c1.6-1.7,3.2-2.9,4.3-4.5
	c3.6-5.3,4-7,3.9-12.5c-0.2-8.3-1.5-13.7-1-22c0.1-1.3,1.7-5,5.8-7.1C222.9,374.1,230,371.8,236.8,369.1z"/>
<path fill="#9A9A9A" stroke="#5E5E5E" stroke-width="3" stroke-miterlimit="10" d="M225.8,454.1c0,1.7,0,3.3,0,5c-2.3,0-4.7,0-7,0
	c-1.7-1.9-3.3-4-5.2-5.7c-4.9-4.5-6.4-4.1-9.9,1.5c-0.7,1.1-3.3,2.3-3.7,2c-4.9-4.4-7.8-0.1-11.2,2.2c-3.7,0-7.3,0-11,0
	c-0.5-0.7-1.1-1.9-1.5-1.9c-4.3,0.4-7.2-0.5-6.8-5.7c0.1-0.7-0.5-1.6-1.1-2.2c-4.3-4.8-8.7-9.5-13-14.3c-4.5-5-9.3-9.8-13.5-15
	c-2.4-2.9-3.1-6.5-1.1-10.1c0.6-1.1-0.1-3.5,0-4.8c0.5-4.5,2.5-6.3,8.6-3.7c3.8,1.5,6.7,0,10.5,0.7c0-8.9,1.4-15,1.4-23.7
	c4.9,0.9,9.3,0.9,13.5,0c8.8-2,17.7,0,26.2,2.6c1.2,0.4,2.8-0.4,4.2-0.8c1.3-0.3,3.9,0.5,5.6-0.1c0.5,3.2,0,4.4-0.1,6.9
	c-0.1,6.3-1.2,12.6-0.8,18.8c0.6,8-2.1,13.9-9,17.9c8.8,8.8,18.4,16.5,22.1,28.6C223.3,453.1,224.9,453.5,225.8,454.1z"/>
<path fill="#9A9A9A" stroke="#5E5E5E" stroke-width="3" stroke-miterlimit="10" d="M169.8,448.1c0,1,0,2,0,3c-3.8,0.3-3.1,3.2-9,5
	c-1.3,0-2.7,0-4,0c-1.5-1.3-2.8-2.9-4.5-3.8c-6.2-3.4-12.4-7.3-14.6-14.1c-2-6.2-6.6-7.5-11.4-9.4c-1.3-0.5-3.5-1-3.6-1.8
	c-0.8-3.9-3.8-4.4-6.8-5.5c-6.6-2.4-11.2-10.6-9.6-16.7c2.7-9.8,5.4-19.6,8.2-29.4c1-3.6,5.7-8,11.3-6.5c4.4,1.2,9,1.8,13.5,2.8
	c5.7,1.3,11.4,2.6,17.1,4c2.9,0.7,4.3,2.5,4,5.7c-0.3,4.1-0.1,8.3-0.1,12.5c0,7.9-2.8,9.9-10.7,7.5c-0.9-0.3-1.8-1.1-2.7-1.2
	c-1.1-0.2-2.4-0.2-3.2,0.3c-3.7,2.6-5.4,12.7-2.4,16.2C150.7,427.3,160.3,437.6,169.8,448.1z"/>
<path fill="#9A9A9A" stroke="#5E5E5E" stroke-width="3" stroke-miterlimit="10" d="M118.8,422.1c0,2,0,4,0,6
	c-9.3,3.7-13.3,13-20,19.3c-3.8,3.6-7.7,6.6-13,7.7c-2,0-4,0-6,0c-7.4-2.6-9.6-5.9-10.1-15.1c-0.3-6.3,0.7-12.6-1.8-18.7
	c-1.1-2.7-2.6-5-3.9-7.5c-4.1-7.9-6.4-21.2,2-28.7c2.9-2.6,6-4,9.8-4.1c8.3-0.2,15-3.7,20.2-10.1c3.9-4.8,11.8-5.7,16.6-1.9
	c2.4,1.9,2.7,4.6,1.9,7.3c-2.8,9.4-4.2,19.2-7.9,28.2c-1.5,3.5-0.5,5.8,1.8,8.5C111.4,416.7,116.1,418.1,118.8,422.1z"/>
<path fill="#9A9A9A" stroke="#5E5E5E" stroke-width="3" stroke-miterlimit="10" d="M282.8,441.1c1.3,0,2.7,0,4,0
	c2.4,5.4,2.3,5.4,0.7,12.8c-0.8,3.5-0.9,7.1-1.3,10.5c6.9,2.3,10,6.5,9.2,12.4c-0.2,1.7-1.1,3.4-1.9,5c-3,6.2-2.4,7.3,2.1,12.5
	c1.5,1.7,1.1,5.3,0.9,7.9c-0.2,2.5-1.5,4.9-1.7,7.5c-0.3,3.2-0.4,6.5,0.1,9.6c0.4,2.3,1.2,5.5,2.8,6.4c4.5,2.3,9.2,4.9,14.8,3.8
	c1.3-0.3,2.9-0.4,3.9,0.2c5.9,3,11.6,6.3,17.4,9.5c0,2,0,4,0,6c-2.4,0.1-4.9-0.4-7,0.4c-8.1,3-16.8,5.3-23.7,10.2
	c-4.6,3.2-8.7,2.8-13.2,3.2c-2.9,0.2-5-0.4-6-3.7c-0.4-1.1-2.8-2.3-4.3-2.2c-7.9,0.4-15.5-0.7-22.9-3.2c-3.3-1.1-6.5-2.7-10.2-4.3
	c-1.8,5.7-4.5,7.9-10,6.7c-5.5-1.2-11.3-1-17-1.4c-0.5,0-1-0.7-1.2-1.3c-1.7-3.7-3.4-7.4-5.1-11c-2.3-4.9-4.2-10.1-7.2-14.6
	c-2.3-3.5-3.6-6.5-1.8-10.3c2.2-4.7-0.7-7.5-3.3-10.8c-3.7,8.5-5.1,9.3-13.3,7.5c-0.1-0.3-0.3-0.6-0.3-0.9c-0.5-8.5-0.5-8.5-9-6.6
	c-2.7,0.6-6.5-3.5-6.1-6.4c0.5-3.7-0.2-7-3.8-9.7c-0.3,1.2-0.3,2.2-0.7,2.7c-1,1.3-2.2,2.4-3.3,3.5c-1-1.4-2.3-2.7-3-4.3
	c-0.6-1.3-0.8-2.8-0.9-4.3c-0.2-6-2.2-12.6,6.1-15.5c-1.1-2.3-2.2-4.1-2.9-6.1c-1.2-3.6-0.3-6.6,3.2-8.3c2.8-1.4,5.8-2.2,7,2.1
	c0.1,0.4,0.7,0.9,1.1,0.9c5.9-0.2,12,3.5,17.6-1.4c1.2-1,3.7-1.2,5.4-0.7c4.3,1.1,7.5,0.8,9.9-3.6c1.6-3,4.8-3.1,7.2-1
	c2.6,2.2,4.6,5.2,7.1,7.4c1.1,0.9,3.5,1.7,4.5,1.1c4.7-2.9,9.4-6,13.4-9.7c3.7-3.4,10-4.5,14-1.7c1.4,1,3.5,1.9,5.1,1.7
	c5.2-0.9,10.6-2,15.5-3.9C277.3,444.1,281.7,445.5,282.8,441.1z"/>
</svg>
