<?xml version="1.0" encoding="utf-8"?>
<!-- Generator: Adobe Illustrator 18.0.0, SVG Export Plug-In . SVG Version: 6.00 Build 0)  -->
<!DOCTYPE svg PUBLIC "-//W3C//DTD SVG 1.1//EN" "http://www.w3.org/Graphics/SVG/1.1/DTD/svg11.dtd">
<svg version="1.1" id="圖層_1" xmlns="http://www.w3.org/2000/svg" xmlns:xlink="http://www.w3.org/1999/xlink" x="0px" y="0px"
	 viewBox="0 0 64.5 66.6" enable-background="new 0 0 64.5 66.6" xml:space="preserve">
<g>
	<path fill="#22A3DD" d="M64.5,45.1C64.4,33.4,54.1,23.9,41.3,24c-12.7,0.1-23,9.7-22.9,21.5c0.1,11.8,10.5,21.3,23.2,21.2
		C54.3,66.5,64.6,56.9,64.5,45.1z"/>
	<path fill="#F3B322" d="M44.1,29.4c-0.7,2.4-2.5,4.3-4,4.3c-1.5,0-2.2-1.9-1.6-4.3c0.7-2.4,2.5-4.3,4-4.3
		C44.1,25.2,44.8,27.1,44.1,29.4z"/>
	<path fill="#ED9126" d="M35.3,38.5c0,0-7.7,6.9-15.5,6.2C12,44.1,8.4,35.8,8.1,34.6c-0.3-1.2-1.5-3.9-1.5-3.9S5,25.9,0,26.9
		c0,0,0.3-1.8,2.7-2.3c0,0,1.1-3.8,5-3.4c0,0,2.6,0.1,4.1,2.3c1.4,2,5,2.3,6.7,2.1c0,0,6.7-25.5,45.5-25.6c0,0-4.8,11.4-16.4,18.2
		c0,0-2.9,2-2.2,4c0,0,0.2,1.5,2.8,2.6l0,0c6.1,1.8,11.2,5.8,14,11.1C57.7,34.2,46.3,31,35.3,38.5"/>
	<path fill="#FFFFFF" d="M53.2,50.5L53.2,50.5c-4.3,1-8.6-0.4-9.9-3.5c-1.5-3.5,1.2-7.7,6-9.5c0.6-0.2,1.2-0.4,1.8-0.5l0,0
		c0,0,4.4-1.1,10.4,0.2c0,0,0.7,0.1,1.5,0.3v0c-0.1-0.3-0.3-0.7-0.5-1c0-0.1-0.1-0.2-0.2-0.4c0,0,0-0.1-0.1-0.1
		c-4.5-1.8-15.9-4.9-26.9,2.5c0,0-7.7,6.9-15.5,6.2c-0.5,0-0.9-0.1-1.4-0.2c0,0.3,0,0.6,0,0.9c8.8,3.2,15.3-1.6,15.3-1.6
		c0.1,1.5,0.6,3,1.3,4.3c-2.9,1.2-8.3,4.2-11.4,10.7l0,0c0.1,0.1,0.2,0.2,0.3,0.3c0.1,0.1,0.2,0.2,0.3,0.3c0.1,0.1,0.3,0.3,0.4,0.4
		c0,0,0,0,0.1,0.1c0.3,0.3,0.7,0.6,1,0.9l0,0c0.7-1.6,3.6-6,13.2-8.4c2.6,1.8,5.9,2.9,9.6,2.9c2.7,0,5.2-0.7,7.4-1.8l0,0
		c2.8-1.2,4.6-3.2,4.6-3.2l3,1.1l0,0c0.1-0.2,0.1-0.4,0.2-0.5c0,0,0,0,0-0.1l-3.2-4.6C58.5,49.4,53.2,50.5,53.2,50.5z M55.8,53.6
		L55.8,53.6L55.8,53.6L55.8,53.6z"/>
	<path fill="#F5D855" d="M35.3,38.5c11-7.5,22.4-4.3,26.9-2.5c-1.9-3.6-4.8-6.6-8.4-8.7c-15.3,2.6-18.6,9.7-19.2,11.8
		C35,38.7,35.3,38.5,35.3,38.5z"/>
	<path fill="#FFFFFF" d="M7.4,24.1c0-0.5-0.4-0.8-0.9-0.8c-0.5,0-0.9,0.4-0.9,0.8c0,0.5,0.4,0.8,0.9,0.8C7,24.9,7.4,24.5,7.4,24.1z"
		/>
	<path fill="#FFFFFF" d="M44.1,29.4c-0.7,2.4-2.5,4.3-4,4.3c-1.5,0-2.2-1.9-1.6-4.3c0.7-2.4,2.5-4.3,4-4.3
		C44.1,25.2,44.8,27.1,44.1,29.4z"/>
</g>
</svg>
